<svg width="150" height="150" viewBox="0 0 150 150" fill="none" xmlns="http://www.w3.org/2000/svg">
<rect x="0.5" y="0.5" width="149" height="149" rx="74.5" fill="#2F2F32" stroke="black"/>
<mask id="mask0_1607_12302" style="mask-type:alpha" maskUnits="userSpaceOnUse" x="1" y="1" width="148" height="148">
<rect x="1" y="1" width="148" height="148" rx="74" fill="black"/>
</mask>
<g mask="url(#mask0_1607_12302)">
<path d="M91.4045 93.8702C101.209 88.2811 107.852 77.7097 107.852 65.6052C107.852 47.6242 93.2888 33.0605 75.3078 33.0605C57.3268 33.0605 42.7631 47.6242 42.7631 65.6052C42.7631 77.7097 49.4062 88.2811 59.2111 93.8702C33.8844 98.4693 15.2646 113.608 15.2646 131.589C15.2646 153.243 42.1563 170.777 75.3078 170.777C108.459 170.777 135.351 153.243 135.351 131.589C135.351 113.576 116.731 98.4693 91.4045 93.8702Z" fill="#65B1F7"/>
</g>
</svg>
