<svg width="361" height="54" viewBox="0 0 361 54" fill="none" xmlns="http://www.w3.org/2000/svg">
<rect width="361" height="54" rx="10" fill="white"/>
<path d="M129.746 22.6919C129.882 22.6919 130.114 22.7135 130.442 22.7568C130.77 22.8001 131.128 22.9238 131.518 23.1279C131.914 23.3258 132.273 23.6567 132.594 24.1206C132.576 24.1392 132.486 24.2072 132.325 24.3247C132.164 24.436 131.985 24.603 131.787 24.8257C131.589 25.0422 131.416 25.3205 131.268 25.6606C131.119 25.9946 131.045 26.3936 131.045 26.8574C131.045 27.3893 131.138 27.8408 131.323 28.2119C131.515 28.583 131.735 28.883 131.982 29.1118C132.236 29.3345 132.458 29.4984 132.65 29.6035C132.848 29.7087 132.953 29.7643 132.965 29.7705C132.959 29.7952 132.879 30.0148 132.724 30.4292C132.576 30.8436 132.328 31.3044 131.982 31.8115C131.679 32.2507 131.351 32.6558 130.999 33.0269C130.652 33.3979 130.235 33.5835 129.746 33.5835C129.418 33.5835 129.149 33.5371 128.939 33.4443C128.729 33.3454 128.512 33.2495 128.29 33.1567C128.067 33.0578 127.767 33.0083 127.39 33.0083C127.025 33.0083 126.719 33.0578 126.471 33.1567C126.23 33.2557 125.998 33.3547 125.775 33.4536C125.559 33.5526 125.302 33.6021 125.005 33.6021C124.554 33.6021 124.158 33.4227 123.818 33.064C123.478 32.7052 123.128 32.2754 122.77 31.7744C122.355 31.1807 122 30.457 121.703 29.6035C121.412 28.7438 121.267 27.8779 121.267 27.0059C121.267 26.0719 121.443 25.2896 121.795 24.6587C122.148 24.0216 122.599 23.5423 123.15 23.2207C123.707 22.8929 124.282 22.729 124.875 22.729C125.191 22.729 125.488 22.7816 125.766 22.8867C126.044 22.9857 126.304 23.0877 126.545 23.1929C126.793 23.298 127.015 23.3506 127.213 23.3506C127.405 23.3506 127.628 23.2949 127.881 23.1836C128.135 23.0723 128.419 22.964 128.735 22.8589C129.05 22.7476 129.387 22.6919 129.746 22.6919ZM129.236 21.5137C128.995 21.8044 128.692 22.0487 128.327 22.2466C127.962 22.4383 127.615 22.5342 127.288 22.5342C127.22 22.5342 127.155 22.528 127.093 22.5156C127.087 22.4971 127.08 22.4631 127.074 22.4136C127.068 22.3641 127.065 22.3115 127.065 22.2559C127.065 21.8848 127.145 21.526 127.306 21.1797C127.467 20.8271 127.649 20.5365 127.854 20.3076C128.113 19.9984 128.441 19.7417 128.837 19.5376C129.233 19.3335 129.61 19.2253 129.969 19.2129C129.987 19.2933 129.997 19.3892 129.997 19.5005C129.997 19.8716 129.925 20.2334 129.783 20.5859C129.641 20.9323 129.458 21.2415 129.236 21.5137Z" fill="black"/>
<path d="M139.273 32L142.76 22.1016H144.947L148.447 32H146.547L145.72 29.5527H141.994L141.174 32H139.273ZM145.241 28.1172L143.895 24.125H143.812L142.473 28.1172H145.241ZM149.541 24.5762H151.25V25.793H151.359C151.546 25.4284 151.804 25.1185 152.132 24.8633C152.46 24.6081 152.913 24.4805 153.492 24.4805C154.071 24.4805 154.59 24.6286 155.051 24.9248C155.516 25.221 155.882 25.6562 156.151 26.2305C156.42 26.8047 156.555 27.4928 156.555 28.2949C156.555 29.0924 156.423 29.7806 156.158 30.3594C155.894 30.9382 155.529 31.3802 155.064 31.6855C154.604 31.9863 154.08 32.1367 153.492 32.1367C152.508 32.1367 151.797 31.6992 151.359 30.8242H151.291V34.7891H149.541V24.5762ZM151.25 28.2812C151.25 28.7643 151.318 29.1882 151.455 29.5527C151.592 29.9173 151.792 30.1999 152.057 30.4004C152.321 30.6009 152.64 30.7012 153.014 30.7012C153.387 30.7012 153.706 30.5986 153.971 30.3936C154.235 30.1885 154.436 29.9036 154.572 29.5391C154.709 29.1745 154.777 28.7552 154.777 28.2812C154.777 27.8164 154.709 27.404 154.572 27.0439C154.44 26.6839 154.242 26.4036 153.978 26.2031C153.713 26.0026 153.392 25.9023 153.014 25.9023C152.64 25.9023 152.321 26.0003 152.057 26.1963C151.792 26.3923 151.592 26.6702 151.455 27.0303C151.318 27.3857 151.25 27.8027 151.25 28.2812ZM157.922 24.5762H159.631V25.793H159.74C159.927 25.4284 160.185 25.1185 160.513 24.8633C160.841 24.6081 161.294 24.4805 161.873 24.4805C162.452 24.4805 162.971 24.6286 163.432 24.9248C163.896 25.221 164.263 25.6562 164.532 26.2305C164.801 26.8047 164.936 27.4928 164.936 28.2949C164.936 29.0924 164.803 29.7806 164.539 30.3594C164.275 30.9382 163.91 31.3802 163.445 31.6855C162.985 31.9863 162.461 32.1367 161.873 32.1367C160.889 32.1367 160.178 31.6992 159.74 30.8242H159.672V34.7891H157.922V24.5762ZM159.631 28.2812C159.631 28.7643 159.699 29.1882 159.836 29.5527C159.973 29.9173 160.173 30.1999 160.438 30.4004C160.702 30.6009 161.021 30.7012 161.395 30.7012C161.768 30.7012 162.087 30.5986 162.352 30.3936C162.616 30.1885 162.816 29.9036 162.953 29.5391C163.09 29.1745 163.158 28.7552 163.158 28.2812C163.158 27.8164 163.09 27.404 162.953 27.0439C162.821 26.6839 162.623 26.4036 162.358 26.2031C162.094 26.0026 161.773 25.9023 161.395 25.9023C161.021 25.9023 160.702 26.0003 160.438 26.1963C160.173 26.3923 159.973 26.6702 159.836 27.0303C159.699 27.3857 159.631 27.8027 159.631 28.2812ZM168.053 32H166.303V22.1016H168.053V32ZM173.016 32.1504C172.277 32.1504 171.635 31.9954 171.088 31.6855C170.546 31.3711 170.129 30.9268 169.837 30.3525C169.55 29.7783 169.406 29.1061 169.406 28.3359C169.406 27.5749 169.552 26.9049 169.844 26.3262C170.135 25.7428 170.546 25.2894 171.074 24.9658C171.607 24.6423 172.223 24.4805 172.92 24.4805C173.549 24.4805 174.118 24.6149 174.629 24.8838C175.144 25.1527 175.552 25.5697 175.853 26.1348C176.158 26.6953 176.311 27.3926 176.311 28.2266V28.7734H171.129C171.133 29.1882 171.215 29.5482 171.375 29.8535C171.535 30.1543 171.756 30.3844 172.038 30.5439C172.321 30.7035 172.651 30.7832 173.029 30.7832C173.398 30.7832 173.713 30.7126 173.973 30.5713C174.232 30.43 174.419 30.2454 174.533 30.0176H176.242C176.137 30.446 175.939 30.8219 175.647 31.1455C175.356 31.4645 174.984 31.7129 174.533 31.8906C174.087 32.0638 173.581 32.1504 173.016 32.1504ZM174.643 27.584C174.638 27.2467 174.565 26.946 174.424 26.6816C174.283 26.4173 174.084 26.21 173.829 26.0596C173.574 25.9092 173.28 25.834 172.947 25.834C172.605 25.834 172.3 25.9137 172.031 26.0732C171.767 26.2282 171.557 26.4401 171.402 26.709C171.247 26.9733 171.159 27.265 171.136 27.584H174.643ZM188.533 31.7812H177.24V30.5234H182.107V28.5137H178.58V24.4668H185.689V22.9355H178.553V21.7051H187.193V25.6699H180.098V27.2695H187.48V28.5137H183.611V30.5234H188.533V31.7812ZM203.326 33.2168H201.877V20.8574H203.326V33.2168ZM200.77 32.6289H199.32V28.5H197.393V27.2559H199.32V25.4238H197.611C197.311 26.4811 196.818 27.4427 196.135 28.3086C195.456 29.1745 194.553 29.9401 193.428 30.6055L192.539 29.5254C193.797 28.7826 194.743 27.9258 195.376 26.9551C196.014 25.9844 196.39 24.8633 196.504 23.5918H193.195V22.3613H198.008C198.008 22.9993 197.965 23.6055 197.878 24.1797H199.32V21.1582H200.77V32.6289ZM216.027 28.1582H204.762V26.9277H209.629V25.2051H211.133V26.9277H216.027V28.1582ZM211.146 21.5273C211.146 22.0286 211.32 22.5049 211.666 22.9561C212.017 23.4027 212.514 23.7832 213.156 24.0977C213.799 24.4121 214.542 24.6217 215.385 24.7266L214.797 25.916C213.781 25.7565 212.885 25.458 212.11 25.0205C211.34 24.5785 210.759 24.0339 210.367 23.3867C209.971 24.0339 209.385 24.5785 208.61 25.0205C207.84 25.458 206.945 25.7565 205.924 25.916L205.377 24.7266C206.206 24.6217 206.94 24.4098 207.578 24.0908C208.221 23.7718 208.717 23.389 209.068 22.9424C209.424 22.4912 209.602 22.0195 209.602 21.5273V21.0625H211.146V21.5273ZM214.646 33.2168H213.129V30.332H206.006V29.1426H214.646V33.2168ZM226.541 25.7793H228.441V27.0371H226.541V33.2168H225.037V20.8574H226.541V25.7793ZM224.08 23.9746H216.793V22.7578H219.719V21.0352H221.236V22.7578H224.08V23.9746ZM220.484 24.7812C221.072 24.7812 221.601 24.9066 222.07 25.1572C222.544 25.4033 222.916 25.7474 223.185 26.1895C223.453 26.6315 223.588 27.1328 223.588 27.6934C223.588 28.2539 223.453 28.7552 223.185 29.1973C222.916 29.6348 222.544 29.9766 222.07 30.2227C221.601 30.4688 221.072 30.5918 220.484 30.5918C219.887 30.5918 219.352 30.4688 218.878 30.2227C218.404 29.9766 218.033 29.6348 217.764 29.1973C217.495 28.7552 217.363 28.2539 217.367 27.6934C217.363 27.1328 217.495 26.6315 217.764 26.1895C218.033 25.7474 218.404 25.4033 218.878 25.1572C219.352 24.9066 219.887 24.7812 220.484 24.7812ZM220.484 26.0254C220.161 26.0254 219.871 26.0938 219.616 26.2305C219.366 26.3672 219.17 26.5632 219.028 26.8184C218.887 27.069 218.816 27.3607 218.816 27.6934C218.816 28.026 218.887 28.3177 219.028 28.5684C219.17 28.8145 219.366 29.0059 219.616 29.1426C219.871 29.2747 220.161 29.3385 220.484 29.334C220.799 29.3385 221.079 29.2747 221.325 29.1426C221.576 29.0059 221.772 28.8145 221.913 28.5684C222.059 28.3177 222.134 28.026 222.139 27.6934C222.134 27.3607 222.059 27.069 221.913 26.8184C221.772 26.5677 221.576 26.374 221.325 26.2373C221.079 26.096 220.799 26.0254 220.484 26.0254ZM239.283 33.2168H237.752V20.8574H239.283V33.2168ZM235.592 22.1699C235.592 24.1341 235.147 25.859 234.259 27.3447C233.37 28.8258 231.896 30.054 229.836 31.0293L229.043 29.8125C230.633 29.056 231.83 28.1514 232.632 27.0986C233.438 26.0413 233.91 24.7995 234.047 23.373H229.672V22.1699H235.592Z" fill="black"/>
</svg>
