<svg width="329" height="180" viewBox="0 0 329 180" fill="none" xmlns="http://www.w3.org/2000/svg">
<rect width="329" height="120" rx="16" fill="#9BD4FA"/>
<rect y="120" width="329" height="60" rx="16" fill="white"/>
<rect x="25" y="131" width="18.7314" height="38" fill="black"/>
<rect x="53.5898" y="131" width="18.7314" height="38" fill="black"/>
<rect x="82.1807" y="131" width="6.90106" height="38" fill="black"/>
<rect x="127.53" y="131" width="6.90106" height="38" fill="black"/>
<rect x="227.103" y="131" width="6.90106" height="38" fill="black"/>
<rect x="144.29" y="131" width="6.90106" height="38" fill="black"/>
<rect x="210.343" y="131" width="6.90106" height="38" fill="black"/>
<rect x="98.9395" y="131" width="18.7314" height="38" fill="black"/>
<rect x="161.05" y="131" width="18.7314" height="38" fill="black"/>
<rect x="243.862" y="131" width="18.7314" height="38" fill="black"/>
<rect x="189.64" y="131" width="10.8445" height="38" fill="black"/>
<rect x="272.452" y="131" width="10.8445" height="38" fill="black"/>
<rect x="293.155" y="131" width="10.8445" height="38" fill="black"/>
<path d="M316 120L13 120" stroke="#18181B" stroke-width="2" stroke-linecap="square" stroke-dasharray="3 3"/>
<path d="M184.326 71.5078L310.302 49.2948" stroke="#65B1F7" stroke-width="2.5" stroke-linejoin="round"/>
<path d="M185.789 79.8066L311.765 57.5937" stroke="#65B1F7" stroke-width="2" stroke-linejoin="round"/>
<path d="M188.996 97.9941L314.972 75.7812" stroke="#65B1F7" stroke-width="2" stroke-linejoin="round"/>
<path d="M197.684 84.4233L195.438 84.8194L196.469 90.6665L194.506 91.0125L193.476 85.1735L191.23 85.5696L190.933 83.8828L197.388 82.7446L197.685 84.4314L197.684 84.4233Z" fill="#65B1F7"/>
<path d="M199.301 82.4004L201.263 82.0543L201.747 84.7954L204.334 84.3393L203.85 81.5982L205.813 81.2521L207.141 88.786L205.179 89.1321L204.633 86.0342L202.046 86.4903L202.592 89.5882L200.629 89.9343L199.301 82.4004Z" fill="#65B1F7"/>
<path d="M208.18 80.8359L214.181 79.7778L214.458 81.351L210.42 82.0632L210.653 83.385L214.343 82.7344L214.61 84.2509L210.92 84.9016L211.173 86.337L215.317 85.6063L215.615 87.2931L209.508 88.3698L208.18 80.8359Z" fill="#65B1F7"/>
<path d="M220.856 78.6027L224.375 77.9821C225.669 77.729 227.156 77.818 227.433 79.3912C227.552 80.0643 227.244 80.6873 226.711 81.0822C227.556 81.1758 228.172 81.7779 228.323 82.6375C228.64 84.4298 227.423 85.2129 225.801 85.4989L222.184 86.1367L220.856 78.6027ZM223.34 81.2167L224.857 80.9493C225.197 80.8893 225.628 80.6294 225.534 80.0941C225.436 79.5427 225.016 79.4329 224.602 79.5058L223.086 79.7732L223.34 81.2167ZM223.869 84.2173L225.443 83.9399C226.067 83.8298 226.458 83.5351 226.348 82.9106C226.231 82.2456 225.73 82.1082 225.138 82.2125L223.565 82.49L223.869 84.2173Z" fill="#65B1F7"/>
<path d="M229.509 77.0745L235.51 76.0163L235.788 77.5896L231.749 78.3017L231.981 79.6155L235.671 78.9649L235.938 80.4814L232.248 81.132L232.501 82.5674L236.645 81.8367L236.943 83.5236L230.836 84.6003L229.508 77.0664L229.509 77.0745Z" fill="#65B1F7"/>
<path d="M240.21 80.3391C240.406 81.2159 241.008 81.4025 241.843 81.2552C242.435 81.1508 243.006 80.8327 242.907 80.2731C242.79 79.6081 241.689 79.6686 240.549 79.5601C239.416 79.4421 238.205 79.1624 237.96 77.7757C237.67 76.1294 239.211 75.197 240.63 74.9468C242.131 74.6822 243.768 75.1461 244.075 76.8396L242.112 77.1857C242.023 76.4906 241.344 76.3846 240.736 76.4919C240.314 76.5663 239.813 76.8052 239.9 77.2999C240.003 77.8838 241.107 77.7895 242.256 77.9046C243.397 78.0211 244.58 78.3309 244.82 79.6933C245.157 81.5991 243.643 82.5014 241.989 82.7931C240.262 83.0977 238.594 82.6057 238.246 80.677L240.208 80.3309L240.21 80.3391Z" fill="#65B1F7"/>
<path d="M252.148 74.8201L249.902 75.2162L250.931 81.0551L248.969 81.4012L247.939 75.5622L245.693 75.9583L245.396 74.2715L251.851 73.1332L252.148 74.8201Z" fill="#65B1F7"/>
<path d="M263.323 78.8717L261.069 79.2692L257.364 72.1543L259.408 71.7939L261.872 77.1375L261.896 77.1332L262.384 71.2692L264.428 70.9088L263.323 78.8717Z" fill="#65B1F7"/>
<path d="M266.019 70.6367L267.981 70.2907L269.308 77.8165L267.346 78.1625L266.019 70.6367Z" fill="#65B1F7"/>
<path d="M272.828 74.5852C273.024 75.462 273.626 75.6486 274.461 75.5013C275.053 75.3969 275.624 75.0788 275.526 74.5192C275.408 73.8542 274.307 73.9147 273.167 73.8062C272.034 73.6882 270.823 73.4085 270.578 72.0218C270.288 70.3755 271.829 69.4431 273.249 69.1929C274.749 68.9283 276.386 69.3922 276.693 71.0857L274.73 71.4318C274.641 70.7367 273.962 70.6307 273.354 70.738C272.932 70.8123 272.431 71.0513 272.518 71.546C272.619 72.1217 273.725 72.0356 274.874 72.1507C276.015 72.2672 277.198 72.577 277.439 73.9394C277.775 75.8452 276.261 76.7475 274.607 77.0392C272.953 77.3309 271.213 76.8518 270.864 74.9231L272.827 74.577L272.828 74.5852Z" fill="#65B1F7"/>
<path d="M278.5 68.4375L280.463 68.0914L281.791 75.6254L279.828 75.9714L278.5 68.4375Z" fill="#65B1F7"/>
<path d="M289.136 68.3002L286.89 68.6963L287.921 74.5434L285.958 74.8895L284.929 69.0505L282.682 69.4466L282.385 67.7598L288.84 66.6215L289.138 68.3083L289.136 68.3002Z" fill="#65B1F7"/>
<path d="M294.155 65.5091C296.523 65.0916 298.176 66.5978 298.561 68.7793C298.946 70.9608 297.915 72.9403 295.539 73.3593C293.163 73.7783 291.517 72.2707 291.133 70.0892C290.748 67.9076 291.779 65.9281 294.155 65.5091ZM295.241 71.6725C296.507 71.4494 296.796 70.2445 296.598 69.1254C296.401 68.0062 295.717 66.9729 294.452 67.196C293.187 67.419 292.898 68.624 293.095 69.7431C293.292 70.8622 293.976 71.8956 295.241 71.6725Z" fill="#65B1F7"/>
<path d="M300.023 64.6409L303.859 63.9646C305.189 63.73 306.6 64.0999 306.868 65.6164C307.011 66.4274 306.757 67.2665 306.017 67.7148L306.021 67.7391C306.857 67.7841 307.243 68.6442 307.433 69.3464C307.513 69.6584 307.742 70.7637 308.049 70.9856L306.11 71.3273C305.896 71.106 305.733 70.3737 305.68 70.1657C305.489 69.4134 305.23 68.6563 304.313 68.8179L302.829 69.0796L303.312 71.8207L301.35 72.1667L300.021 64.6328L300.023 64.6409ZM302.562 67.5631L304.208 67.2728C304.8 67.1684 305.061 66.7964 304.96 66.2287C304.862 65.6691 304.371 65.4964 303.828 65.5922L302.271 65.8667L302.57 67.5616L302.562 67.5631Z" fill="#65B1F7"/>
<path d="M190.457 106.281L316.433 84.0683" stroke="#65B1F7" stroke-width="2.5" stroke-linejoin="round"/>
</svg>
