<svg width="63" height="45" viewBox="0 0 63 45" fill="none" xmlns="http://www.w3.org/2000/svg">
<path d="M60.0411 22.499L29.0946 2.63672V12.049H2.02539V32.9634H29.0946V42.3613L60.0411 22.499Z" fill="#F9EF85"/>
<path d="M27.6532 45V34.3914H0.583984V10.6086H27.6532V0L62.7076 22.5L27.6532 45ZM3.46675 31.5231H30.5359V39.7389L57.3601 22.5144L30.5359 5.28988V13.5058H3.46675V31.5375V31.5231Z" fill="#E5E5E6"/>
<path d="M30.8524 39.4785V31.45H3.42285V13.5625H30.8524V5.51953L31.1263 5.6925L57.4603 22.499L30.8524 39.4785ZM3.7832 31.0897H31.2127V38.8299L56.7973 22.499L31.2127 6.16815V13.9084H3.7832V31.0753V31.0897Z" fill="black"/>
<path d="M6.01709 16.1562H7.44407V20.3939H9.99531V21.6191H6.01709V16.1562Z" fill="black"/>
<path d="M10.6885 16.1562H15.0415V17.2949H12.1154V18.2463H14.7964V19.3561H12.1154V20.3939H15.1279V21.6191H10.7029V16.1562H10.6885Z" fill="black"/>
<path d="M20.2612 17.3814H18.6324V21.6191H17.2054V17.3814H15.5767V16.1562H20.2612V17.3814Z" fill="black"/>
<path d="M20.9219 16.1562H22.1326V17.4247C22.1326 18.1886 21.7435 18.7652 20.9219 18.9093V18.3039C21.2534 18.2463 21.4984 17.9436 21.4696 17.5832H20.9219V16.1562Z" fill="black"/>
<path d="M24.2663 19.7781C24.2951 20.4267 24.6987 20.6285 25.3041 20.6285C25.7365 20.6285 26.1689 20.47 26.1689 20.0664C26.1689 19.5907 25.3906 19.4898 24.5978 19.2736C23.8195 19.0574 22.9979 18.6971 22.9979 17.7025C22.9979 16.5062 24.1943 16.0449 25.232 16.0449C26.3131 16.0449 27.4085 16.5782 27.423 17.8034H25.996C26.0248 17.2989 25.5491 17.1404 25.1167 17.1404C24.814 17.1404 24.4249 17.2413 24.4249 17.6016C24.4249 18.0196 25.2176 18.0917 26.0104 18.3223C26.8032 18.5385 27.5959 18.9133 27.5959 19.8934C27.5959 21.2771 26.414 21.724 25.2176 21.724C24.0213 21.724 22.8538 21.1762 22.8394 19.7781H24.2663Z" fill="black"/>
<path d="M8.38212 29.4497C6.83984 29.4497 5.72998 28.2245 5.72998 26.5237C5.72998 24.8228 6.86867 23.5977 8.49743 23.5977C9.67937 23.5977 10.9478 24.3904 10.9478 25.6877V25.7597H9.54965V25.7021C9.43434 25.1399 9.05958 24.8228 8.51185 24.8228C7.90647 24.8228 7.18578 25.2697 7.18578 26.5237C7.18578 27.7777 7.89206 28.2245 8.51185 28.2245C9.05958 28.2245 9.63613 27.9506 9.67937 27.3453H8.48303V26.1777H11.0055V29.3344H10.0109L9.89558 28.8875C9.46316 29.2911 9.01633 29.4497 8.39654 29.4497H8.38212ZM8.49743 23.7418C6.95515 23.7418 5.87412 24.8805 5.87412 26.5237C5.87412 28.1668 6.92632 29.3055 8.38212 29.3055C9.01633 29.3055 9.44875 29.1326 9.88116 28.7002L9.96765 28.6137L10.1118 29.1902H10.8469V26.3219H8.61275V27.2011H9.8091V27.2732C9.8091 28.0227 9.13164 28.3686 8.49743 28.3686C7.81998 28.3686 7.02723 27.893 7.02723 26.5237C7.02723 25.1544 7.81998 24.6787 8.49743 24.6787C9.10282 24.6787 9.52082 25.0102 9.66496 25.6156H10.8036C10.7604 24.6931 9.89558 23.7418 8.49743 23.7418ZM8.38212 29.2767C7.15695 29.2767 5.90295 28.3254 5.90295 26.5237C5.90295 24.8949 6.96957 23.7706 8.49743 23.7706C10.0253 23.7706 10.7604 24.9093 10.7604 25.5291V25.6012H9.67937V25.5435C9.54964 24.9381 8.97309 24.6643 8.49743 24.6643C7.74792 24.6643 6.99839 25.2408 6.99839 26.5237C6.99839 27.8065 7.74792 28.383 8.49743 28.383C9.31902 28.383 9.80909 27.9362 9.83792 27.1723H8.64157V26.3507H10.8181V29.1614H10.1262L9.98206 28.5848C9.49199 29.1037 9.05957 29.2911 8.38212 29.2911V29.2767ZM8.49743 23.9148C7.05605 23.9148 6.04709 24.9958 6.04709 26.5237C6.04709 27.8209 6.85425 29.1326 8.38212 29.1326C9.05957 29.1326 9.47758 28.9308 9.96765 28.383L10.0541 28.2822L10.2415 29.0173H10.6739V26.4948H8.78572V27.0282H9.98206V27.1002C9.98206 27.9939 9.41992 28.5272 8.49743 28.5272C7.67585 28.5272 6.85426 27.9074 6.85426 26.5237C6.85426 25.1399 7.67585 24.5201 8.49743 24.5201C9.13164 24.5201 9.66496 24.8949 9.79468 25.457H10.6163C10.5586 24.8949 9.80909 23.9148 8.49743 23.9148Z" fill="black"/>
<path d="M14.307 29.4497C12.6782 29.4497 11.5396 28.2533 11.5396 26.5237C11.5396 24.794 12.6782 23.5977 14.307 23.5977C15.9358 23.5977 17.0745 24.794 17.0745 26.5237C17.0745 28.2533 15.9358 29.4497 14.307 29.4497ZM14.307 23.7418C12.7647 23.7418 11.6837 24.8805 11.6837 26.5237C11.6837 28.1668 12.7647 29.3055 14.307 29.3055C15.8493 29.3055 16.9303 28.1668 16.9303 26.5237C16.9303 24.8805 15.8493 23.7418 14.307 23.7418ZM14.307 29.2767C12.7791 29.2767 11.7125 28.138 11.7125 26.5237C11.7125 24.9093 12.7791 23.7706 14.307 23.7706C15.8349 23.7706 16.9015 24.9093 16.9015 26.5237C16.9015 28.138 15.8349 29.2767 14.307 29.2767ZM14.307 23.9148C12.8656 23.9148 11.8567 24.9958 11.8567 26.5237C11.8567 28.0515 12.8656 29.1326 14.307 29.1326C15.7484 29.1326 16.7574 28.0515 16.7574 26.5237C16.7574 24.9958 15.7484 23.9148 14.307 23.9148ZM14.307 28.5272C13.4854 28.5272 12.6638 27.9074 12.6638 26.5237C12.6638 25.1399 13.4854 24.5201 14.307 24.5201C15.1286 24.5201 15.9502 25.1399 15.9502 26.5237C15.9502 27.9074 15.1286 28.5272 14.307 28.5272ZM14.307 24.6643C13.5575 24.6643 12.808 25.2408 12.808 26.5237C12.808 27.8065 13.5575 28.383 14.307 28.383C15.0565 28.383 15.806 27.8065 15.806 26.5237C15.806 25.2408 15.0565 24.6643 14.307 24.6643ZM14.307 28.3686C13.6296 28.3686 12.8368 27.893 12.8368 26.5237C12.8368 25.1544 13.6296 24.6787 14.307 24.6787C14.9845 24.6787 15.7772 25.1544 15.7772 26.5237C15.7772 27.893 14.9845 28.3686 14.307 28.3686ZM14.307 24.8228C13.7016 24.8228 12.9809 25.2697 12.9809 26.5237C12.9809 27.7777 13.6872 28.2245 14.307 28.2245C14.9268 28.2245 15.6331 27.7777 15.6331 26.5237C15.6331 25.2697 14.9268 24.8228 14.307 24.8228Z" fill="black"/>
<path d="M40.3661 22.4999L31.6313 17.4551V27.5448L40.3661 22.4999Z" fill="black"/>
<path d="M45.8857 22.4999L37.1509 17.4551V27.5448L45.8857 22.4999Z" fill="black"/>
</svg>
