<svg width="21" height="20" viewBox="0 0 21 20" fill="none" xmlns="http://www.w3.org/2000/svg">
<g clip-path="url(#clip0_2272_8223)">
<path d="M10.4961 0.703125C4.69996 0.703125 0 4.25439 0 8.6368C0 11.4703 1.96358 13.9524 4.92077 15.3615L3.85618 19.0073C3.85618 19.0073 3.83646 19.1773 3.95081 19.2415C4.06515 19.3057 4.20315 19.2566 4.20315 19.2566C4.53436 19.2113 8.02779 16.8576 8.63894 16.4496C9.24221 16.5327 9.86913 16.5743 10.5039 16.5743C16.3 16.5743 21 13.023 21 8.64058C21 4.25817 16.2922 0.703125 10.4961 0.703125Z" fill="black"/>
<path d="M4.69207 11.4035C4.35692 11.4035 4.08486 11.1542 4.08486 10.8481V7.39888H3.13856C2.81129 7.39888 2.54712 7.14576 2.54712 6.83219C2.54712 6.51862 2.81524 6.2655 3.13856 6.2655H6.24164C6.5689 6.2655 6.83307 6.51862 6.83307 6.83219C6.83307 7.14576 6.56496 7.39888 6.24164 7.39888H5.29534V10.8481C5.29534 11.1504 5.01933 11.4035 4.68813 11.4035H4.69207ZM10.0032 11.3959C9.75084 11.3959 9.55763 11.2977 9.49849 11.139L9.19883 10.3835H7.35354L7.05388 11.139C6.99473 11.2977 6.80153 11.3959 6.54918 11.3959C6.41512 11.3959 6.28501 11.3695 6.16278 11.3204C5.99717 11.2448 5.83552 11.0446 6.02083 10.4968L7.46789 6.84352C7.5704 6.56395 7.88189 6.27683 8.27618 6.26927C8.67048 6.26172 8.98591 6.56395 9.08448 6.84352L10.5315 10.4968C10.7169 11.0446 10.5552 11.2524 10.3896 11.3204C10.2713 11.3733 10.1372 11.3959 10.0032 11.3959ZM8.87945 9.35585L8.27618 7.70867L7.67292 9.35585H8.87945ZM11.5054 11.3204C11.19 11.3204 10.9258 11.0824 10.9258 10.7915V6.84352C10.9258 6.5224 11.2018 6.26172 11.5449 6.26172C11.8879 6.26172 12.1639 6.52617 12.1639 6.84352V10.2512H13.4493C13.7647 10.2512 14.0289 10.4892 14.0289 10.7801C14.0289 11.071 13.7687 11.309 13.4493 11.309L11.5054 11.3204ZM14.2615 10.8141V6.8473C14.2615 6.52618 14.5375 6.2655 14.8687 6.2655C15.2 6.2655 15.476 6.52995 15.476 6.8473V8.09402L17.1714 6.46951C17.358 6.29068 17.7109 6.30636 17.9245 6.51106C18.1252 6.70335 18.1774 7.02838 17.9679 7.23265L16.58 8.55493L18.0704 10.4439C18.2707 10.6895 18.2221 11.0721 17.9521 11.2524C17.686 11.4413 17.295 11.3783 17.1044 11.139L15.6849 9.33696L15.476 9.53719V10.8028C15.476 11.5567 14.2615 11.5857 14.2615 10.8141Z" fill="#FFE812"/>
</g>
<defs>
<clipPath id="clip0_2272_8223">
<rect width="21" height="20" fill="white"/>
</clipPath>
</defs>
</svg>
