<svg width="81" height="30" viewBox="0 0 81 30" fill="none" xmlns="http://www.w3.org/2000/svg">
<path d="M80.3696 0H0V30H80.3696V0Z" fill="#E5E5E6"/>
<path d="M7.55869 20.6346H6.08496V19.584H10.1852V20.6346H8.71142V24.4575H7.5441V20.6346H7.55869ZM7.70461 24.3116H8.55092V20.4887H10.0246V19.7299H6.23088V20.4887H7.70461V24.3116Z" fill="black"/>
<path d="M8.78404 24.5448H7.4708V20.7219H5.99707V19.5254H10.2432V20.7219H8.76943V24.5448H8.78404ZM7.6313 24.3989H8.6527V20.576H10.1264V19.6713H6.17216V20.576H7.64591V24.3989H7.6313ZM8.63812 24.3843H7.64591V20.5614H6.17216V19.6713H10.1118V20.5614H8.63812V24.3843ZM7.77723 24.2384H8.47761V20.4155H9.95134V19.8026H6.30348V20.4155H7.77723V24.2384Z" fill="black"/>
<path d="M10.8267 19.584H11.994V24.4575H10.8267V19.584ZM10.9872 24.3116H11.8335V19.7299H10.9872V24.3116Z" fill="black"/>
<path d="M12.052 24.5448H10.7388V19.5254H12.052V24.5448ZM10.8993 24.3989H11.9207V19.6567H10.8993V24.3989ZM11.9061 24.3843H10.9139V19.6567H11.9061V24.3843ZM11.0598 24.2384H11.7602V19.8026H11.0598V24.2384Z" fill="black"/>
<path d="M13.0444 19.584H14.6495L15.7147 22.546L16.7506 19.584H18.3265V24.4575H17.1592V21.5392L16.167 24.4575H15.2331L14.2263 21.5392V24.4575H13.059V19.584H13.0444ZM13.2049 24.3116H14.0512V20.6492H14.0658L15.3353 24.3116H16.0503L17.3051 20.6492V24.3116H18.1514V19.7299H16.8528L15.7001 23.013L14.5182 19.7299H13.1903V24.3116H13.2049Z" fill="black"/>
<path d="M18.3991 24.5448H17.0859V21.9622L16.2104 24.5448H15.1744V24.5011L14.2698 21.9622V24.5448H12.9565V19.5254H14.6783V19.5692L15.6997 22.3561L16.6919 19.5254H18.3846V24.5448H18.3991ZM17.2318 24.3989H18.2532V19.6567H16.8087L15.7727 22.6188H15.6706L15.6414 22.575L14.6054 19.6567H13.1316V24.3989H14.153V21.4806H14.2698L14.299 21.5244L15.2912 24.3843H16.1229L16.8233 22.3124L16.1229 24.3698H15.3058V24.326L14.1384 21.0137V24.3698H13.1462V19.6421H14.6054L15.7289 22.7793L16.8378 19.6421H18.2678V24.3698H17.2756V21.0283L17.1297 21.4515H17.2464V21.5244V24.3698L17.2318 24.3989ZM17.3923 24.2384H18.0927V19.8026H16.9108L15.6997 23.2316L15.6268 23.0419L14.474 19.8026H13.263V24.2384H13.9633V20.576H14.1093V20.6197L15.3787 24.2384H15.9916L17.2464 20.576H17.3777V20.6489V24.2384H17.3923Z" fill="black"/>
<path d="M19.3769 19.584H23.2144V20.5908H20.5296V21.4517H22.9226V22.4293H20.5296V23.4069H23.2728V24.4575H19.3623V19.584H19.3769ZM19.5374 24.3116H23.1269V23.5529H20.3837V22.2688H22.7767V21.5976H20.3837V20.4303H23.0685V19.7153H19.5374V24.297V24.3116Z" fill="black"/>
<path d="M23.3601 24.5448H19.3037V19.5254H23.2872V20.6781H20.6023V21.3931H22.9953V22.502H20.6023V23.3483H23.3455V24.5448H23.3601ZM19.4496 24.3989H23.2142V23.4943H20.471V22.3707H22.864V21.539H20.471V20.5322H23.1558V19.6713H19.4642V24.4135L19.4496 24.3989ZM23.2142 24.3843H19.4788V19.6567H23.1558V20.5176H20.471V21.539H22.864V22.3561H20.471V23.4943H23.2142V24.3843ZM19.6101 24.2384H23.0537V23.6256H20.3105V22.1956H22.7035V21.6703H20.3105V20.3571H22.9953V19.788H19.6101V24.2238V24.2384Z" fill="black"/>
<path d="M27.1407 20.6346H25.667V19.584H29.7672V20.6346H28.2935V24.4575H27.1261V20.6346H27.1407ZM27.3012 24.3116H28.1475V20.4887H29.6213V19.7299H25.8275V20.4887H27.3012V24.3116Z" fill="black"/>
<path d="M28.3661 24.5448H27.0528V20.7219H25.5791V19.5254H29.8252V20.7219H28.3515V24.5448H28.3661ZM27.2133 24.3989H28.2348V20.576H29.7085V19.6713H25.7542V20.576H27.2279V24.3989H27.2133ZM28.2201 24.3843H27.2279V20.5614H25.7542V19.6713H29.6939V20.5614H28.2201V24.3843ZM27.3593 24.2384H28.0596V20.4155H29.5334V19.8026H25.8855V20.4155H27.3593V24.2384Z" fill="black"/>
<path d="M34.9162 22.0242C34.9162 23.5709 33.8948 24.5777 32.5087 24.5777C31.1225 24.5777 30.1011 23.5855 30.1011 22.0242C30.1011 20.4629 31.1225 19.4707 32.5087 19.4707C33.8948 19.4707 34.9162 20.4629 34.9162 22.0242ZM34.7557 22.0242C34.7557 20.5067 33.7343 19.6312 32.5087 19.6312C31.283 19.6312 30.2616 20.5067 30.2616 22.0242C30.2616 23.5417 31.283 24.4172 32.5087 24.4172C33.7343 24.4172 34.7557 23.5417 34.7557 22.0242ZM31.1079 22.0242C31.1079 20.8569 31.7791 20.2878 32.5087 20.2878C33.2382 20.2878 33.9094 20.8423 33.9094 22.0242C33.9094 23.2061 33.2382 23.7606 32.5087 23.7606C31.7791 23.7606 31.1079 23.2061 31.1079 22.0242ZM33.7489 22.0242C33.7489 20.8569 33.0777 20.4483 32.5087 20.4483C31.9396 20.4483 31.2684 20.8569 31.2684 22.0242C31.2684 23.1915 31.9396 23.6001 32.5087 23.6001C33.0777 23.6001 33.7489 23.1915 33.7489 22.0242Z" fill="black"/>
<path d="M32.5098 24.6474C31.0507 24.6474 30.0293 23.5677 30.0293 22.021C30.0293 20.4743 31.0507 19.3945 32.5098 19.3945C33.969 19.3945 34.9904 20.4743 34.9904 22.021C34.9904 23.5677 33.969 24.6474 32.5098 24.6474ZM32.5098 19.555C31.1382 19.555 30.1752 20.5764 30.1752 22.0356C30.1752 23.4947 31.1382 24.5161 32.5098 24.5161C33.8814 24.5161 34.8445 23.4947 34.8445 22.0356C34.8445 20.5764 33.8814 19.555 32.5098 19.555ZM32.5098 24.5015C31.1382 24.5015 30.1898 23.4801 30.1898 22.0356C30.1898 20.591 31.1382 19.5696 32.5098 19.5696C33.8814 19.5696 34.8299 20.591 34.8299 22.0356C34.8299 23.4801 33.8814 24.5015 32.5098 24.5015ZM32.5098 19.701C31.2258 19.701 30.3357 20.664 30.3357 22.021C30.3357 23.378 31.2258 24.341 32.5098 24.341C33.7939 24.341 34.684 23.378 34.684 22.021C34.684 20.664 33.7939 19.701 32.5098 19.701ZM32.5098 23.8303C31.7803 23.8303 31.0361 23.2759 31.0361 22.0356C31.0361 20.7953 31.7803 20.2408 32.5098 20.2408C33.2394 20.2408 33.9836 20.7953 33.9836 22.0356C33.9836 23.2759 33.2394 23.8303 32.5098 23.8303ZM32.5098 20.3722C31.8532 20.3722 31.182 20.8829 31.182 22.0356C31.182 23.1883 31.8532 23.699 32.5098 23.699C33.1665 23.699 33.8377 23.1883 33.8377 22.0356C33.8377 20.8829 33.1665 20.3722 32.5098 20.3722ZM32.5098 23.6844C31.897 23.6844 31.1966 23.2467 31.1966 22.0356C31.1966 20.8245 31.9116 20.3867 32.5098 20.3867C33.1081 20.3867 33.8231 20.8245 33.8231 22.0356C33.8231 23.2467 33.1081 23.6844 32.5098 23.6844ZM32.5098 20.5181C31.97 20.5181 31.3425 20.912 31.3425 22.021C31.3425 23.1299 31.97 23.5239 32.5098 23.5239C33.0497 23.5239 33.6772 23.1299 33.6772 22.021C33.6772 20.912 33.0497 20.5181 32.5098 20.5181Z" fill="black"/>
<path d="M38.0977 19.584H41.7601V20.6346H39.265V21.5392H41.3661V22.546H39.265V24.4575H38.0977V19.584ZM38.2582 24.3116H39.1045V22.4001H41.2056V21.6852H39.1045V20.4741H41.5996V19.7153H38.2582V24.297V24.3116Z" fill="black"/>
<path d="M39.3377 24.5448H38.0244V19.5254H41.8328V20.7219H39.3377V21.4806H41.4388V22.6334H39.3377V24.5448ZM38.1703 24.3989H39.1917V22.4875H41.2929V21.6266H39.1917V20.576H41.6869V19.6713H38.1703V24.4135V24.3989ZM39.1772 24.3843H38.1849V19.6567H41.6723V20.5468H39.1772V21.612H41.2783V22.4729H39.1772V24.3843ZM38.3308 24.2384H39.0312V22.3269H41.1324V21.7579H39.0312V20.4009H41.5264V19.788H38.3308V24.2238V24.2384Z" fill="black"/>
<path d="M42.3149 19.584H43.4823V23.4069H45.8023V24.4575H42.3149V19.584ZM42.4754 24.3116H45.6418V23.5529H43.3218V19.7299H42.4754V24.3116Z" fill="black"/>
<path d="M45.875 24.5448H42.2417V19.5254H43.5549V23.3483H45.875V24.5448ZM42.3876 24.3989H45.7291V23.4943H43.409V19.6713H42.3876V24.4135V24.3989ZM45.7145 24.3843H42.4022V19.6567H43.3944V23.4797H45.7145V24.3698V24.3843ZM42.5481 24.2384H45.5685V23.6256H43.2485V19.8026H42.5481V24.2384Z" fill="black"/>
<path d="M46.6042 22.5898L44.7803 19.584H46.0789L47.1733 21.4517L48.2676 19.584H49.5663L47.7423 22.5898V24.4721H46.575V22.5898H46.6042ZM46.7647 24.3116H47.611V22.5606L49.3182 19.7445H48.3698L47.1879 21.7435L46.0059 19.7445H45.0575L46.7647 22.5606V24.3262V24.3116Z" fill="black"/>
<path d="M47.8439 24.5448H46.5307V22.6188L44.6484 19.5254H46.1222V19.5546L47.1727 21.3201L48.2233 19.5254H49.6971L47.8148 22.6188V24.5448H47.8439ZM46.6766 24.3989H47.698V22.575L49.449 19.6713H48.3109L47.5813 20.9116L48.3109 19.6859H49.4344L47.6689 22.6042V24.4135H46.6766V22.5896L44.9111 19.6859H46.0346L46.808 20.9845L46.0492 19.6859H44.9111L46.6766 22.5896V24.4135V24.3989ZM46.8372 24.2384H47.5375V22.5312L49.1718 19.8026H48.3984L47.1727 21.8746L45.9471 19.8026H45.1737L46.8225 22.5166V24.2384H46.8372Z" fill="black"/>
<path d="M7.84879 5.22656H6.38965V15.9659H7.84879V5.22656Z" fill="black"/>
<path d="M49.0548 5.22656H47.5957V15.9659H49.0548V5.22656Z" fill="black"/>
<path d="M11.9782 5.22656H10.519V15.9659H11.9782V5.22656Z" fill="black"/>
<path d="M16.0929 5.22656H14.6338V15.9659H16.0929V5.22656Z" fill="black"/>
<path d="M20.2077 5.22656H18.7485V15.9659H20.2077V5.22656Z" fill="black"/>
<path d="M24.3224 5.22656H22.8633V15.9659H24.3224V5.22656Z" fill="black"/>
<path d="M28.4518 5.22656H26.9927V15.9659H28.4518V5.22656Z" fill="black"/>
<path d="M32.5666 5.22656H31.1074V15.9659H32.5666V5.22656Z" fill="black"/>
<path d="M36.696 5.22656H35.2368V15.9659H36.696V5.22656Z" fill="black"/>
<path d="M40.8107 5.22656H39.3516V15.9659H40.8107V5.22656Z" fill="black"/>
<path d="M44.9255 5.22656H43.4663V15.9659H44.9255V5.22656Z" fill="black"/>
<path d="M77.422 27.0698H2.94727V2.93555H77.422V27.0698ZM3.31205 26.705H77.0572V3.30033H3.31205V26.705Z" fill="black"/>
<path d="M63.3127 25.0942C68.8007 25.0942 73.2495 20.6454 73.2495 15.1575C73.2495 9.66955 68.8007 5.2207 63.3127 5.2207C57.8248 5.2207 53.376 9.66955 53.376 15.1575C53.376 20.6454 57.8248 25.0942 63.3127 25.0942Z" fill="#85E8C4"/>
<path d="M63.312 25.2685C57.7235 25.2685 53.1855 20.7306 53.1855 15.1421C53.1855 9.55356 57.7235 5.01562 63.312 5.01562C68.9005 5.01562 73.4385 9.55356 73.4385 15.1421C73.4385 20.7306 68.9005 25.2685 63.312 25.2685ZM63.312 5.395C57.9278 5.395 53.5503 9.77243 53.5503 15.1567C53.5503 20.5409 57.9278 24.9183 63.312 24.9183C68.6962 24.9183 73.0737 20.5409 73.0737 15.1567C73.0737 9.77243 68.6962 5.395 63.312 5.395Z" fill="black"/>
<path d="M63.3117 25.2685C60.5831 25.2685 58.3652 20.7306 58.3652 15.1421C58.3652 9.55356 60.5831 5.01562 63.3117 5.01562C66.0403 5.01562 68.2582 9.55356 68.2582 15.1421C68.2582 20.7306 66.0403 25.2685 63.3117 25.2685ZM63.3117 5.395C60.7874 5.395 58.73 9.77243 58.73 15.1567C58.73 20.5409 60.7874 24.9183 63.3117 24.9183C65.8361 24.9183 67.8934 20.5409 67.8934 15.1567C67.8934 9.77243 65.8361 5.395 63.3117 5.395Z" fill="black"/>
<path d="M63.5025 5.22461H63.1377V25.0982H63.5025V5.22461Z" fill="black"/>
<path d="M73.2495 14.9688H53.376V15.3335H73.2495V14.9688Z" fill="black"/>
<path d="M72.0519 19.8145H54.5859V20.1792H72.0519V19.8145Z" fill="black"/>
<path d="M72.0519 10.1445H54.5859V10.5093H72.0519V10.1445Z" fill="black"/>
<path d="M59.1539 12.0451C60.1048 12.0451 60.8757 11.2743 60.8757 10.3234C60.8757 9.37243 60.1048 8.60156 59.1539 8.60156C58.203 8.60156 57.4321 9.37243 57.4321 10.3234C57.4321 11.2743 58.203 12.0451 59.1539 12.0451Z" fill="#F77A59"/>
<path d="M59.1532 12.237C58.1026 12.237 57.2417 11.3761 57.2417 10.3255C57.2417 9.27496 58.1026 8.41406 59.1532 8.41406C60.2038 8.41406 61.0647 9.27496 61.0647 10.3255C61.0647 11.3761 60.2038 12.237 59.1532 12.237ZM59.1532 8.77885C58.3069 8.77885 57.6065 9.47924 57.6065 10.3255C57.6065 11.1718 58.3069 11.8722 59.1532 11.8722C59.9995 11.8722 60.6999 11.1718 60.6999 10.3255C60.6999 9.47924 59.9995 8.77885 59.1532 8.77885Z" fill="black"/>
<path d="M53.3751 16.8811C54.326 16.8811 55.0969 16.1102 55.0969 15.1593C55.0969 14.2084 54.326 13.4375 53.3751 13.4375C52.4242 13.4375 51.6533 14.2084 51.6533 15.1593C51.6533 16.1102 52.4242 16.8811 53.3751 16.8811Z" fill="#F77A59"/>
<path d="M53.3744 17.073C52.3238 17.073 51.4629 16.2121 51.4629 15.1615C51.4629 14.1109 52.3238 13.25 53.3744 13.25C54.4249 13.25 55.2858 14.1109 55.2858 15.1615C55.2858 16.2121 54.4249 17.073 53.3744 17.073ZM53.3744 13.6148C52.5281 13.6148 51.8277 14.3152 51.8277 15.1615C51.8277 16.0078 52.5281 16.7082 53.3744 16.7082C54.2207 16.7082 54.9211 16.0078 54.9211 15.1615C54.9211 14.3152 54.2207 13.6148 53.3744 13.6148Z" fill="black"/>
<path d="M73.2486 16.8811C74.1996 16.8811 74.9704 16.1102 74.9704 15.1593C74.9704 14.2084 74.1996 13.4375 73.2486 13.4375C72.2977 13.4375 71.5269 14.2084 71.5269 15.1593C71.5269 16.1102 72.2977 16.8811 73.2486 16.8811Z" fill="#F77A59"/>
<path d="M73.2626 17.073C72.212 17.073 71.3511 16.2121 71.3511 15.1615C71.3511 14.1109 72.212 13.25 73.2626 13.25C74.3132 13.25 75.174 14.1109 75.174 15.1615C75.174 16.2121 74.3132 17.073 73.2626 17.073ZM73.2626 13.6148C72.4163 13.6148 71.7159 14.3152 71.7159 15.1615C71.7159 16.0078 72.4163 16.7082 73.2626 16.7082C74.1089 16.7082 74.8093 16.0078 74.8093 15.1615C74.8093 14.3152 74.1089 13.6148 73.2626 13.6148Z" fill="black"/>
<path d="M67.3243 16.9883L68.3019 18.3015L69.9215 18.4912L69.2649 19.9941L69.9215 21.497L68.3019 21.6867L67.3243 23L66.3466 21.6867L64.7124 21.497L65.369 19.9941L64.7124 18.4912L66.3466 18.3015L67.3243 16.9883Z" fill="#F77A59"/>
<path d="M67.3232 23.3063L66.2435 21.8617L64.4487 21.6574L65.1637 20.0086L64.4487 18.3598L66.2435 18.1555L67.3232 16.7109L68.403 18.1555L70.1978 18.3598L69.4828 20.0086L70.1978 21.6574L68.403 21.8617L67.3232 23.3063ZM64.9886 21.3364L66.4478 21.4969L67.3232 22.6788L68.1987 21.4969L69.6579 21.3364L69.0742 19.994L69.6579 18.6516L68.1987 18.4911L67.3232 17.3092L66.4478 18.4911L64.9886 18.6516L65.5723 19.994L64.9886 21.3364Z" fill="black"/>
</svg>
