<svg width="126" height="145" viewBox="0 0 126 145" fill="none" xmlns="http://www.w3.org/2000/svg">
<g clip-path="url(#clip0_3003_8011)">
<rect width="126" height="145" fill="white"/>
<rect x="-7.99902" y="-7" width="17.8085" height="17.8085" fill="#221F1E"/>
<rect x="-7.99951" y="28.6172" width="17.8085" height="17.8085" fill="#221F1E"/>
<rect x="-7.99902" y="64.2344" width="17.8085" height="17.8085" fill="#221F1E"/>
<rect x="-7.99951" y="99.8516" width="17.8085" height="17.8085" fill="#221F1E"/>
<rect x="-7.99902" y="135.469" width="17.8085" height="17.8085" fill="#221F1E"/>
<rect x="116.661" y="10.8086" width="17.8085" height="17.8085" fill="#221F1E"/>
<rect x="116.66" y="46.4258" width="17.8085" height="17.8085" fill="#221F1E"/>
<rect x="116.661" y="82.043" width="17.8085" height="17.8085" fill="#221F1E"/>
<rect x="116.66" y="117.66" width="17.8085" height="17.8085" fill="#221F1E"/>
<rect x="9.80908" y="-7" width="17.8085" height="17.8085" fill="#221F1E"/>
<rect x="9.80859" y="28.6172" width="17.8085" height="17.8085" fill="#221F1E"/>
<rect x="9.80908" y="64.2344" width="17.8085" height="17.8085" fill="#221F1E"/>
<rect x="9.80908" y="99.8516" width="17.8085" height="17.8085" fill="#221F1E"/>
<rect x="9.80908" y="135.469" width="17.8085" height="17.8085" fill="#221F1E"/>
<rect x="-7.99951" y="10.8086" width="17.8085" height="17.8085" fill="#221F1E"/>
<rect x="-8" y="46.4258" width="17.8085" height="17.8085" fill="#221F1E"/>
<rect x="-7.99951" y="82.043" width="17.8085" height="17.8085" fill="#221F1E"/>
<rect x="-7.99902" y="117.66" width="17.8085" height="17.8085" fill="#221F1E"/>
<rect x="9.80908" y="-7" width="17.8085" height="17.8085" fill="#FBFAF7"/>
<rect x="9.80859" y="28.6172" width="17.8085" height="17.8085" fill="#FBFAF7"/>
<rect x="9.80908" y="64.2344" width="17.8085" height="17.8085" fill="#FBFAF7"/>
<rect x="9.80908" y="99.8516" width="17.8085" height="17.8085" fill="#FBFAF7"/>
<rect x="9.80908" y="135.469" width="17.8085" height="17.8085" fill="#FBFAF7"/>
<rect x="-7.99951" y="10.8086" width="17.8085" height="17.8085" fill="#FBFAF7"/>
<rect x="-8" y="46.4258" width="17.8085" height="17.8085" fill="#FBFAF7"/>
<rect x="-7.99951" y="82.043" width="17.8085" height="17.8085" fill="#FBFAF7"/>
<rect x="-7.99902" y="117.66" width="17.8085" height="17.8085" fill="#FBFAF7"/>
<rect x="27.6177" y="-7" width="17.8085" height="17.8085" fill="#221F1E"/>
<rect x="27.6182" y="28.6172" width="17.8085" height="17.8085" fill="#221F1E"/>
<rect x="27.6177" y="64.2383" width="17.8085" height="17.8085" fill="#221F1E"/>
<rect x="27.6182" y="99.8516" width="17.8085" height="17.8085" fill="#221F1E"/>
<rect x="27.6177" y="135.469" width="17.8085" height="17.8085" fill="#221F1E"/>
<rect x="9.80908" y="10.8086" width="17.8085" height="17.8085" fill="#221F1E"/>
<rect x="9.80957" y="46.4258" width="17.8085" height="17.8085" fill="#221F1E"/>
<rect x="9.80908" y="82.043" width="17.8085" height="17.8085" fill="#221F1E"/>
<rect x="9.80957" y="117.66" width="17.8085" height="17.8085" fill="#221F1E"/>
<rect x="45.4253" y="-7" width="17.8085" height="17.8085" fill="#FBFAF7"/>
<rect x="45.4258" y="28.6172" width="17.8085" height="17.8085" fill="#FBFAF7"/>
<rect x="45.4253" y="64.2344" width="17.8085" height="17.8085" fill="#FBFAF7"/>
<rect x="45.4258" y="99.8516" width="17.8085" height="17.8085" fill="#FBFAF7"/>
<rect x="45.4263" y="135.469" width="17.8085" height="17.8085" fill="#FBFAF7"/>
<rect x="27.6172" y="10.8086" width="17.8085" height="17.8085" fill="#FBFAF7"/>
<rect x="27.6172" y="46.4258" width="17.8085" height="17.8085" fill="#FBFAF7"/>
<rect x="27.6172" y="82.043" width="17.8085" height="17.8085" fill="#FBFAF7"/>
<rect x="27.6172" y="117.66" width="17.8085" height="17.8085" fill="#FBFAF7"/>
<rect x="63.2354" y="-7" width="17.8085" height="17.8085" fill="#221F1E"/>
<rect x="63.2344" y="28.6172" width="17.8085" height="17.8085" fill="#221F1E"/>
<rect x="63.2354" y="64.2344" width="17.8085" height="17.8085" fill="#221F1E"/>
<rect x="63.2344" y="99.8555" width="17.8085" height="17.8085" fill="#221F1E"/>
<rect x="63.2349" y="135.469" width="17.8085" height="17.8085" fill="#221F1E"/>
<rect x="45.4268" y="10.8125" width="17.8085" height="17.8085" fill="#221F1E"/>
<rect x="45.4263" y="46.4258" width="17.8085" height="17.8085" fill="#221F1E"/>
<rect x="45.4268" y="82.043" width="17.8085" height="17.8085" fill="#221F1E"/>
<rect x="45.4263" y="117.66" width="17.8085" height="17.8085" fill="#221F1E"/>
<rect x="81.043" y="-7" width="17.8085" height="17.8085" fill="#FBFAF7"/>
<rect x="81.0425" y="28.6172" width="17.8085" height="17.8085" fill="#FBFAF7"/>
<rect x="81.043" y="64.2344" width="17.8085" height="17.8085" fill="#FBFAF7"/>
<rect x="81.0425" y="99.8516" width="17.8085" height="17.8085" fill="#FBFAF7"/>
<rect x="81.043" y="135.469" width="17.8085" height="17.8085" fill="#FBFAF7"/>
<rect x="63.2344" y="10.8086" width="17.8085" height="17.8085" fill="#FBFAF7"/>
<rect x="63.2339" y="46.4258" width="17.8085" height="17.8085" fill="#FBFAF7"/>
<rect x="63.2344" y="82.043" width="17.8085" height="17.8085" fill="#FBFAF7"/>
<rect x="63.2349" y="117.66" width="17.8085" height="17.8085" fill="#FBFAF7"/>
<rect x="98.8516" y="-6.99609" width="17.8085" height="17.8085" fill="#221F1E"/>
<rect x="98.8521" y="28.6172" width="17.8085" height="17.8085" fill="#221F1E"/>
<rect x="98.8516" y="64.2344" width="17.8085" height="17.8085" fill="#221F1E"/>
<rect x="98.8521" y="99.8516" width="17.8085" height="17.8085" fill="#221F1E"/>
<rect x="98.8516" y="135.469" width="17.8085" height="17.8085" fill="#221F1E"/>
<rect x="81.0435" y="10.8086" width="17.8085" height="17.8085" fill="#221F1E"/>
<rect x="81.0435" y="46.4297" width="17.8085" height="17.8085" fill="#221F1E"/>
<rect x="81.043" y="82.043" width="17.8085" height="17.8085" fill="#221F1E"/>
<rect x="81.0435" y="117.66" width="17.8085" height="17.8085" fill="#221F1E"/>
<rect x="116.66" y="-7" width="17.8085" height="17.8085" fill="#FBFAF7"/>
<rect x="116.66" y="28.6172" width="17.8085" height="17.8085" fill="#FBFAF7"/>
<rect x="116.659" y="64.2344" width="17.8085" height="17.8085" fill="#FBFAF7"/>
<rect x="116.66" y="99.8516" width="17.8085" height="17.8085" fill="#FBFAF7"/>
<rect x="116.66" y="135.469" width="17.8085" height="17.8085" fill="#FBFAF7"/>
<rect x="98.8511" y="10.8086" width="17.8085" height="17.8085" fill="#FBFAF7"/>
<rect x="98.8516" y="46.4258" width="17.8085" height="17.8085" fill="#FBFAF7"/>
<rect x="98.8511" y="82.043" width="17.8085" height="17.8085" fill="#FBFAF7"/>
<rect x="98.8516" y="117.66" width="17.8085" height="17.8085" fill="#FBFAF7"/>
</g>
<defs>
<clipPath id="clip0_3003_8011">
<rect width="126" height="145" fill="white"/>
</clipPath>
</defs>
</svg>
