<svg width="365" height="364" viewBox="0 0 365 364" fill="none" xmlns="http://www.w3.org/2000/svg">
<rect width="364" height="364" rx="70" fill="#9BD4FA"/>
<rect x="283" y="307" width="37.1093" height="81.2261" transform="rotate(-90 283 307)" fill="black"/>
<rect x="283" y="250.359" width="13.6719" height="81.2261" transform="rotate(-90 283 250.359)" fill="black"/>
<rect x="283" y="160.516" width="13.6719" height="81.2261" transform="rotate(-90 283 160.516)" fill="black"/>
<rect x="283" y="127.312" width="13.6719" height="81.2261" transform="rotate(-90 283 127.312)" fill="black"/>
<rect x="283" y="217.156" width="37.1093" height="81.2261" transform="rotate(-90 283 217.156)" fill="black"/>
<rect x="283" y="94.1094" width="37.1093" height="81.2261" transform="rotate(-90 283 94.1094)" fill="black"/>
<path d="M240.829 183.908C235.36 170.694 222.856 162.506 209.465 161.826C208.785 148.405 200.626 135.93 187.382 130.461C174.168 124.992 159.565 128.037 149.602 137.024C143.335 131.348 135.236 128.066 126.751 127.771C127.017 125.997 127.195 124.194 127.195 122.331C127.195 114.911 124.948 108.053 121.105 102.318C124.948 96.6129 127.195 89.7251 127.195 82.3051C127.224 62.5285 111.172 46.4766 91.3662 46.4766C71.56 46.4766 55.4785 62.5285 55.4785 82.3643C55.4785 89.7842 57.7252 96.6425 61.5682 102.377C57.7252 108.083 55.4785 114.971 55.4785 122.391C55.4785 129.811 57.7252 136.669 61.5682 142.404C57.7252 148.109 55.4785 154.997 55.4785 162.417C55.4785 169.837 57.7252 176.695 61.5682 182.43C57.7252 188.135 55.4785 195.023 55.4785 202.443C55.4785 209.863 57.7252 216.721 61.5682 222.456C57.7252 228.162 55.4785 235.05 55.4785 242.47C55.4785 249.889 57.7252 256.748 61.5682 262.483C57.7252 268.188 55.4785 275.076 55.4785 282.496C55.4785 302.302 71.5304 318.384 91.3662 318.384C98.5497 318.384 105.231 316.255 110.847 312.589C111.172 312.737 111.498 312.915 111.823 313.062C125.037 318.531 139.64 315.486 149.602 306.5C159.565 315.516 174.168 318.561 187.382 313.062C200.596 307.594 208.785 295.089 209.465 281.698C222.885 281.018 235.36 272.859 240.829 259.615C246.298 246.401 243.253 231.798 234.267 221.836C243.283 211.873 246.328 197.27 240.829 184.056V183.908ZM149.602 253.2C146.646 250.51 143.188 248.234 139.285 246.638C135.324 244.982 131.215 244.154 127.165 243.977C127.165 243.445 127.254 242.913 127.254 242.351C127.254 234.931 125.007 228.073 121.164 222.338C125.007 216.633 127.254 209.745 127.254 202.325C127.254 201.349 127.195 200.374 127.106 199.398C131.186 199.221 135.324 198.393 139.315 196.738C143.217 195.112 146.676 192.865 149.632 190.175C152.588 192.865 156.047 195.141 159.949 196.738C163.851 198.364 167.901 199.191 171.892 199.398C172.099 203.389 172.926 207.439 174.552 211.341C176.178 215.243 178.425 218.702 181.115 221.658C178.425 224.614 176.149 228.073 174.552 231.975C172.926 235.877 172.099 239.927 171.892 243.918C167.901 244.125 163.851 244.953 159.949 246.579C156.047 248.204 152.588 250.451 149.632 253.141L149.602 253.2Z" fill="white"/>
<path d="M91.3658 319.715C70.7614 319.715 54 302.954 54 282.35C54 275.225 56.0102 268.337 59.7941 262.336C55.9806 256.365 54 249.448 54 242.323C54 235.199 56.0102 228.311 59.7941 222.31C55.9806 216.339 54 209.421 54 202.297C54 195.173 56.0102 188.285 59.7941 182.284C55.9806 176.312 54 169.395 54 162.271C54 155.146 56.0102 148.258 59.7941 142.257C55.9806 136.286 54 129.398 54 122.244C54 115.09 56.0102 108.232 59.7941 102.231C55.9806 96.2597 54 89.3719 54 82.218C54 61.7614 70.7614 45 91.3658 45C111.97 45 128.732 61.7614 128.732 82.3658C128.732 89.4901 126.721 96.3779 122.937 102.379C126.751 108.35 128.732 115.238 128.732 122.392C128.732 123.693 128.643 124.993 128.465 126.442C136.24 127.063 143.66 130.108 149.632 135.133C160.244 126.206 175.143 123.841 187.973 129.162C200.803 134.483 209.671 146.692 210.853 160.497C224.688 161.679 236.897 170.548 242.189 183.378C247.51 196.207 245.145 211.106 236.217 221.719C245.145 232.331 247.51 247.23 242.189 260.06C236.868 272.89 224.659 281.758 210.853 282.941C209.671 296.776 200.803 308.984 187.973 314.276C175.143 319.597 160.244 317.232 149.632 308.305C139.019 317.232 124.12 319.597 111.29 314.276C111.172 314.217 111.083 314.187 110.965 314.128C105.053 317.764 98.3127 319.686 91.3953 319.686L91.3658 319.715ZM91.3658 47.9562C72.3873 47.9562 56.9562 63.3873 56.9562 82.3658C56.9562 89.224 58.9663 95.8754 62.8093 101.551L63.371 102.379L62.8093 103.207C58.9959 108.882 56.9562 115.504 56.9562 122.392C56.9562 129.28 58.9663 135.902 62.8093 141.577L63.371 142.405L62.8093 143.233C58.9959 148.909 56.9562 155.531 56.9562 162.418C56.9562 169.306 58.9663 175.928 62.8093 181.604L63.371 182.432L62.8093 183.259C58.9959 188.935 56.9562 195.557 56.9562 202.445C56.9562 209.333 58.9663 215.954 62.8093 221.63L63.371 222.458L62.8093 223.286C58.9959 228.961 56.9562 235.583 56.9562 242.471C56.9562 249.359 58.9663 255.981 62.8093 261.656L63.371 262.484L62.8093 263.312C58.9959 268.988 56.9562 275.609 56.9562 282.497C56.9562 301.476 72.3873 316.907 91.3658 316.907C97.9876 316.907 104.462 314.985 110.049 311.349L110.729 310.906L111.941 311.468C112.088 311.556 112.266 311.615 112.414 311.704C124.593 316.759 138.812 314.276 148.626 305.407L149.632 304.521L150.637 305.407C160.451 314.276 174.7 316.759 186.879 311.704C199.058 306.649 207.365 294.854 208.045 281.64L208.104 280.31L209.435 280.251C222.649 279.571 234.473 271.264 239.499 259.085C244.554 246.905 242.07 232.686 233.202 222.842L232.315 221.867L233.202 220.891C242.07 211.077 244.554 196.858 239.499 184.649C234.444 172.44 222.649 164.163 209.435 163.483L208.104 163.423L208.045 162.093C207.365 148.879 199.058 137.055 186.879 132.029C174.7 126.974 160.481 129.457 150.637 138.326L149.632 139.213L148.626 138.326C142.596 132.886 134.821 129.723 126.721 129.457L125.066 129.398L125.302 127.743C125.598 125.792 125.746 124.136 125.746 122.54C125.746 115.682 123.736 109.03 119.893 103.354L119.331 102.527L119.893 101.699C123.706 96.0232 125.746 89.4014 125.746 82.5136C125.746 63.5351 110.315 48.104 91.3362 48.104L91.3658 47.9562ZM149.602 255.212L148.597 254.325C145.611 251.635 142.3 249.507 138.694 248.029C135.028 246.521 131.126 245.664 127.047 245.486L125.568 245.427L125.687 243.328C125.687 243.033 125.716 242.707 125.716 242.412C125.716 235.554 123.706 228.902 119.863 223.226L119.301 222.399L119.863 221.571C123.677 215.895 125.716 209.273 125.716 202.386C125.716 201.44 125.657 200.523 125.568 199.577L125.45 198.04L126.987 197.981C131.067 197.804 134.999 196.946 138.694 195.439C142.3 193.961 145.641 191.832 148.597 189.142L149.602 188.255L150.607 189.142C153.563 191.832 156.904 193.961 160.51 195.439C164.117 196.917 167.96 197.774 171.98 197.981L173.31 198.04L173.369 199.37C173.576 203.361 174.434 207.234 175.912 210.84C177.39 214.447 179.518 217.758 182.208 220.743L183.095 221.748L182.208 222.753C179.518 225.739 177.39 229.05 175.912 232.657C174.434 236.263 173.576 240.106 173.369 244.126L173.31 245.457L171.98 245.516C167.96 245.723 164.117 246.58 160.51 248.058C156.904 249.536 153.593 251.665 150.607 254.355L149.602 255.242V255.212ZM128.702 242.589C132.575 242.914 136.329 243.801 139.847 245.279C143.365 246.728 146.646 248.738 149.602 251.251C152.588 248.738 155.839 246.728 159.357 245.279C162.875 243.831 166.6 242.914 170.472 242.589C170.798 238.717 171.684 234.962 173.163 231.474C174.641 227.986 176.621 224.675 179.134 221.719C176.621 218.763 174.611 215.481 173.163 211.964C171.714 208.446 170.798 204.721 170.472 200.848C166.6 200.523 162.875 199.636 159.357 198.158C155.839 196.68 152.558 194.7 149.602 192.187C146.646 194.7 143.365 196.71 139.847 198.158C136.299 199.636 132.545 200.523 128.672 200.848C128.672 201.351 128.732 201.883 128.732 202.386C128.732 209.51 126.721 216.398 122.937 222.399C126.751 228.37 128.732 235.288 128.732 242.412C128.732 242.501 128.732 242.56 128.732 242.648L128.702 242.589Z" fill="black"/>
<path d="M125.567 285.895C128.946 285.895 131.686 283.155 131.686 279.775C131.686 276.396 128.946 273.656 125.567 273.656C122.187 273.656 119.447 276.396 119.447 279.775C119.447 283.155 122.187 285.895 125.567 285.895Z" fill="white"/>
<path d="M125.538 287.377C124.562 287.377 123.587 287.2 122.641 286.786C120.778 286.018 119.3 284.539 118.532 282.677C117.763 280.785 117.763 278.745 118.532 276.853C119.3 274.991 120.778 273.513 122.641 272.744C124.503 271.976 126.572 271.976 128.464 272.744C132.337 274.341 134.199 278.805 132.573 282.677C131.361 285.604 128.523 287.377 125.538 287.377ZM125.567 275.139C124.976 275.139 124.355 275.257 123.793 275.494C122.641 275.967 121.754 276.853 121.281 278.006C120.808 279.159 120.808 280.43 121.281 281.554C121.754 282.707 122.641 283.594 123.793 284.066C126.158 285.042 128.878 283.919 129.854 281.554C130.829 279.189 129.706 276.469 127.341 275.494C126.779 275.257 126.158 275.139 125.567 275.139Z" fill="black"/>
<path d="M125.567 169.738C128.946 169.738 131.686 166.999 131.686 163.619C131.686 160.24 128.946 157.5 125.567 157.5C122.187 157.5 119.447 160.24 119.447 163.619C119.447 166.999 122.187 169.738 125.567 169.738Z" fill="white"/>
<path d="M125.567 171.221C122.581 171.221 119.743 169.447 118.531 166.521C116.935 162.648 118.768 158.184 122.64 156.588C126.513 154.992 130.977 156.824 132.573 160.697C134.169 164.57 132.337 169.033 128.464 170.63C127.518 171.014 126.542 171.221 125.567 171.221ZM125.537 158.982C124.946 158.982 124.355 159.101 123.764 159.337C121.399 160.313 120.275 163.032 121.251 165.397C122.226 167.762 124.946 168.886 127.341 167.91C129.706 166.934 130.829 164.215 129.853 161.85C129.114 160.047 127.37 158.982 125.537 158.982Z" fill="black"/>
<path d="M173.664 169.738C177.044 169.738 179.783 166.999 179.783 163.619C179.783 160.24 177.044 157.5 173.664 157.5C170.285 157.5 167.545 160.24 167.545 163.619C167.545 166.999 170.285 169.738 173.664 169.738Z" fill="white"/>
<path d="M173.665 171.222C172.689 171.222 171.714 171.044 170.768 170.63C166.895 169.034 165.033 164.57 166.659 160.698C168.255 156.825 172.719 154.963 176.592 156.589C178.454 157.357 179.932 158.835 180.701 160.698C181.469 162.56 181.469 164.629 180.701 166.521C179.489 169.448 176.651 171.222 173.665 171.222ZM173.665 158.983C171.832 158.983 170.118 160.077 169.349 161.851C168.374 164.215 169.497 166.935 171.862 167.911C174.227 168.886 176.946 167.763 177.922 165.398C178.897 163.033 177.774 160.313 175.409 159.338C174.818 159.101 174.227 158.983 173.635 158.983H173.665Z" fill="black"/>
<path d="M207.69 203.778C211.069 203.778 213.809 201.038 213.809 197.658C213.809 194.279 211.069 191.539 207.69 191.539C204.31 191.539 201.57 194.279 201.57 197.658C201.57 201.038 204.31 203.778 207.69 203.778Z" fill="white"/>
<path d="M207.719 205.26C204.734 205.26 201.896 203.486 200.684 200.56C199.087 196.687 200.92 192.223 204.793 190.627C208.665 189.031 213.129 190.864 214.725 194.736C216.322 198.609 214.489 203.072 210.616 204.669C209.67 205.053 208.695 205.26 207.719 205.26ZM207.69 192.992C207.099 192.992 206.507 193.11 205.916 193.347C203.551 194.322 202.428 197.042 203.403 199.407C204.379 201.772 207.099 202.895 209.493 201.92C211.858 200.944 212.981 198.224 212.006 195.859C211.267 194.056 209.523 192.992 207.69 192.992Z" fill="black"/>
<path d="M207.69 251.871C211.069 251.871 213.809 249.132 213.809 245.752C213.809 242.373 211.069 239.633 207.69 239.633C204.31 239.633 201.57 242.373 201.57 245.752C201.57 249.132 204.31 251.871 207.69 251.871Z" fill="white"/>
<path d="M207.69 253.373C206.715 253.373 205.71 253.167 204.764 252.782C202.901 252.014 201.423 250.536 200.655 248.673C199.886 246.781 199.886 244.742 200.655 242.85C201.423 240.958 202.901 239.509 204.764 238.741C206.656 237.972 208.725 237.972 210.587 238.741C212.45 239.509 213.928 240.987 214.696 242.85C215.465 244.742 215.465 246.781 214.696 248.673C213.928 250.536 212.45 252.014 210.587 252.782C209.641 253.167 208.666 253.373 207.69 253.373ZM207.69 241.105C207.099 241.105 206.478 241.224 205.917 241.46C204.764 241.933 203.877 242.82 203.404 243.973C202.931 245.126 202.931 246.397 203.404 247.52C203.877 248.673 204.764 249.56 205.917 250.033C207.069 250.506 208.341 250.506 209.464 250.033C210.617 249.56 211.504 248.673 211.977 247.52C212.45 246.367 212.45 245.096 211.977 243.973C211.504 242.82 210.617 241.933 209.464 241.46C208.902 241.224 208.281 241.105 207.69 241.105Z" fill="black"/>
<path d="M173.664 285.903C177.044 285.903 179.783 283.163 179.783 279.783C179.783 276.404 177.044 273.664 173.664 273.664C170.285 273.664 167.545 276.404 167.545 279.783C167.545 283.163 170.285 285.903 173.664 285.903Z" fill="white"/>
<path d="M173.665 287.405C172.689 287.405 171.684 287.198 170.768 286.813C168.905 286.045 167.427 284.567 166.658 282.704C165.89 280.842 165.89 278.773 166.658 276.881C167.427 275.018 168.905 273.54 170.768 272.772C172.63 272.003 174.699 272.003 176.591 272.772C178.454 273.54 179.932 275.018 180.7 276.881C181.469 278.743 181.469 280.812 180.7 282.704C179.932 284.567 178.454 286.045 176.591 286.813C175.645 287.198 174.67 287.405 173.694 287.405H173.665ZM173.665 275.137C173.073 275.137 172.453 275.255 171.891 275.491C170.738 275.964 169.851 276.851 169.378 278.004C168.905 279.157 168.905 280.428 169.378 281.552C169.851 282.675 170.738 283.591 171.891 284.064C173.044 284.537 174.315 284.537 175.438 284.064C176.591 283.591 177.478 282.704 177.951 281.552C178.424 280.399 178.424 279.127 177.951 278.004C177.478 276.881 176.591 275.964 175.438 275.491C174.877 275.255 174.256 275.137 173.665 275.137Z" fill="black"/>
<path d="M91.3673 88.4846C94.7468 88.4846 97.4865 85.7449 97.4865 82.3653C97.4865 78.9858 94.7468 76.2461 91.3673 76.2461C87.9877 76.2461 85.248 78.9858 85.248 82.3653C85.248 85.7449 87.9877 88.4846 91.3673 88.4846Z" fill="white"/>
<path d="M91.3668 89.9642C87.1691 89.9642 83.7695 86.5646 83.7695 82.3668C83.7695 78.1691 87.1691 74.7695 91.3668 74.7695C95.5646 74.7695 98.9642 78.1691 98.9642 82.3668C98.9642 86.5646 95.5646 89.9642 91.3668 89.9642ZM91.3668 77.6961C88.795 77.6961 86.7257 79.795 86.7257 82.3373C86.7257 84.8796 88.8246 86.9784 91.3668 86.9784C93.9091 86.9784 96.008 84.8796 96.008 82.3373C96.008 79.795 93.9091 77.6961 91.3668 77.6961Z" fill="black"/>
<path d="M91.3673 128.488C94.7468 128.488 97.4865 125.749 97.4865 122.369C97.4865 118.99 94.7468 116.25 91.3673 116.25C87.9877 116.25 85.248 118.99 85.248 122.369C85.248 125.749 87.9877 128.488 91.3673 128.488Z" fill="white"/>
<path d="M91.3668 129.968C87.1691 129.968 83.7695 126.568 83.7695 122.371C83.7695 118.173 87.1691 114.773 91.3668 114.773C95.5646 114.773 98.9642 118.173 98.9642 122.371C98.9642 126.568 95.5646 129.968 91.3668 129.968ZM91.3668 117.73C88.795 117.73 86.7257 119.828 86.7257 122.371C86.7257 124.913 88.8246 127.012 91.3668 127.012C93.9091 127.012 96.008 124.913 96.008 122.371C96.008 119.828 93.9091 117.73 91.3668 117.73Z" fill="black"/>
<path d="M91.3673 168.473C94.7468 168.473 97.4865 165.733 97.4865 162.354C97.4865 158.974 94.7468 156.234 91.3673 156.234C87.9877 156.234 85.248 158.974 85.248 162.354C85.248 165.733 87.9877 168.473 91.3673 168.473Z" fill="white"/>
<path d="M91.3668 169.952C87.1691 169.952 83.7695 166.553 83.7695 162.355C83.7695 158.157 87.1691 154.758 91.3668 154.758C95.5646 154.758 98.9642 158.157 98.9642 162.355C98.9642 166.553 95.5646 169.952 91.3668 169.952ZM91.3668 157.714C88.795 157.714 86.7257 159.813 86.7257 162.355C86.7257 164.897 88.8246 166.996 91.3668 166.996C93.9091 166.996 96.008 164.897 96.008 162.355C96.008 159.813 93.9091 157.714 91.3668 157.714Z" fill="black"/>
<path d="M91.3673 208.477C94.7468 208.477 97.4865 205.737 97.4865 202.358C97.4865 198.978 94.7468 196.238 91.3673 196.238C87.9877 196.238 85.248 198.978 85.248 202.358C85.248 205.737 87.9877 208.477 91.3673 208.477Z" fill="white"/>
<path d="M91.3668 209.956C87.1691 209.956 83.7695 206.557 83.7695 202.359C83.7695 198.161 87.1691 194.762 91.3668 194.762C95.5646 194.762 98.9642 198.161 98.9642 202.359C98.9642 206.557 95.5646 209.956 91.3668 209.956ZM91.3668 197.718C88.795 197.718 86.7257 199.817 86.7257 202.359C86.7257 204.901 88.8246 207 91.3668 207C93.9091 207 96.008 204.901 96.008 202.359C96.008 199.817 93.9091 197.718 91.3668 197.718Z" fill="black"/>
<path d="M91.3673 248.469C94.7468 248.469 97.4865 245.729 97.4865 242.35C97.4865 238.97 94.7468 236.23 91.3673 236.23C87.9877 236.23 85.248 238.97 85.248 242.35C85.248 245.729 87.9877 248.469 91.3673 248.469Z" fill="white"/>
<path d="M91.3668 249.984C87.1691 249.984 83.7695 246.584 83.7695 242.386C83.7695 238.189 87.1691 234.789 91.3668 234.789C95.5646 234.789 98.9642 238.189 98.9642 242.386C98.9642 246.584 95.5646 249.984 91.3668 249.984ZM91.3668 237.716C88.795 237.716 86.7257 239.815 86.7257 242.357C86.7257 244.899 88.8246 246.998 91.3668 246.998C93.9091 246.998 96.008 244.899 96.008 242.357C96.008 239.815 93.9091 237.716 91.3668 237.716Z" fill="black"/>
<path d="M91.3673 288.461C94.7468 288.461 97.4865 285.721 97.4865 282.342C97.4865 278.962 94.7468 276.223 91.3673 276.223C87.9877 276.223 85.248 278.962 85.248 282.342C85.248 285.721 87.9877 288.461 91.3673 288.461Z" fill="white"/>
<path d="M91.3668 289.976C87.1691 289.976 83.7695 286.576 83.7695 282.379C83.7695 278.181 87.1691 274.781 91.3668 274.781C95.5646 274.781 98.9642 278.181 98.9642 282.379C98.9642 286.576 95.5646 289.976 91.3668 289.976ZM91.3668 277.708C88.795 277.708 86.7257 279.807 86.7257 282.349C86.7257 284.891 88.8246 286.99 91.3668 286.99C93.9091 286.99 96.008 284.891 96.008 282.349C96.008 279.807 93.9091 277.708 91.3668 277.708Z" fill="black"/>
</svg>
