<svg width="158" height="158" viewBox="0 0 158 158" fill="none" xmlns="http://www.w3.org/2000/svg">
<path d="M73 157C112.764 157 145 124.764 145 85C145 45.2355 112.764 13 73 13C33.2355 13 1 45.2355 1 85C1 124.764 33.2355 157 73 157Z" fill="#2F2F32" stroke="#555560" stroke-miterlimit="10" stroke-dasharray="7 5"/>
<mask id="mask0_2272_8211" style="mask-type:luminance" maskUnits="userSpaceOnUse" x="1" y="13" width="144" height="144">
<path d="M73.0002 155.724C71.7929 155.724 70.5928 155.693 69.4004 155.634L69.3754 156.133C67.637 156.046 65.9151 155.896 64.2118 155.687L64.2728 155.191C61.8703 154.895 59.5051 154.479 57.1836 153.948L57.0722 154.436C55.3815 154.05 53.7136 153.603 52.0711 153.099L52.2178 152.621C49.911 151.913 47.6545 151.09 45.4548 150.159L45.2599 150.619C43.6649 149.944 42.0995 149.213 40.5663 148.427L40.7943 147.982C38.652 146.884 36.573 145.68 34.5642 144.377L34.2921 144.797C32.8418 143.856 31.4278 142.864 30.0527 141.823L30.3545 141.424C28.4387 139.974 26.599 138.429 24.8425 136.795L24.502 137.161C23.2376 135.985 22.0161 134.763 20.8399 133.499L21.206 133.158C19.5721 131.402 18.0265 129.562 16.5762 127.646L16.1776 127.948C15.1367 126.573 14.1445 125.159 13.2037 123.709L13.6232 123.436C12.3202 121.428 11.1164 119.349 10.0187 117.206L9.57372 117.434C8.78814 115.901 8.05653 114.336 7.38137 112.741L7.84183 112.546C6.91077 110.346 6.08786 108.09 5.37976 105.783L4.90177 105.93C4.39756 104.287 3.95115 102.619 3.5649 100.928L4.05234 100.817C3.52198 98.4956 3.10586 96.1304 2.81022 93.7279L2.31396 93.7889C2.10435 92.0856 1.95489 90.3637 1.86775 88.6254L2.36712 88.6003C2.30735 87.408 2.2771 86.2078 2.2771 85.0005C2.2771 83.7932 2.30735 82.593 2.36712 81.4006L1.86775 81.3756C1.95489 79.6372 2.10436 77.9153 2.31396 76.212L2.81022 76.2731C3.10586 73.8705 3.52198 71.5054 4.05234 69.1838L3.5649 69.0725C3.95115 67.3817 4.39756 65.7139 4.90177 64.0713L5.37976 64.218C6.08786 61.9113 6.91077 59.6547 7.84183 57.4551L7.38138 57.2602C8.05653 55.6651 8.78815 54.0997 9.57372 52.5666L10.0187 52.7946C11.1164 50.6523 12.3202 48.5732 13.6232 46.5645L13.2037 46.2924C14.1446 44.842 15.1367 43.428 16.1776 42.053L16.5762 42.3548C18.0265 40.4389 19.5721 38.5992 21.206 36.8428L20.8399 36.5022C22.0161 35.2379 23.2376 34.0163 24.502 32.8402L24.8425 33.2063C26.599 31.5724 28.4387 30.0268 30.3545 28.5765L30.0527 28.1778C31.4278 27.1369 32.8418 26.1448 34.2922 25.204L34.5643 25.6235C36.573 24.3205 38.652 23.1166 40.7943 22.0189L40.5663 21.574C42.0995 20.7884 43.6649 20.0568 45.2599 19.3816L45.4548 19.8421C47.6545 18.911 49.911 18.0881 52.2178 17.38L52.0711 16.902C53.7136 16.3978 55.3815 15.9514 57.0722 15.5651L57.1836 16.0526C59.5052 15.5222 61.8703 15.1061 64.2728 14.8105L64.2118 14.3142C65.9151 14.1046 67.637 13.9551 69.3754 13.868L69.4004 14.3674C70.5928 14.3076 71.7929 14.2773 73.0002 14.2773C74.2075 14.2773 75.4077 14.3076 76.6001 14.3674L76.6251 13.868C78.3635 13.9551 80.0854 14.1046 81.7887 14.3142L81.7277 14.8105C84.1302 15.1061 86.4953 15.5222 88.8169 16.0526L88.9283 15.5651C90.619 15.9514 92.2869 16.3978 93.9294 16.902L93.7827 17.38C96.0894 18.0881 98.346 18.911 100.546 19.8421L100.741 19.3816C102.336 20.0568 103.901 20.7884 105.434 21.574L105.206 22.019C107.348 23.1167 109.427 24.3205 111.436 25.6235L111.708 25.204C113.159 26.1448 114.573 27.1369 115.948 28.1778L115.646 28.5765C117.562 30.0268 119.401 31.5724 121.158 33.2063L121.498 32.8402C122.763 34.0163 123.984 35.2379 125.161 36.5022L124.794 36.8428C126.428 38.5993 127.974 40.4389 129.424 42.3548L129.823 42.053C130.864 43.428 131.856 44.842 132.797 46.2924L132.377 46.5645C133.68 48.5733 134.884 50.6523 135.982 52.7946L136.427 52.5666C137.212 54.0997 137.944 55.6651 138.619 57.2602L138.159 57.4551C139.09 59.6547 139.913 61.9113 140.621 64.218L141.099 64.0713C141.603 65.7139 142.049 67.3817 142.436 69.0725L141.948 69.1838C142.478 71.5054 142.895 73.8706 143.19 76.2731L143.687 76.212C143.896 77.9153 144.046 79.6373 144.133 81.3756L143.633 81.4006C143.693 82.593 143.723 83.7932 143.723 85.0005C143.723 86.2078 143.693 87.408 143.633 88.6003L144.133 88.6254C144.046 90.3637 143.896 92.0856 143.687 93.789L143.19 93.7279C142.895 96.1304 142.478 98.4956 141.948 100.817L142.436 100.929C142.049 102.619 141.603 104.287 141.099 105.93L140.621 105.783C139.913 108.09 139.09 110.346 138.159 112.546L138.619 112.741C137.944 114.336 137.212 115.901 136.427 117.434L135.982 117.206C134.884 119.349 133.68 121.428 132.377 123.436L132.797 123.709C131.856 125.159 130.864 126.573 129.823 127.948L129.424 127.646C127.974 129.562 126.428 131.402 124.794 133.158L125.161 133.499C123.984 134.763 122.763 135.985 121.498 137.161L121.158 136.795C119.401 138.429 117.562 139.974 115.646 141.424L115.948 141.823C114.573 142.864 113.159 143.856 111.708 144.797L111.436 144.378C109.427 145.68 107.348 146.884 105.206 147.982L105.434 148.427C103.901 149.213 102.336 149.944 100.741 150.619L100.546 150.159C98.346 151.09 96.0894 151.913 93.7827 152.621L93.9294 153.099C92.2868 153.603 90.619 154.05 88.9283 154.436L88.8169 153.948C86.4953 154.479 84.1302 154.895 81.7276 155.191L81.7887 155.687C80.0854 155.896 78.3635 156.046 76.6251 156.133L76.6001 155.634C75.4077 155.693 74.2075 155.724 73.0002 155.724Z" fill="white" stroke="white" stroke-dasharray="7 5"/>
</mask>
<g mask="url(#mask0_2272_8211)">
<path d="M88.654 103.358C98.1939 97.9195 104.657 87.6338 104.657 75.8565C104.657 58.3615 90.4874 44.1914 72.9924 44.1914C55.4974 44.1914 41.3273 58.3615 41.3273 75.8565C41.3273 87.6338 47.7908 97.9195 57.3308 103.358C32.6885 107.832 14.572 122.562 14.572 140.057C14.572 161.125 40.7369 178.185 72.9924 178.185C105.248 178.185 131.413 161.125 131.413 140.057C131.413 122.531 113.296 107.832 88.654 103.358Z" fill="#2F2F32" stroke="#555560" stroke-miterlimit="10" stroke-dasharray="7 5"/>
</g>
<path d="M135.332 14.5391C135.332 14.25 135.434 14.0039 135.637 13.8008C135.848 13.5898 136.094 13.4844 136.375 13.4844H143.957V5.91406C143.957 5.63281 144.059 5.39062 144.262 5.1875C144.465 4.97656 144.711 4.87109 145 4.87109C145.289 4.87109 145.535 4.97656 145.738 5.1875C145.949 5.39062 146.055 5.63281 146.055 5.91406V13.4844H153.625C153.906 13.4844 154.148 13.5898 154.352 13.8008C154.562 14.0039 154.668 14.25 154.668 14.5391C154.668 14.8281 154.562 15.0742 154.352 15.2773C154.148 15.4805 153.906 15.582 153.625 15.582H146.055V23.1641C146.055 23.4453 145.949 23.6875 145.738 23.8906C145.535 24.1016 145.289 24.207 145 24.207C144.711 24.207 144.465 24.1016 144.262 23.8906C144.059 23.6875 143.957 23.4453 143.957 23.1641V15.582H136.375C136.094 15.582 135.848 15.4805 135.637 15.2773C135.434 15.0742 135.332 14.8281 135.332 14.5391Z" fill="#555560"/>
</svg>
