<svg width="202" height="218" viewBox="0 0 202 218" fill="none" xmlns="http://www.w3.org/2000/svg">
<g clip-path="url(#clip0_2067_7418)">
<rect x="-2.35914" y="34.9219" width="109" height="197.936" rx="9.5" transform="rotate(-20 -2.35914 34.9219)" fill="#323139" stroke="#555560" stroke-linecap="round" stroke-linejoin="round" stroke-dasharray="7 7"/>
<path d="M115.261 158.19L99.579 132.402L99.5788 132.402L98.0818 129.943L98.0185 129.839L97.9145 129.775L69.6671 112.596L74.2305 108.033L105.169 113.786L105.457 113.839L105.645 113.614C109.06 109.504 113.359 104.618 118.637 98.7517C121.184 95.9261 123.968 92.8637 126.973 89.5578C128.005 88.4235 129.062 87.2606 130.144 86.0688L130.465 85.716L130.128 85.379L119.956 75.2072L119.911 75.162L119.855 75.1296L59.1938 39.51C60.025 38.9099 60.8093 38.3277 61.5506 37.7774C62.1119 37.3607 62.6486 36.9623 63.1624 36.5883C64.5352 35.5888 65.7629 34.7492 66.9466 34.1244C69.2842 32.8906 71.4351 32.4997 74.1523 33.4476L74.1529 33.4478L152.721 60.7419L153.035 60.8512L153.257 60.6032C155.087 58.559 156.958 56.4748 158.882 54.3372C168.834 43.4628 176.781 35.6081 183.523 31.0437C190.18 26.537 195.55 25.3106 200.476 27.4073C202.567 32.3399 201.334 37.7101 196.825 44.3656C192.259 51.1061 184.408 59.05 173.547 69.0021C171.396 70.9393 169.312 72.8097 167.281 74.6268L167.033 74.8488L167.142 75.1634L194.423 153.717L115.261 158.19ZM115.261 158.19L119.824 153.627L114.058 122.702L114.004 122.412L114.231 122.225C118.366 118.81 123.238 114.499 129.092 109.233L129.235 109.105H129.261C133.02 105.717 137.195 101.937 141.801 97.7274L142.154 97.4049L142.492 97.7429L152.663 107.915L152.709 107.96L152.741 108.015L188.36 168.677C188.96 167.846 189.542 167.062 190.092 166.32C190.506 165.762 190.902 165.228 191.275 164.716C192.273 163.345 193.111 162.118 193.736 160.934C194.97 158.596 195.364 156.442 194.423 153.718L115.261 158.19Z" fill="#323139" stroke="#555560"/>
</g>
<defs>
<clipPath id="clip0_2067_7418">
<rect width="202" height="218" fill="white"/>
</clipPath>
</defs>
</svg>
