<svg width="161" height="42" viewBox="0 0 161 42" fill="none" xmlns="http://www.w3.org/2000/svg">
<g clip-path="url(#clip0_1870_9555)">
<path d="M68.4285 0.224609C65.3905 0.224609 62.9238 2.67871 62.9238 5.71132C62.9238 6.84572 63.2684 7.89425 63.8579 8.77104C63.2684 9.64331 62.9238 10.6964 62.9238 11.8308C62.9238 12.9652 63.2684 14.0137 63.8579 14.8905C63.2684 15.7628 62.9238 16.8158 62.9238 17.9502C62.9238 19.0846 63.2684 20.1331 63.8579 21.0099C63.2684 21.8822 62.9238 22.9352 62.9238 24.0697C62.9238 25.2041 63.2684 26.2526 63.8579 27.1294C63.2684 28.0016 62.9238 29.0547 62.9238 30.1891C62.9238 31.3235 63.2684 32.372 63.8579 33.2488C63.2684 34.1211 62.9238 35.1741 62.9238 36.3085C62.9238 39.3366 65.386 41.7953 68.4285 41.7953C71.471 41.7953 73.9331 39.3411 73.9331 36.3085C73.9331 35.1741 73.5885 34.1256 72.9991 33.2488C73.5885 32.3765 73.9331 31.3235 73.9331 30.1891C73.9331 29.0547 73.5885 28.0062 72.9991 27.1294C73.5885 26.2571 73.9331 25.2041 73.9331 24.0697C73.9331 22.9352 73.5885 21.8867 72.9991 21.0099C73.5885 20.1377 73.9331 19.0846 73.9331 17.9502C73.9331 16.8158 73.5885 15.7673 72.9991 14.8905C73.5885 14.0182 73.9331 12.9652 73.9331 11.8308C73.9331 10.6964 73.5885 9.64783 72.9991 8.77104C73.5885 7.89877 73.9331 6.84572 73.9331 5.71132C73.9331 2.68323 71.471 0.224609 68.4285 0.224609Z" fill="white" stroke="black" stroke-width="0.5" stroke-miterlimit="10"/>
<path d="M124.775 12.4551C124.557 12.4551 124.349 12.4686 124.14 12.4957C124.167 12.2743 124.185 12.0528 124.185 11.8269C124.185 10.6925 123.841 9.64392 123.251 8.76714C123.841 7.89487 124.185 6.84182 124.185 5.70741C124.185 2.67933 121.723 0.220703 118.681 0.220703C115.638 0.220703 113.176 2.67481 113.176 5.70741C113.176 6.84182 113.521 7.89035 114.11 8.76714C113.521 9.6394 113.176 10.6925 113.176 11.8269C113.176 12.0528 113.194 12.2788 113.221 12.4957C113.013 12.4732 112.8 12.4551 112.587 12.4551C109.549 12.4551 107.082 14.9092 107.082 17.9418C107.082 20.9744 109.544 23.4285 112.587 23.4285C112.804 23.4285 113.013 23.4149 113.221 23.3878C113.194 23.6093 113.176 23.8307 113.176 24.0567C113.176 25.1911 113.521 26.2396 114.11 27.1164C113.521 27.9887 113.176 29.0417 113.176 30.1762C113.176 31.3106 113.521 32.3591 114.11 33.2359C113.521 34.1081 113.176 35.1612 113.176 36.2956C113.176 39.3237 115.638 41.7823 118.681 41.7823C121.723 41.7823 124.185 39.3282 124.185 36.2956C124.185 35.1612 123.841 34.1127 123.251 33.2359C123.841 32.3636 124.185 31.3106 124.185 30.1762C124.185 29.0417 123.841 27.9932 123.251 27.1164C123.841 26.2442 124.185 25.1911 124.185 24.0567C124.185 23.8307 124.167 23.6048 124.14 23.3878C124.349 23.4104 124.562 23.4285 124.775 23.4285C127.813 23.4285 130.28 20.9744 130.28 17.9418C130.28 14.9092 127.817 12.4551 124.775 12.4551Z" fill="white" stroke="black" stroke-width="0.5" stroke-miterlimit="10"/>
<path d="M28.6982 21.3353C27.8729 19.3061 25.9685 18.0451 23.9099 17.9276C23.8192 15.8757 22.5814 13.9595 20.5591 13.1098C18.5368 12.2556 16.2923 12.7076 14.7551 14.0725C13.7757 13.1776 12.4971 12.6578 11.164 12.6262C11.2002 12.3641 11.2274 12.0974 11.2274 11.8262C11.2274 10.6918 10.8828 9.64331 10.2934 8.76652C10.8828 7.89425 11.2274 6.8412 11.2274 5.7068C11.232 2.67871 8.76984 0.224609 5.73185 0.224609C2.69386 0.224609 0.227191 2.67871 0.227191 5.71132C0.227191 6.84572 0.571799 7.89425 1.16126 8.77104C0.571799 9.64331 0.227191 10.6964 0.227191 11.8308C0.227191 12.9652 0.571799 14.0137 1.16126 14.8905C0.571799 15.7628 0.227191 16.8158 0.227191 17.9502C0.227191 18.9355 0.494715 19.862 0.952681 20.6619C0.866529 20.8201 0.789446 20.9783 0.716897 21.1455C0.413098 21.8596 0.277068 22.6008 0.281602 23.3284C0.249862 23.568 0.227191 23.8166 0.227191 24.0651C0.227191 25.1995 0.571799 26.2481 1.16126 27.1249C0.571799 27.9971 0.227191 29.0502 0.227191 30.1846C0.227191 30.2569 0.236259 30.3292 0.236259 30.4015C0.199985 31.1653 0.322411 31.9472 0.630745 32.702C0.739568 32.9731 0.875598 33.2262 1.0207 33.4658C0.517387 34.2928 0.222656 35.26 0.222656 36.2995C0.222656 39.3276 2.68479 41.7862 5.72732 41.7862C6.82916 41.7862 7.84938 41.4608 8.7109 40.9049C8.72904 40.9139 8.74717 40.923 8.76531 40.932C10.7876 41.7862 13.0321 41.3343 14.5692 39.9694C16.0882 41.3569 18.3237 41.8404 20.3596 41.0179C22.3955 40.1953 23.6605 38.2971 23.7784 36.2453C25.837 36.1549 27.7596 34.921 28.612 32.9053C29.469 30.8896 29.0156 28.6525 27.6462 27.1203C29.0382 25.6063 29.5234 23.3782 28.6982 21.3489V21.3353ZM14.6327 31.8297C14.1793 31.4139 13.6533 31.0659 13.0548 30.8128C12.4562 30.5597 11.8396 30.4286 11.2229 30.3925C11.2229 30.3834 11.2229 30.3699 11.2229 30.3608C11.2229 30.2976 11.232 30.2343 11.232 30.171C11.232 29.0366 10.8874 27.9881 10.2979 27.1113C10.8874 26.239 11.232 25.186 11.232 24.0516C11.232 24.038 11.232 24.0245 11.232 24.0154C11.2501 23.8708 11.2683 23.7262 11.2728 23.5815C11.8849 23.5544 12.5061 23.4324 13.1092 23.1883C13.7122 22.9443 14.2428 22.6008 14.7007 22.194C15.1542 22.6098 15.6801 22.9578 16.2787 23.2109C16.8772 23.464 17.4939 23.5951 18.1105 23.6313C18.1377 24.2414 18.2602 24.8606 18.505 25.4617C18.7499 26.0628 19.0945 26.5915 19.5026 27.048C19.0854 27.5 18.7363 28.0242 18.4823 28.6208C18.2284 29.2174 18.0969 29.8321 18.0607 30.4467C17.4485 30.4738 16.8273 30.5959 16.2243 30.8399C15.6212 31.084 15.0907 31.4275 14.6327 31.8342V31.8297Z" fill="white" stroke="black" stroke-width="0.5" stroke-miterlimit="10"/>
<path d="M60.0476 21.3365C59.2224 19.3073 57.318 18.0463 55.2594 17.9288C55.1687 15.8769 53.9308 13.9607 51.9085 13.111C49.8862 12.2613 47.6417 12.7088 46.1046 14.0737C44.5856 12.6862 42.3502 12.2026 40.3143 13.0251C38.2784 13.8477 37.0133 15.7459 36.8954 17.7978C34.8368 17.8881 32.9143 19.122 32.0618 21.1377C31.2048 23.1534 31.6583 25.3906 33.0276 26.9227C31.6356 28.4367 31.1504 30.6649 31.9757 32.6941C32.8009 34.7234 34.7053 35.9843 36.7639 36.1019C36.8546 38.1537 38.0925 40.07 40.1148 40.9242C42.1371 41.7784 44.3816 41.3264 45.9187 39.9615C47.4377 41.349 49.6731 41.8326 51.709 41.0101C53.7449 40.1875 55.01 38.2893 55.1279 36.2374C57.1865 36.147 59.109 34.9132 59.9615 32.8975C60.8185 30.8818 60.365 28.6446 58.9957 27.1125C60.3877 25.5985 60.8729 23.3703 60.0476 21.3411V21.3365ZM45.9776 31.8309C45.5242 31.4151 44.9982 31.0671 44.3997 30.814C43.8012 30.5609 43.1845 30.4298 42.5678 30.3937C42.5406 29.7835 42.4182 29.1644 42.1733 28.5633C41.9285 27.9622 41.5839 27.4334 41.1758 26.9769C41.5929 26.525 41.9421 26.0007 42.196 25.4041C42.4499 24.8075 42.5814 24.1929 42.6177 23.5782C43.2298 23.5511 43.851 23.4291 44.4541 23.185C45.0572 22.941 45.5877 22.5975 46.0456 22.1907C46.4991 22.6065 47.0251 22.9545 47.6236 23.2076C48.2221 23.4607 48.8388 23.5918 49.4555 23.6279C49.4827 24.2381 49.6051 24.8573 49.8499 25.4584C50.0948 26.0595 50.4394 26.5882 50.8475 27.0447C50.4303 27.4967 50.0812 28.0209 49.8273 28.6175C49.5733 29.2141 49.4419 29.8287 49.4056 30.4434C48.7934 30.4705 48.1722 30.5925 47.5692 30.8366C46.9661 31.0807 46.4356 31.4241 45.9776 31.8309Z" fill="white" stroke="black" stroke-width="0.5" stroke-miterlimit="10"/>
<path d="M160.37 21.3365C159.545 19.3073 157.64 18.0463 155.582 17.9288C155.491 15.8769 154.253 13.9607 152.231 13.111C150.208 12.2568 147.964 12.7088 146.427 14.0737C144.908 12.6862 142.672 12.2026 140.637 13.0251C138.601 13.8477 137.336 15.7459 137.218 17.7978C135.159 17.8881 133.237 19.122 132.384 21.1377C131.527 23.1534 131.981 25.3906 133.35 26.9227C131.958 28.4367 131.473 30.6649 132.298 32.6941C133.123 34.7234 135.028 35.9843 137.086 36.1019C137.177 38.1537 138.415 40.07 140.437 40.9197C142.459 41.7693 144.704 41.3219 146.241 39.957C147.76 41.3445 149.995 41.8281 152.031 41.0055C154.067 40.183 155.332 38.2848 155.45 36.2329C157.509 36.1425 159.431 34.9087 160.288 32.893C161.145 30.8773 160.692 28.6401 159.322 27.108C160.714 25.5939 161.2 23.3658 160.374 21.3365H160.37ZM146.3 31.8309C145.846 31.4151 145.32 31.0671 144.722 30.814C144.123 30.5609 143.507 30.4298 142.89 30.3937C142.863 29.7835 142.74 29.1644 142.496 28.5633C142.251 27.9622 141.906 27.4334 141.498 26.9769C141.915 26.525 142.264 26.0007 142.518 25.4041C142.772 24.8075 142.904 24.1929 142.94 23.5782C143.552 23.5511 144.173 23.4291 144.776 23.185C145.379 22.941 145.91 22.5975 146.368 22.1907C146.821 22.6065 147.347 22.9545 147.946 23.2076C148.544 23.4607 149.161 23.5918 149.778 23.6279C149.805 24.2381 149.927 24.8573 150.172 25.4584C150.417 26.0595 150.762 26.5882 151.17 27.0447C150.753 27.4967 150.403 28.0209 150.15 28.6175C149.896 29.2141 149.764 29.8287 149.728 30.4434C149.116 30.4705 148.495 30.5925 147.891 30.8366C147.288 31.0807 146.758 31.4241 146.3 31.8309Z" fill="white" stroke="black" stroke-width="0.5" stroke-miterlimit="10"/>
<path d="M100.205 17.9198C100.109 15.8724 98.8716 13.9607 96.8538 13.111C94.8315 12.2568 92.587 12.7088 91.0499 14.0737C89.5309 12.6862 87.2955 12.2026 85.2596 13.0251C83.2237 13.8477 81.9586 15.7459 81.8407 17.7978C79.7821 17.8881 77.8596 19.122 77.0071 21.1377C76.1501 23.1534 76.6036 25.3906 77.9729 26.9227C76.5809 28.4367 76.0957 30.6649 76.921 32.6941C77.7462 34.7234 79.6506 35.9843 81.7092 36.1019C81.7999 38.1537 83.0378 40.07 85.0601 40.9242C87.0824 41.7784 89.3269 41.3264 90.864 39.9615C92.383 41.349 94.6184 41.8326 96.6543 41.0101C99.4701 39.8711 100.826 36.6713 99.6832 33.8647C98.5406 31.0581 95.3303 29.7067 92.5145 30.8456C91.9114 31.0897 91.3809 31.4332 90.9229 31.8399C90.4695 31.4241 89.9435 31.0761 89.345 30.823C88.7465 30.5699 88.1298 30.4389 87.5131 30.4027C87.4859 29.7926 87.3635 29.1734 87.1187 28.5723C86.8738 27.9712 86.5292 27.4424 86.1211 26.986C86.5383 26.534 86.8874 26.0097 87.1413 25.4132C87.3952 24.8166 87.5267 24.2019 87.563 23.5873C88.1117 23.5647 88.6649 23.4562 89.209 23.2619C89.1908 23.994 89.3133 24.7443 89.608 25.4674C90.7506 28.274 93.9609 29.6254 96.7767 28.4864C97.0171 28.3915 97.2392 28.274 97.4569 28.1475C98.8761 28.9655 100.645 29.1463 102.281 28.4864C105.097 27.3475 106.453 24.1477 105.31 21.3411C104.44 19.2078 102.377 17.9153 100.2 17.9198H100.205Z" fill="white" stroke="black" stroke-width="0.5" stroke-miterlimit="10"/>
<path d="M5.5011 6.64843C6.01948 6.64843 6.43971 6.22957 6.43971 5.71289C6.43971 5.1962 6.01948 4.77734 5.5011 4.77734C4.98273 4.77734 4.5625 5.1962 4.5625 5.71289C4.5625 6.22957 4.98273 6.64843 5.5011 6.64843Z" fill="white" stroke="black" stroke-width="0.5" stroke-miterlimit="10"/>
<path d="M18.1007 19.0996C18.6191 19.0996 19.0393 18.6807 19.0393 18.1641C19.0393 17.6474 18.6191 17.2285 18.1007 17.2285C17.5823 17.2285 17.1621 17.6474 17.1621 18.1641C17.1621 18.6807 17.5823 19.0996 18.1007 19.0996Z" fill="white" stroke="black" stroke-width="0.5" stroke-miterlimit="10"/>
<path d="M11.005 18.8789C11.5234 18.8789 11.9436 18.46 11.9436 17.9434C11.9436 17.4267 11.5234 17.0078 11.005 17.0078C10.4866 17.0078 10.0664 17.4267 10.0664 17.9434C10.0664 18.46 10.4866 18.8789 11.005 18.8789Z" fill="white" stroke="black" stroke-width="0.5" stroke-miterlimit="10"/>
<path d="M11.005 36.748C11.5234 36.748 11.9436 36.3292 11.9436 35.8125C11.9436 35.2958 11.5234 34.877 11.005 34.877C10.4866 34.877 10.0664 35.2958 10.0664 35.8125C10.0664 36.3292 10.4866 36.748 11.005 36.748Z" fill="white" stroke="black" stroke-width="0.5" stroke-miterlimit="10"/>
<path d="M18.1007 36.748C18.6191 36.748 19.0393 36.3292 19.0393 35.8125C19.0393 35.2958 18.6191 34.877 18.1007 34.877C17.5823 34.877 17.1621 35.2958 17.1621 35.8125C17.1621 36.3292 17.5823 36.748 18.1007 36.748Z" fill="white" stroke="black" stroke-width="0.5" stroke-miterlimit="10"/>
<path d="M23.4249 31.4961C23.9433 31.4961 24.3635 31.0772 24.3635 30.5605C24.3635 30.0439 23.9433 29.625 23.4249 29.625C22.9066 29.625 22.4863 30.0439 22.4863 30.5605C22.4863 31.0772 22.9066 31.4961 23.4249 31.4961Z" fill="white" stroke="black" stroke-width="0.5" stroke-miterlimit="10"/>
<path d="M23.4249 24.3652C23.9433 24.3652 24.3635 23.9464 24.3635 23.4297C24.3635 22.913 23.9433 22.4941 23.4249 22.4941C22.9066 22.4941 22.4863 22.913 22.4863 23.4297C22.4863 23.9464 22.9066 24.3652 23.4249 24.3652Z" fill="white" stroke="black" stroke-width="0.5" stroke-miterlimit="10"/>
<path d="M49.673 19.0996C50.1914 19.0996 50.6116 18.6807 50.6116 18.1641C50.6116 17.6474 50.1914 17.2285 49.673 17.2285C49.1546 17.2285 48.7344 17.6474 48.7344 18.1641C48.7344 18.6807 49.1546 19.0996 49.673 19.0996Z" fill="white" stroke="black" stroke-width="0.5" stroke-miterlimit="10"/>
<path d="M42.5773 18.8789C43.0957 18.8789 43.5159 18.46 43.5159 17.9434C43.5159 17.4267 43.0957 17.0078 42.5773 17.0078C42.0589 17.0078 41.6387 17.4267 41.6387 17.9434C41.6387 18.46 42.0589 18.8789 42.5773 18.8789Z" fill="white" stroke="black" stroke-width="0.5" stroke-miterlimit="10"/>
<path d="M37.2902 24.0566C37.8085 24.0566 38.2288 23.6378 38.2288 23.1211C38.2288 22.6044 37.8085 22.1855 37.2902 22.1855C36.7718 22.1855 36.3516 22.6044 36.3516 23.1211C36.3516 23.6378 36.7718 24.0566 37.2902 24.0566Z" fill="white" stroke="black" stroke-width="0.5" stroke-miterlimit="10"/>
<path d="M37.2902 31.4961C37.8085 31.4961 38.2288 31.0772 38.2288 30.5605C38.2288 30.0439 37.8085 29.625 37.2902 29.625C36.7718 29.625 36.3516 30.0439 36.3516 30.5605C36.3516 31.0772 36.7718 31.4961 37.2902 31.4961Z" fill="white" stroke="black" stroke-width="0.5" stroke-miterlimit="10"/>
<path d="M42.1242 36.748C42.6425 36.748 43.0628 36.3292 43.0628 35.8125C43.0628 35.2958 42.6425 34.877 42.1242 34.877C41.6058 34.877 41.1855 35.2958 41.1855 35.8125C41.1855 36.3292 41.6058 36.748 42.1242 36.748Z" fill="white" stroke="black" stroke-width="0.5" stroke-miterlimit="10"/>
<path d="M49.673 36.748C50.1914 36.748 50.6116 36.3292 50.6116 35.8125C50.6116 35.2958 50.1914 34.877 49.673 34.877C49.1546 34.877 48.7344 35.2958 48.7344 35.8125C48.7344 36.3292 49.1546 36.748 49.673 36.748Z" fill="white" stroke="black" stroke-width="0.5" stroke-miterlimit="10"/>
<path d="M54.9972 31.4961C55.5156 31.4961 55.9358 31.0772 55.9358 30.5605C55.9358 30.0439 55.5156 29.625 54.9972 29.625C54.4788 29.625 54.0586 30.0439 54.0586 30.5605C54.0586 31.0772 54.4788 31.4961 54.9972 31.4961Z" fill="white" stroke="black" stroke-width="0.5" stroke-miterlimit="10"/>
<path d="M54.9972 24.3652C55.5156 24.3652 55.9358 23.9464 55.9358 23.4297C55.9358 22.913 55.5156 22.4941 54.9972 22.4941C54.4788 22.4941 54.0586 22.913 54.0586 23.4297C54.0586 23.9464 54.4788 24.3652 54.9972 24.3652Z" fill="white" stroke="black" stroke-width="0.5" stroke-miterlimit="10"/>
<path d="M150.091 19.0996C150.609 19.0996 151.03 18.6807 151.03 18.1641C151.03 17.6474 150.609 17.2285 150.091 17.2285C149.573 17.2285 149.152 17.6474 149.152 18.1641C149.152 18.6807 149.573 19.0996 150.091 19.0996Z" fill="white" stroke="black" stroke-width="0.5" stroke-miterlimit="10"/>
<path d="M142.993 18.8789C143.512 18.8789 143.932 18.46 143.932 17.9434C143.932 17.4267 143.512 17.0078 142.993 17.0078C142.475 17.0078 142.055 17.4267 142.055 17.9434C142.055 18.46 142.475 18.8789 142.993 18.8789Z" fill="white" stroke="black" stroke-width="0.5" stroke-miterlimit="10"/>
<path d="M137.708 24.0566C138.227 24.0566 138.647 23.6378 138.647 23.1211C138.647 22.6044 138.227 22.1855 137.708 22.1855C137.19 22.1855 136.77 22.6044 136.77 23.1211C136.77 23.6378 137.19 24.0566 137.708 24.0566Z" fill="white" stroke="black" stroke-width="0.5" stroke-miterlimit="10"/>
<path d="M137.708 31.4961C138.227 31.4961 138.647 31.0772 138.647 30.5605C138.647 30.0439 138.227 29.625 137.708 29.625C137.19 29.625 136.77 30.0439 136.77 30.5605C136.77 31.0772 137.19 31.4961 137.708 31.4961Z" fill="white" stroke="black" stroke-width="0.5" stroke-miterlimit="10"/>
<path d="M142.54 36.748C143.059 36.748 143.479 36.3292 143.479 35.8125C143.479 35.2958 143.059 34.877 142.54 34.877C142.022 34.877 141.602 35.2958 141.602 35.8125C141.602 36.3292 142.022 36.748 142.54 36.748Z" fill="white" stroke="black" stroke-width="0.5" stroke-miterlimit="10"/>
<path d="M150.091 36.748C150.609 36.748 151.03 36.3292 151.03 35.8125C151.03 35.2958 150.609 34.877 150.091 34.877C149.573 34.877 149.152 35.2958 149.152 35.8125C149.152 36.3292 149.573 36.748 150.091 36.748Z" fill="white" stroke="black" stroke-width="0.5" stroke-miterlimit="10"/>
<path d="M155.413 31.4961C155.932 31.4961 156.352 31.0772 156.352 30.5605C156.352 30.0439 155.932 29.625 155.413 29.625C154.895 29.625 154.475 30.0439 154.475 30.5605C154.475 31.0772 154.895 31.4961 155.413 31.4961Z" fill="white" stroke="black" stroke-width="0.5" stroke-miterlimit="10"/>
<path d="M155.413 24.3652C155.932 24.3652 156.352 23.9464 156.352 23.4297C156.352 22.913 155.932 22.4941 155.413 22.4941C154.895 22.4941 154.475 22.913 154.475 23.4297C154.475 23.9464 154.895 24.3652 155.413 24.3652Z" fill="white" stroke="black" stroke-width="0.5" stroke-miterlimit="10"/>
<path d="M94.6495 19.0996C95.1679 19.0996 95.5881 18.6807 95.5881 18.1641C95.5881 17.6474 95.1679 17.2285 94.6495 17.2285C94.1312 17.2285 93.7109 17.6474 93.7109 18.1641C93.7109 18.6807 94.1312 19.0996 94.6495 19.0996Z" fill="white" stroke="black" stroke-width="0.5" stroke-miterlimit="10"/>
<path d="M87.5538 18.8789C88.0722 18.8789 88.4924 18.46 88.4924 17.9434C88.4924 17.4267 88.0722 17.0078 87.5538 17.0078C87.0355 17.0078 86.6152 17.4267 86.6152 17.9434C86.6152 18.46 87.0355 18.8789 87.5538 18.8789Z" fill="white" stroke="black" stroke-width="0.5" stroke-miterlimit="10"/>
<path d="M82.2667 24.0566C82.7851 24.0566 83.2053 23.6378 83.2053 23.1211C83.2053 22.6044 82.7851 22.1855 82.2667 22.1855C81.7483 22.1855 81.3281 22.6044 81.3281 23.1211C81.3281 23.6378 81.7483 24.0566 82.2667 24.0566Z" fill="white" stroke="black" stroke-width="0.5" stroke-miterlimit="10"/>
<path d="M82.2667 31.4961C82.7851 31.4961 83.2053 31.0772 83.2053 30.5605C83.2053 30.0439 82.7851 29.625 82.2667 29.625C81.7483 29.625 81.3281 30.0439 81.3281 30.5605C81.3281 31.0772 81.7483 31.4961 82.2667 31.4961Z" fill="white" stroke="black" stroke-width="0.5" stroke-miterlimit="10"/>
<path d="M87.0949 36.748C87.6132 36.748 88.0335 36.3292 88.0335 35.8125C88.0335 35.2958 87.6132 34.877 87.0949 34.877C86.5765 34.877 86.1562 35.2958 86.1562 35.8125C86.1562 36.3292 86.5765 36.748 87.0949 36.748Z" fill="white" stroke="black" stroke-width="0.5" stroke-miterlimit="10"/>
<path d="M94.6495 36.748C95.1679 36.748 95.5881 36.3292 95.5881 35.8125C95.5881 35.2958 95.1679 34.877 94.6495 34.877C94.1312 34.877 93.7109 35.2958 93.7109 35.8125C93.7109 36.3292 94.1312 36.748 94.6495 36.748Z" fill="white" stroke="black" stroke-width="0.5" stroke-miterlimit="10"/>
<path d="M94.6495 24.9922C95.1679 24.9922 95.5881 24.5733 95.5881 24.0566C95.5881 23.54 95.1679 23.1211 94.6495 23.1211C94.1312 23.1211 93.7109 23.54 93.7109 24.0566C93.7109 24.5733 94.1312 24.9922 94.6495 24.9922Z" fill="white" stroke="black" stroke-width="0.5" stroke-miterlimit="10"/>
<path d="M100.472 24.3652C100.99 24.3652 101.41 23.9464 101.41 23.4297C101.41 22.913 100.99 22.4941 100.472 22.4941C99.9534 22.4941 99.5332 22.913 99.5332 23.4297C99.5332 23.9464 99.9534 24.3652 100.472 24.3652Z" fill="white" stroke="black" stroke-width="0.5" stroke-miterlimit="10"/>
<path d="M5.5011 12.7637C6.01948 12.7637 6.43971 12.3448 6.43971 11.8281C6.43971 11.3114 6.01948 10.8926 5.5011 10.8926C4.98273 10.8926 4.5625 11.3114 4.5625 11.8281C4.5625 12.3448 4.98273 12.7637 5.5011 12.7637Z" fill="white" stroke="black" stroke-width="0.5" stroke-miterlimit="10"/>
<path d="M5.5011 18.8789C6.01948 18.8789 6.43971 18.46 6.43971 17.9434C6.43971 17.4267 6.01948 17.0078 5.5011 17.0078C4.98273 17.0078 4.5625 17.4267 4.5625 17.9434C4.5625 18.46 4.98273 18.8789 5.5011 18.8789Z" fill="white" stroke="black" stroke-width="0.5" stroke-miterlimit="10"/>
<path d="M5.5011 24.9922C6.01948 24.9922 6.43971 24.5733 6.43971 24.0566C6.43971 23.54 6.01948 23.1211 5.5011 23.1211C4.98273 23.1211 4.5625 23.54 4.5625 24.0566C4.5625 24.5733 4.98273 24.9922 5.5011 24.9922Z" fill="white" stroke="black" stroke-width="0.5" stroke-miterlimit="10"/>
<path d="M5.5011 31.1074C6.01948 31.1074 6.43971 30.6886 6.43971 30.1719C6.43971 29.6552 6.01948 29.2363 5.5011 29.2363C4.98273 29.2363 4.5625 29.6552 4.5625 30.1719C4.5625 30.6886 4.98273 31.1074 5.5011 31.1074Z" fill="white" stroke="black" stroke-width="0.5" stroke-miterlimit="10"/>
<path d="M5.5011 37.2226C6.01948 37.2226 6.43971 36.8038 6.43971 36.2871C6.43971 35.7704 6.01948 35.3516 5.5011 35.3516C4.98273 35.3516 4.5625 35.7704 4.5625 36.2871C4.5625 36.8038 4.98273 37.2226 5.5011 37.2226Z" fill="white" stroke="black" stroke-width="0.5" stroke-miterlimit="10"/>
<path d="M68.4269 6.64843C68.9453 6.64843 69.3655 6.22957 69.3655 5.71289C69.3655 5.1962 68.9453 4.77734 68.4269 4.77734C67.9085 4.77734 67.4883 5.1962 67.4883 5.71289C67.4883 6.22957 67.9085 6.64843 68.4269 6.64843Z" fill="white" stroke="black" stroke-width="0.5" stroke-miterlimit="10"/>
<path d="M68.4269 12.7637C68.9453 12.7637 69.3655 12.3448 69.3655 11.8281C69.3655 11.3114 68.9453 10.8926 68.4269 10.8926C67.9085 10.8926 67.4883 11.3114 67.4883 11.8281C67.4883 12.3448 67.9085 12.7637 68.4269 12.7637Z" fill="white" stroke="black" stroke-width="0.5" stroke-miterlimit="10"/>
<path d="M68.4269 18.8789C68.9453 18.8789 69.3655 18.46 69.3655 17.9434C69.3655 17.4267 68.9453 17.0078 68.4269 17.0078C67.9085 17.0078 67.4883 17.4267 67.4883 17.9434C67.4883 18.46 67.9085 18.8789 68.4269 18.8789Z" fill="white" stroke="black" stroke-width="0.5" stroke-miterlimit="10"/>
<path d="M68.4269 24.9922C68.9453 24.9922 69.3655 24.5733 69.3655 24.0566C69.3655 23.54 68.9453 23.1211 68.4269 23.1211C67.9085 23.1211 67.4883 23.54 67.4883 24.0566C67.4883 24.5733 67.9085 24.9922 68.4269 24.9922Z" fill="white" stroke="black" stroke-width="0.5" stroke-miterlimit="10"/>
<path d="M68.4269 31.1074C68.9453 31.1074 69.3655 30.6886 69.3655 30.1719C69.3655 29.6552 68.9453 29.2363 68.4269 29.2363C67.9085 29.2363 67.4883 29.6552 67.4883 30.1719C67.4883 30.6886 67.9085 31.1074 68.4269 31.1074Z" fill="white" stroke="black" stroke-width="0.5" stroke-miterlimit="10"/>
<path d="M68.4269 37.2226C68.9453 37.2226 69.3655 36.8038 69.3655 36.2871C69.3655 35.7704 68.9453 35.3516 68.4269 35.3516C67.9085 35.3516 67.4883 35.7704 67.4883 36.2871C67.4883 36.8038 67.9085 37.2226 68.4269 37.2226Z" fill="white" stroke="black" stroke-width="0.5" stroke-miterlimit="10"/>
<path d="M118.677 6.64843C119.195 6.64843 119.615 6.22957 119.615 5.71289C119.615 5.1962 119.195 4.77734 118.677 4.77734C118.159 4.77734 117.738 5.1962 117.738 5.71289C117.738 6.22957 118.159 6.64843 118.677 6.64843Z" fill="white" stroke="black" stroke-width="0.5" stroke-miterlimit="10"/>
<path d="M118.677 12.7637C119.195 12.7637 119.615 12.3448 119.615 11.8281C119.615 11.3114 119.195 10.8926 118.677 10.8926C118.159 10.8926 117.738 11.3114 117.738 11.8281C117.738 12.3448 118.159 12.7637 118.677 12.7637Z" fill="white" stroke="black" stroke-width="0.5" stroke-miterlimit="10"/>
<path d="M118.677 18.8789C119.195 18.8789 119.615 18.46 119.615 17.9434C119.615 17.4267 119.195 17.0078 118.677 17.0078C118.159 17.0078 117.738 17.4267 117.738 17.9434C117.738 18.46 118.159 18.8789 118.677 18.8789Z" fill="white" stroke="black" stroke-width="0.5" stroke-miterlimit="10"/>
<path d="M125.034 18.8789C125.553 18.8789 125.973 18.46 125.973 17.9434C125.973 17.4267 125.553 17.0078 125.034 17.0078C124.516 17.0078 124.096 17.4267 124.096 17.9434C124.096 18.46 124.516 18.8789 125.034 18.8789Z" fill="white" stroke="black" stroke-width="0.5" stroke-miterlimit="10"/>
<path d="M112.497 18.8789C113.016 18.8789 113.436 18.46 113.436 17.9434C113.436 17.4267 113.016 17.0078 112.497 17.0078C111.979 17.0078 111.559 17.4267 111.559 17.9434C111.559 18.46 111.979 18.8789 112.497 18.8789Z" fill="white" stroke="black" stroke-width="0.5" stroke-miterlimit="10"/>
<path d="M118.677 24.9922C119.195 24.9922 119.615 24.5733 119.615 24.0566C119.615 23.54 119.195 23.1211 118.677 23.1211C118.159 23.1211 117.738 23.54 117.738 24.0566C117.738 24.5733 118.159 24.9922 118.677 24.9922Z" fill="white" stroke="black" stroke-width="0.5" stroke-miterlimit="10"/>
<path d="M118.677 31.1074C119.195 31.1074 119.615 30.6886 119.615 30.1719C119.615 29.6552 119.195 29.2363 118.677 29.2363C118.159 29.2363 117.738 29.6552 117.738 30.1719C117.738 30.6886 118.159 31.1074 118.677 31.1074Z" fill="white" stroke="black" stroke-width="0.5" stroke-miterlimit="10"/>
<path d="M118.677 37.2226C119.195 37.2226 119.615 36.8038 119.615 36.2871C119.615 35.7704 119.195 35.3516 118.677 35.3516C118.159 35.3516 117.738 35.7704 117.738 36.2871C117.738 36.8038 118.159 37.2226 118.677 37.2226Z" fill="white" stroke="black" stroke-width="0.5" stroke-miterlimit="10"/>
</g>
<defs>
<clipPath id="clip0_1870_9555">
<rect width="161" height="42" fill="white"/>
</clipPath>
</defs>
</svg>
