<svg width="199" height="172" viewBox="0 0 199 172" fill="none" xmlns="http://www.w3.org/2000/svg">
<g clip-path="url(#clip0_2880_8300)">
<path d="M74.2698 109.371C74.7007 111.145 74.9802 112.892 75.095 114.562L73.1862 114.69C73.0825 113.128 72.8202 111.492 72.4144 109.823L74.2759 109.373L74.2698 109.371ZM74.93 119.827C74.8222 120.687 74.692 121.483 74.5737 122.183C74.5102 122.574 74.4471 122.94 74.3949 123.288C74.3094 123.839 74.2161 124.394 74.1091 124.925L72.2358 124.543C72.3363 124.036 72.4261 123.519 72.5035 123C72.5589 122.639 72.6191 122.26 72.6859 121.856C72.8074 121.144 72.9292 120.405 73.0334 119.583L74.9316 119.821L74.93 119.827ZM36.4222 116.209L36.0099 118.076C34.3685 117.716 32.7734 117.63 31.2694 117.826L31.0165 115.928C32.7469 115.7 34.5632 115.798 36.4239 116.203L36.4222 116.209ZM41.4382 118.146C42.5453 118.78 43.5273 119.514 44.3584 120.319C44.7945 120.744 45.204 121.195 45.5808 121.67L44.0805 122.854C43.7587 122.447 43.4057 122.057 43.0261 121.693C42.3114 120.998 41.4551 120.363 40.4865 119.805L41.4382 118.146ZM70.8635 129.278L72.6512 129.961C72.0311 131.589 71.2629 133.177 70.3825 134.69L68.7283 133.727C69.558 132.306 70.2817 130.811 70.8619 129.284L70.8635 129.278ZM25.8964 118.048L27.0861 119.547C25.9703 120.425 24.9202 121.63 23.9626 123.136L22.3463 122.103C23.4221 120.425 24.6134 119.059 25.8964 118.048ZM48.0651 126.501C48.5548 128.152 48.7827 129.944 48.7494 131.825L46.8379 131.788C46.8674 130.097 46.6666 128.503 46.2335 127.038L48.0713 126.503L48.0651 126.501ZM65.8934 137.773L67.376 138.988C66.2779 140.325 65.0522 141.595 63.7471 142.765L62.4652 141.34C63.6998 140.237 64.8551 139.034 65.8934 137.773ZM19.9971 126.838L21.788 127.508C21.481 128.323 21.2173 129.149 21.0016 129.968C20.799 130.738 20.6382 131.499 20.5225 132.239L18.6327 131.944C18.7584 131.141 18.9308 130.31 19.1481 129.485C19.38 128.605 19.66 127.717 19.9893 126.842L19.9971 126.838ZM48.0134 137.078L47.9647 137.263C47.5399 138.876 46.951 140.486 46.2065 142.035L44.4762 141.209C45.1669 139.765 45.7172 138.276 46.1128 136.774L46.1566 136.608L48.0134 137.078ZM58.542 144.355L59.5943 145.95C58.1244 146.919 56.5801 147.769 55.0049 148.486L54.2082 146.748C55.6931 146.073 57.1533 145.266 58.542 144.355ZM20.5747 136.955C20.9126 138.48 21.558 139.915 22.4945 141.223L20.9348 142.332C19.8491 140.814 19.1011 139.141 18.7043 137.364L20.5747 136.955ZM41.9524 145.403L43.4852 146.552C42.3574 148.053 41.1251 149.348 39.8167 150.405L39.6718 150.229L39.6056 151.107C37.8454 150.972 36.0992 150.708 34.4179 150.324L34.8426 148.46C36.1178 148.757 37.4343 148.973 38.764 149.113L38.6037 148.919C39.7871 147.96 40.9096 146.781 41.9446 145.408L41.9524 145.403ZM49.5641 148.414L50.0545 150.262C49.2594 150.474 48.4616 150.645 47.6814 150.775C46.7692 150.93 45.8142 151.046 44.852 151.115L44.7059 149.213C45.6093 149.142 46.5023 149.035 47.3586 148.892C48.0846 148.767 48.8265 148.608 49.5641 148.414ZM25.8882 144.582C27.1283 145.489 28.5632 146.282 30.1481 146.957L29.4011 148.716C27.679 147.985 26.118 147.119 24.7613 146.128L25.8866 144.588L25.8882 144.582ZM34.45 151.531L35.3603 153.214C33.8147 154.044 32.2252 154.79 30.6402 155.419L29.926 153.643C31.4457 153.036 32.9651 152.331 34.4438 151.529L34.45 151.531ZM25.1997 155.195L25.6823 157.048C23.9695 157.485 22.2395 157.812 20.5328 158L20.314 156.098C21.9261 155.918 23.5708 155.614 25.1997 155.195ZM1.14058 152.342C2.62195 153.134 4.14648 153.813 5.67713 154.369L5.02562 156.166C3.41018 155.582 1.80409 154.861 0.241157 154.027L1.14058 152.342ZM15.3593 156.286L15.2855 158.196C13.54 158.13 11.787 157.918 10.0726 157.584L10.4401 155.712C12.0525 156.032 13.7113 156.226 15.3577 156.292L15.3593 156.286Z" fill="#65B1F7"/>
</g>
<path d="M113.594 90.9671C116.112 89.0383 118.914 86.8826 122.011 84.4759L127.826 91.2681L147.195 130.969C150.54 126.977 153.001 125.035 152.043 121.374L138.914 71.449C140.261 70.425 141.644 69.3707 143.071 68.2783C157.493 57.0417 164.178 50.0965 161.829 43.4222C155.597 40.0567 147.667 45.5471 134.283 58.014C132.987 59.2416 131.727 60.4388 130.493 61.6132L83.1054 40.858C79.6392 39.3346 77.3316 41.4548 72.8463 44.1336L109.126 69.4276L114.942 76.2199C112.091 78.8957 109.501 81.3178 107.197 83.4966C103.642 86.8649 100.739 89.6779 98.4196 92.0551L79.3608 86.9286L75.8875 89.8876L92.8913 102.136L93.7009 103.731L102.359 120.805L105.833 117.846L103.73 98.2748C106.463 96.3631 109.695 93.9338 113.577 90.9658L113.594 90.9671Z" fill="#65B1F7"/>
<defs>
<clipPath id="clip0_2880_8300">
<rect width="64.0293" height="62.9934" fill="white" transform="matrix(-0.966886 -0.255208 0.25463 -0.967038 61.9092 171.258)"/>
</clipPath>
</defs>
</svg>
