<svg width="21" height="20" viewBox="0 0 21 20" fill="none" xmlns="http://www.w3.org/2000/svg">
<path d="M20.2558 15.2401C20.774 14.1652 21.0283 12.9822 20.9975 11.7894C20.9667 10.5965 20.6517 9.42821 20.0788 8.38152C19.5058 7.33483 18.6913 6.43997 17.703 5.77126C16.7147 5.10256 15.5811 4.67932 14.3964 4.5367C14.0022 3.62017 13.4291 2.7915 12.7107 2.09922C11.9922 1.40695 11.1429 0.864977 10.2123 0.505048C9.28183 0.145119 8.28884 -0.0255329 7.29155 0.00308645C6.29425 0.0317058 5.31269 0.259021 4.40434 0.67172C3.49599 1.08442 2.67911 1.67421 2.00154 2.40654C1.32397 3.13888 0.799333 3.99905 0.458343 4.93668C0.117352 5.8743 -0.0331333 6.87054 0.0156984 7.86705C0.0645301 8.86357 0.311697 9.84032 0.742727 10.7401L0.0611663 13.0567C-0.0150379 13.3153 -0.0201333 13.5896 0.0464162 13.8509C0.112966 14.1122 0.2487 14.3507 0.439339 14.5413C0.629977 14.7319 0.868473 14.8677 1.12973 14.9342C1.39099 15.0008 1.66536 14.9957 1.92397 14.9195L4.24053 14.2379C4.98437 14.5953 5.78185 14.8281 6.60115 14.927C6.99919 15.8596 7.58222 16.7018 8.31499 17.4027C9.04776 18.1036 9.91505 18.6487 10.8644 19.0049C11.8138 19.3611 12.8256 19.5211 13.8386 19.4752C14.8515 19.4293 15.8447 19.1785 16.758 18.7379L19.0745 19.4195C19.3331 19.4956 19.6073 19.5006 19.8685 19.4341C20.1296 19.3676 20.368 19.232 20.5586 19.0415C20.7492 18.851 20.885 18.6126 20.9516 18.3515C21.0183 18.0904 21.0133 17.8161 20.9373 17.5576L20.2558 15.2401ZM4.31178 12.6845C4.24011 12.6847 4.1688 12.6947 4.0999 12.7145L1.49929 13.4814L2.26522 10.8789C2.3197 10.6908 2.2985 10.489 2.20616 10.3164C1.5277 9.04754 1.32779 7.57715 1.64288 6.17325C1.95796 4.76935 2.76705 3.52541 3.92266 2.66822C5.07827 1.81102 6.50345 1.39763 7.93838 1.50342C9.37331 1.60922 10.7224 2.22713 11.7399 3.24454C12.7573 4.26194 13.3752 5.61108 13.481 7.04601C13.5868 8.48095 13.1734 9.90612 12.3162 11.0617C11.459 12.2173 10.215 13.0264 8.81114 13.3415C7.40724 13.6566 5.93685 13.4567 4.66803 12.7782C4.55892 12.7179 4.43647 12.6856 4.31178 12.6845ZM18.7295 15.3779L19.4992 17.9813L16.8967 17.2154C16.7087 17.1609 16.5068 17.1821 16.3342 17.2745C14.9531 18.0119 13.3386 18.1808 11.8348 17.7451C10.331 17.3094 9.05687 16.3035 8.28395 14.942C9.31087 14.8348 10.3045 14.5166 11.2027 14.0072C12.1008 13.4979 12.8839 12.8084 13.503 11.9821C14.1221 11.1558 14.5638 10.2105 14.8003 9.20547C15.0368 8.20043 15.063 7.15736 14.8774 6.14169C15.7721 6.3526 16.6064 6.76627 17.3159 7.35078C18.0254 7.9353 18.5911 8.67502 18.9693 9.51286C19.3476 10.3507 19.5282 11.2642 19.4974 12.183C19.4666 13.1017 19.225 14.0011 18.7914 14.8117C18.6981 14.9853 18.6769 15.1887 18.7324 15.3779H18.7295Z" fill="#00C2FF"/>
</svg>
