<svg width="361" height="55" viewBox="0 0 361 55" fill="none" xmlns="http://www.w3.org/2000/svg">
<rect width="361" height="55" rx="10" fill="#FBE84C"/>
<path d="M143.836 23.0742C143.836 26.8066 142.811 30.0059 138.258 32.2754L137.424 31.127C139.563 30.0674 140.835 28.8369 141.553 27.3672L137.711 27.7363L137.52 26.4238L142.018 26.1367C142.175 25.5625 142.271 24.9541 142.318 24.3047H138.162V23.0742H143.836ZM147.09 21.8574V26.6973H148.922V27.9414H147.09V34.1895H145.572V21.8574H147.09ZM155.936 23.0742C155.936 26.8066 154.91 30.0059 150.357 32.2754L149.523 31.127C151.663 30.0674 152.935 28.8369 153.652 27.3672L149.811 27.7363L149.619 26.4238L154.117 26.1367C154.274 25.5625 154.37 24.9541 154.418 24.3047H150.262V23.0742H155.936ZM159.189 21.8574V26.6973H161.021V27.9414H159.189V34.1895H157.672V21.8574H159.189ZM167.229 22.5547C169.881 22.5547 171.836 23.8809 171.836 25.8906C171.836 27.7432 170.243 28.9805 167.98 29.1992V31.4688H172.902V32.7129H161.609V31.4688H166.477V29.1992C164.228 28.9805 162.635 27.7432 162.648 25.8906C162.635 23.8809 164.59 22.5547 167.229 22.5547ZM167.229 23.7852C165.424 23.7715 164.125 24.5918 164.139 25.8906C164.125 27.2305 165.424 28.0234 167.229 28.0234C169.061 28.0234 170.346 27.2305 170.346 25.8906C170.346 24.5918 169.061 23.7715 167.229 23.7852ZM185.002 31.5234V32.7812H173.709V31.5234H178.576V29.5137H175.049V25.4668H182.158V23.9355H175.021V22.7051H183.662V26.6699H176.566V28.2695H183.949V29.5137H180.08V31.5234H185.002ZM199.795 21.8574V34.2168H198.346V21.8574H199.795ZM197.238 22.1582V33.6289H195.789V29.5H193.861V28.2559H195.789V26.4238H194.08C193.499 28.4746 192.207 30.2383 189.896 31.6055L189.008 30.5254C191.571 29.0146 192.747 27.0801 192.973 24.5918H189.664V23.3613H194.477C194.477 23.9834 194.436 24.5918 194.354 25.1797H195.789V22.1582H197.238ZM212.496 27.9277V29.1582H201.23V27.9277H206.098V26.2051H207.602V27.9277H212.496ZM207.615 22.5273C207.615 24.0312 209.27 25.3984 211.854 25.7266L211.266 26.916C209.235 26.6016 207.622 25.6855 206.836 24.3867C206.043 25.6855 204.43 26.6016 202.393 26.916L201.846 25.7266C204.389 25.3984 206.07 24.0039 206.07 22.5273V22.0625H207.615V22.5273ZM211.115 30.1426V34.2168H209.598V31.332H202.475V30.1426H211.115ZM223.01 21.8574V26.7793H224.91V28.0371H223.01V34.2168H221.506V21.8574H223.01ZM220.549 23.7578V24.9746H213.262V23.7578H216.188V22.0352H217.705V23.7578H220.549ZM216.953 25.7812C218.73 25.7812 220.057 26.9844 220.057 28.6934C220.057 30.4023 218.73 31.5918 216.953 31.5918C215.148 31.5918 213.822 30.4023 213.836 28.6934C213.822 26.9844 215.148 25.7812 216.953 25.7812ZM216.953 27.0254C215.982 27.0254 215.285 27.6816 215.285 28.6934C215.285 29.7051 215.982 30.3477 216.953 30.334C217.896 30.3477 218.594 29.7051 218.607 28.6934C218.594 27.6816 217.896 27.0254 216.953 27.0254ZM235.752 21.8574V34.2168H234.221V21.8574H235.752ZM232.061 23.1699C232.061 26.8477 230.639 29.9785 226.305 32.0293L225.512 30.8125C228.745 29.2744 230.249 27.1826 230.516 24.373H226.141V23.1699H232.061Z" fill="black"/>
<g clip-path="url(#clip0_2663_7582)">
<path d="M123.997 20.5625C119.581 20.5625 116 23.4035 116 26.9094C116 29.1762 117.496 31.1619 119.749 32.2892L118.938 35.2058C118.938 35.2058 118.923 35.3418 119.01 35.3932C119.097 35.4446 119.202 35.4053 119.202 35.4053C119.455 35.369 122.116 33.4861 122.582 33.1597C123.042 33.2262 123.519 33.2594 124.003 33.2594C128.419 33.2594 132 30.4184 132 26.9125C132 23.4065 128.413 20.5625 123.997 20.5625Z" fill="black"/>
</g>
<defs>
<clipPath id="clip0_2663_7582">
<rect width="16" height="16" fill="white" transform="translate(116 20)"/>
</clipPath>
</defs>
</svg>
