<svg width="76" height="30" viewBox="0 0 76 30" fill="none" xmlns="http://www.w3.org/2000/svg">
<path d="M74.5091 0.894531H1.31592V29.1056H74.5091V0.894531Z" fill="#8ED6FF"/>
<path d="M75.403 30H0.420898V0H75.403V30ZM2.20981 28.2111H73.6141V1.78891H2.20981V28.2111Z" fill="#E5E5E6"/>
<path d="M34.2585 11.7455H33.1941L32.6395 8.93696H32.6306L32.076 11.7455H30.9937L29.8936 7.67578H30.958L31.5304 10.6543H31.5394L32.1386 7.67578H33.1404L33.7397 10.6543H33.7487L34.3211 7.67578H35.3855L34.2585 11.7455Z" fill="black"/>
<path d="M35.7427 7.67578H38.9895V8.52551H36.8071V9.24108H38.8017V10.064H36.8071V10.8421H39.0522V11.7545H35.7516V7.68473L35.7427 7.67578Z" fill="black"/>
<path d="M39.6523 7.67578H40.7167V10.8332H42.613V11.7455H39.6523V7.67578Z" fill="black"/>
<path d="M45.8421 9.12245C45.7884 8.711 45.4664 8.49633 45.0192 8.49633C44.3394 8.49633 44.0711 9.10456 44.0711 9.70384C44.0711 10.3031 44.3305 10.9114 45.0192 10.9114C45.5201 10.9114 45.7974 10.6251 45.8421 10.16H46.9065C46.8528 11.2065 46.0836 11.8237 45.046 11.8237C43.8117 11.8237 43.0156 10.8845 43.0156 9.70384C43.0156 8.52316 43.8117 7.58398 45.046 7.58398C45.9226 7.58398 46.8797 8.13855 46.9065 9.12245H45.8421Z" fill="black"/>
<path d="M49.3216 7.58398C50.6007 7.58398 51.3341 8.52316 51.3341 9.70384C51.3341 10.8845 50.6096 11.8237 49.3216 11.8237C48.0336 11.8237 47.3091 10.8845 47.3091 9.70384C47.3091 8.52316 48.0336 7.58398 49.3216 7.58398ZM49.3216 10.9203C50.0014 10.9203 50.2697 10.3121 50.2697 9.71279C50.2697 9.1135 50.0103 8.50527 49.3216 8.50527C48.6329 8.50527 48.3735 9.1135 48.3735 9.71279C48.3735 10.3121 48.6329 10.9203 49.3216 10.9203Z" fill="black"/>
<path d="M51.9061 7.67578H53.4714L54.169 10.3949H54.178L54.8757 7.67578H56.441V11.7455H55.4392V8.65074H55.4302L54.5715 11.7455H53.7576L52.8989 8.65074H52.89V11.7455H51.8882V7.67578H51.9061Z" fill="black"/>
<path d="M57.1836 7.67578H60.4305V8.52551H58.248V9.24108H60.2426V10.064H58.248V10.8421H60.4931V11.7545H57.1925V7.68473L57.1836 7.67578Z" fill="black"/>
<path d="M66.1184 8.58812H64.9019V11.7455H63.8376V8.58812H62.6211V7.67578H66.1095V8.58812H66.1184Z" fill="black"/>
<path d="M68.4451 7.58398C69.7242 7.58398 70.4577 8.52316 70.4577 9.70384C70.4577 10.8845 69.7332 11.8237 68.4451 11.8237C67.1571 11.8237 66.4326 10.8845 66.4326 9.70384C66.4326 8.52316 67.1571 7.58398 68.4451 7.58398ZM68.4451 10.9203C69.1249 10.9203 69.3933 10.3121 69.3933 9.71279C69.3933 9.1135 69.1339 8.50527 68.4451 8.50527C67.7564 8.50527 67.497 9.1135 67.497 9.71279C67.497 10.3121 67.7564 10.9203 68.4451 10.9203Z" fill="black"/>
<path d="M26.387 1.93945H2.35303V28.0665H26.387V1.93945Z" fill="white"/>
<path d="M20.9053 18.7809L16.9339 18.8435C16.5941 18.2621 16.1737 17.5733 15.6459 16.7415C15.306 16.2048 14.9125 15.5966 14.4921 14.9347L15.959 13.8971L24.2685 10.7397C23.5261 9.99732 23.1772 9.46959 22.4259 9.59482L12.1754 11.3122C11.9876 11.017 11.8087 10.7397 11.6119 10.4267C9.61731 7.33185 8.33824 5.86494 6.96078 6.22272C6.17366 7.41235 7.13967 9.09392 9.3937 12.0009C9.62625 12.2961 9.83198 12.5465 10.0466 12.8238L5.04665 21.9293C4.67992 22.6002 5.06454 23.1011 5.52071 24.0403L11.2363 17.2335L12.7032 16.1959C13.1862 16.8041 13.6334 17.3855 14.027 17.8775C14.6441 18.6556 15.154 19.2818 15.5923 19.7916L14.2238 23.5125L14.7604 24.2639L17.2917 21.3479C17.4706 21.4284 17.6406 21.4732 17.7837 21.4553C17.8552 21.3211 17.8642 21.1512 17.8463 20.9544L21.4331 19.5322L20.8964 18.7809H20.9053Z" fill="#8ED6FF"/>
<path d="M14.7512 24.4537L14.1072 23.5414L15.4757 19.8204C15.0732 19.3464 14.5812 18.756 13.9551 17.96C13.5794 17.4859 13.1501 16.9403 12.6939 16.3589L11.3254 17.3249L5.5025 24.248L5.43094 24.0959C5.35939 23.9528 5.28783 23.8097 5.22522 23.6845C4.87638 22.9958 4.61699 22.4949 4.95688 21.8777L9.9211 12.8348L9.31287 12.0655C7.03202 9.14066 6.03023 7.41436 6.87101 6.15318L6.89785 6.1174H6.94257C8.42736 5.73279 9.70643 7.24442 11.719 10.3661L12.2467 11.189L22.4256 9.48055C23.1143 9.36427 23.5079 9.76678 24.0445 10.3303C24.1429 10.4287 24.2503 10.545 24.3665 10.6523L24.4918 10.7775L16.0302 13.9886L14.6617 14.9546C15.0642 15.5718 15.4309 16.1621 15.7529 16.672C16.2896 17.5217 16.6921 18.1746 17.0141 18.7292L20.9766 18.6666L21.6295 19.5789L17.9891 21.028C17.998 21.2247 17.9712 21.3768 17.9086 21.511L17.8817 21.5646H17.8191C17.6671 21.5915 17.515 21.5646 17.3361 21.4931L14.769 24.4537H14.7512ZM14.3576 23.5056L14.769 24.087L17.2556 21.2158L17.3361 21.2516C17.4792 21.3231 17.6045 21.35 17.7118 21.35C17.7476 21.2516 17.7565 21.1263 17.7386 20.9653V20.8848L21.2628 19.4806L20.8513 18.8992L16.88 18.9618L16.8442 18.9081C16.5222 18.3535 16.1107 17.6827 15.5562 16.8061C15.2163 16.2695 14.8227 15.6612 14.4023 14.9993L14.3487 14.9099L15.9229 13.7918L24.0714 10.697C23.9998 10.6255 23.9372 10.5539 23.8746 10.4913C23.3469 9.94567 23.0249 9.61472 22.4524 9.70417L12.1304 11.4394L11.5311 10.4913C9.64382 7.56642 8.3737 6.02796 7.04096 6.32313C6.3254 7.46803 7.35402 9.18538 9.50071 11.9403L10.1984 12.8258L5.16261 22.0029C4.88532 22.5128 5.09105 22.9242 5.43094 23.604C5.47566 23.6845 5.52039 23.7739 5.56511 23.8634L11.1912 17.1729L12.7476 16.0727L12.8102 16.1532C13.2932 16.7614 13.7404 17.3428 14.134 17.8348C14.7869 18.6577 15.2878 19.2659 15.6993 19.7399L15.744 19.7936L14.3755 23.5235L14.3576 23.5056Z" fill="black"/>
<path d="M47.7388 15.3477C47.2111 15.3477 46.7817 15.777 46.7817 16.3047C46.7817 16.5015 46.8444 16.6893 46.9427 16.8414C46.8354 16.9935 46.7817 17.1813 46.7817 17.3781C46.7817 17.5748 46.8444 17.7627 46.9427 17.9147C46.8354 18.0668 46.7817 18.2546 46.7817 18.4514C46.7817 18.6482 46.8444 18.836 46.9427 18.9881C46.8354 19.1401 46.7817 19.328 46.7817 19.5248C46.7817 19.7215 46.8444 19.9094 46.9427 20.0614C46.8354 20.2135 46.7817 20.4013 46.7817 20.5981C46.7817 20.7949 46.8444 20.9827 46.9427 21.1348C46.8354 21.2868 46.7817 21.4747 46.7817 21.6714C46.7817 22.1992 47.2111 22.6285 47.7388 22.6285C48.2665 22.6285 48.6959 22.1992 48.6959 21.6714C48.6959 21.4747 48.6333 21.2868 48.5349 21.1348C48.6422 20.9827 48.6959 20.7949 48.6959 20.5981C48.6959 20.4013 48.6333 20.2135 48.5349 20.0614C48.6422 19.9094 48.6959 19.7215 48.6959 19.5248C48.6959 19.328 48.6333 19.1401 48.5349 18.9881C48.6422 18.836 48.6959 18.6482 48.6959 18.4514C48.6959 18.2546 48.6333 18.0668 48.5349 17.9147C48.6422 17.7627 48.6959 17.5748 48.6959 17.3781C48.6959 17.1813 48.6333 16.9935 48.5349 16.8414C48.6422 16.6893 48.6959 16.5015 48.6959 16.3047C48.6959 15.777 48.2665 15.3477 47.7388 15.3477Z" fill="white"/>
<path d="M47.7386 22.6935C47.1751 22.6935 46.71 22.2284 46.71 21.6649C46.71 21.477 46.7636 21.2892 46.862 21.1282C46.7636 20.9672 46.71 20.7794 46.71 20.5915C46.71 20.4037 46.7636 20.2159 46.862 20.0549C46.7636 19.8939 46.71 19.706 46.71 19.5182C46.71 19.3304 46.7636 19.1425 46.862 18.9815C46.7636 18.8205 46.71 18.6327 46.71 18.4448C46.71 18.257 46.7636 18.0692 46.862 17.9082C46.7636 17.7472 46.71 17.5593 46.71 17.3715C46.71 17.1837 46.7636 16.9958 46.862 16.8348C46.7636 16.6738 46.71 16.486 46.71 16.2982C46.71 15.7346 47.1751 15.2695 47.7386 15.2695C48.3021 15.2695 48.7672 15.7346 48.7672 16.2982C48.7672 16.486 48.7135 16.6738 48.6151 16.8348C48.7135 16.9958 48.7672 17.1837 48.7672 17.3715C48.7672 17.5593 48.7135 17.7472 48.6151 17.9082C48.7135 18.0692 48.7672 18.257 48.7672 18.4448C48.7672 18.6327 48.7135 18.8205 48.6151 18.9815C48.7135 19.1425 48.7672 19.3304 48.7672 19.5182C48.7672 19.706 48.7135 19.8939 48.6151 20.0549C48.7135 20.2159 48.7672 20.4037 48.7672 20.5915C48.7672 20.7794 48.7135 20.9672 48.6151 21.1282C48.7135 21.2892 48.7672 21.477 48.7672 21.6649C48.7672 22.2284 48.3021 22.6935 47.7386 22.6935ZM47.7386 15.4216C47.2466 15.4216 46.8441 15.8241 46.8441 16.316C46.8441 16.4949 46.8978 16.6649 46.9962 16.8169L47.023 16.8527L46.9962 16.8885C46.8978 17.0316 46.8441 17.2105 46.8441 17.3894C46.8441 17.5683 46.8978 17.7382 46.9962 17.8903L47.023 17.9261L46.9962 17.9618C46.8978 18.105 46.8441 18.2838 46.8441 18.4627C46.8441 18.6416 46.8978 18.8116 46.9962 18.9636L47.023 18.9994L46.9962 19.0352C46.8978 19.1783 46.8441 19.3572 46.8441 19.5361C46.8441 19.715 46.8978 19.8849 46.9962 20.037L47.023 20.0728L46.9962 20.1085C46.8978 20.2516 46.8441 20.4305 46.8441 20.6094C46.8441 20.7883 46.8978 20.9583 46.9962 21.1103L47.023 21.1461L46.9962 21.1819C46.8978 21.325 46.8441 21.5039 46.8441 21.6828C46.8441 22.1747 47.2466 22.5772 47.7386 22.5772C48.2305 22.5772 48.633 22.1747 48.633 21.6828C48.633 21.5039 48.5794 21.3339 48.481 21.1819L48.4541 21.1461L48.481 21.1103C48.5794 20.9583 48.633 20.7883 48.633 20.6094C48.633 20.4305 48.5794 20.2606 48.481 20.1085L48.4541 20.0728L48.481 20.037C48.5794 19.8849 48.633 19.715 48.633 19.5361C48.633 19.3572 48.5794 19.1872 48.481 19.0352L48.4541 18.9994L48.481 18.9636C48.5794 18.8116 48.633 18.6416 48.633 18.4627C48.633 18.2838 48.5794 18.1139 48.481 17.9618L48.4541 17.9261L48.481 17.8903C48.5794 17.7382 48.633 17.5683 48.633 17.3894C48.633 17.2105 48.5794 17.0406 48.481 16.8885L48.4541 16.8527L48.481 16.8169C48.5794 16.6649 48.633 16.4949 48.633 16.316C48.633 15.8241 48.2305 15.4216 47.7386 15.4216Z" fill="black"/>
<path d="M57.5683 17.4943C57.5683 17.4943 57.4967 17.4943 57.461 17.4943C57.461 17.4586 57.461 17.4138 57.461 17.3781C57.461 17.1813 57.3983 16.9935 57.3 16.8414C57.4073 16.6893 57.461 16.5015 57.461 16.3047C57.461 15.777 57.0316 15.3477 56.5039 15.3477C55.9762 15.3477 55.5468 15.777 55.5468 16.3047C55.5468 16.5015 55.6094 16.6893 55.7078 16.8414C55.6005 16.9935 55.5468 17.1813 55.5468 17.3781C55.5468 17.4138 55.5468 17.4586 55.5468 17.4943C55.511 17.4943 55.4753 17.4943 55.4395 17.4943C54.9118 17.4943 54.4824 17.9237 54.4824 18.4514C54.4824 18.9791 54.9118 19.4085 55.4395 19.4085C55.4753 19.4085 55.511 19.4085 55.5468 19.4085C55.5468 19.4443 55.5468 19.489 55.5468 19.5248C55.5468 19.7215 55.6094 19.9094 55.7078 20.0614C55.6005 20.2135 55.5468 20.4013 55.5468 20.5981C55.5468 20.7949 55.6094 20.9827 55.7078 21.1348C55.6005 21.2868 55.5468 21.4747 55.5468 21.6714C55.5468 22.1992 55.9762 22.6285 56.5039 22.6285C57.0316 22.6285 57.461 22.1992 57.461 21.6714C57.461 21.4747 57.3983 21.2868 57.3 21.1348C57.4073 20.9827 57.461 20.7949 57.461 20.5981C57.461 20.4013 57.3983 20.2135 57.3 20.0614C57.4073 19.9094 57.461 19.7215 57.461 19.5248C57.461 19.489 57.461 19.4443 57.461 19.4085C57.4967 19.4085 57.5325 19.4085 57.5683 19.4085C58.096 19.4085 58.5254 18.9791 58.5254 18.4514C58.5254 17.9237 58.096 17.4943 57.5683 17.4943Z" fill="white"/>
<path d="M56.5037 22.6935C55.9402 22.6935 55.475 22.2284 55.475 21.6649C55.475 21.477 55.5287 21.2892 55.6271 21.1282C55.5287 20.9672 55.475 20.7794 55.475 20.5915C55.475 20.4037 55.5287 20.2159 55.6271 20.0549C55.5287 19.8939 55.475 19.706 55.475 19.5182C55.475 19.5003 55.475 19.4914 55.475 19.4735C55.4661 19.4735 55.4482 19.4735 55.4393 19.4735C54.8758 19.4735 54.4106 19.0083 54.4106 18.4448C54.4106 17.8813 54.8758 17.4162 55.4393 17.4162C55.4482 17.4162 55.4661 17.4162 55.475 17.4162C55.475 17.3983 55.475 17.3894 55.475 17.3715C55.475 17.1837 55.5287 16.9958 55.6271 16.8348C55.5287 16.6738 55.475 16.486 55.475 16.2982C55.475 15.7346 55.9402 15.2695 56.5037 15.2695C57.0672 15.2695 57.5323 15.7346 57.5323 16.2982C57.5323 16.486 57.4786 16.6738 57.3802 16.8348C57.4786 16.9958 57.5323 17.1837 57.5323 17.3715C57.5323 17.3894 57.5323 17.3983 57.5323 17.4162C57.5412 17.4162 57.5591 17.4162 57.5681 17.4162C58.1316 17.4162 58.5967 17.8813 58.5967 18.4448C58.5967 19.0083 58.1316 19.4735 57.5681 19.4735C57.5591 19.4735 57.5412 19.4735 57.5323 19.4735C57.5323 19.4914 57.5323 19.5003 57.5323 19.5182C57.5323 19.706 57.4786 19.8939 57.3802 20.0549C57.4786 20.2159 57.5323 20.4037 57.5323 20.5915C57.5323 20.7794 57.4786 20.9672 57.3802 21.1282C57.4786 21.2892 57.5323 21.477 57.5323 21.6649C57.5323 22.2284 57.0672 22.6935 56.5037 22.6935ZM55.6271 19.3304V19.4109C55.6271 19.4109 55.6092 19.4824 55.6092 19.5182C55.6092 19.6971 55.6629 19.867 55.7613 20.0191L55.7881 20.0549L55.7613 20.0906C55.6629 20.2338 55.6092 20.4126 55.6092 20.5915C55.6092 20.7704 55.6629 20.9404 55.7613 21.0924L55.7881 21.1282L55.7613 21.164C55.6629 21.3071 55.6092 21.486 55.6092 21.6649C55.6092 22.1568 56.0117 22.5593 56.5037 22.5593C56.9956 22.5593 57.3981 22.1568 57.3981 21.6649C57.3981 21.486 57.3445 21.316 57.2461 21.164L57.2192 21.1282L57.2461 21.0924C57.3445 20.9493 57.3981 20.7704 57.3981 20.5915C57.3981 20.4126 57.3445 20.2427 57.2461 20.0906L57.2192 20.0549L57.2461 20.0191C57.3445 19.876 57.3981 19.6971 57.3981 19.5182C57.3981 19.4824 57.3981 19.4466 57.3981 19.4109V19.3304L57.4697 19.3393C57.5055 19.3393 57.5412 19.3393 57.577 19.3393C58.069 19.3393 58.4715 18.9368 58.4715 18.4448C58.4715 17.9529 58.069 17.5504 57.577 17.5504C57.5412 17.5504 57.5055 17.5504 57.4697 17.5504H57.3892L57.3981 17.4788C57.3981 17.4431 57.3981 17.4073 57.3981 17.3715C57.3981 17.1926 57.3445 17.0227 57.2461 16.8706L57.2192 16.8348L57.2461 16.799C57.3445 16.6559 57.3981 16.477 57.3981 16.2982C57.3981 15.8062 56.9956 15.4037 56.5037 15.4037C56.0117 15.4037 55.6092 15.8062 55.6092 16.2982C55.6092 16.477 55.6629 16.647 55.7613 16.799L55.7881 16.8348L55.7613 16.8706C55.6629 17.0137 55.6092 17.1926 55.6092 17.3715C55.6092 17.4073 55.6092 17.4431 55.6092 17.4788V17.5593L55.5377 17.5504C55.5019 17.5504 55.4661 17.5504 55.4303 17.5504C54.9384 17.5504 54.5359 17.9529 54.5359 18.4448C54.5359 18.9368 54.9384 19.3393 55.4303 19.3393C55.4661 19.3393 55.5019 19.3393 55.5377 19.3393H55.6182L55.6271 19.3304Z" fill="black"/>
<path d="M40.8064 19.0535C40.6632 18.6957 40.3323 18.481 39.9745 18.4542C39.9566 18.0964 39.742 17.7565 39.3931 17.6134C39.0443 17.4613 38.6507 17.5418 38.3824 17.7833C38.2124 17.6223 37.9888 17.5329 37.7563 17.5329C37.7563 17.4882 37.7652 17.4435 37.7652 17.3898C37.7652 17.193 37.7026 17.0052 37.6042 16.8531C37.7115 16.7011 37.7652 16.5132 37.7652 16.3164C37.7652 15.7887 37.3359 15.3594 36.8081 15.3594C36.2804 15.3594 35.8511 15.7887 35.8511 16.3164C35.8511 16.5132 35.9137 16.7011 36.0121 16.8531C35.9047 17.0052 35.8511 17.193 35.8511 17.3898C35.8511 17.5866 35.9137 17.7744 36.0121 17.9265C35.9047 18.0785 35.8511 18.2664 35.8511 18.4631C35.8511 18.6331 35.8958 18.7941 35.9763 18.9372C35.9584 18.964 35.9495 18.9909 35.9316 19.0177C35.8779 19.1429 35.8511 19.2681 35.86 19.4023C35.86 19.447 35.8511 19.4918 35.8511 19.5275C35.8511 19.7243 35.9137 19.9121 36.0121 20.0642C35.9047 20.2163 35.8511 20.4041 35.8511 20.6009C35.8511 20.6098 35.8511 20.6277 35.8511 20.6367C35.8511 20.7708 35.869 20.905 35.9226 21.0392C35.9405 21.0839 35.9674 21.1286 35.9942 21.1733C35.9047 21.3164 35.8511 21.4864 35.8511 21.6653C35.8511 22.193 36.2804 22.6223 36.8081 22.6223C36.996 22.6223 37.1749 22.5687 37.3269 22.4703C37.3269 22.4703 37.3269 22.4703 37.3359 22.4703C37.6847 22.6223 38.0783 22.5418 38.3466 22.3003C38.6149 22.5418 38.9996 22.6313 39.3573 22.4792C39.7151 22.3361 39.9298 22.0052 39.9566 21.6474C40.3144 21.6295 40.6543 21.4148 40.7974 21.066C40.9495 20.7172 40.869 20.3236 40.6275 20.0553C40.869 19.7869 40.9584 19.4023 40.8064 19.0445V19.0535ZM38.3466 20.8871C38.2661 20.8155 38.1767 20.7529 38.0693 20.7082C37.962 20.6635 37.8547 20.6367 37.7473 20.6367C37.7473 20.6277 37.7473 20.6188 37.7473 20.6009C37.7473 20.4041 37.6847 20.2163 37.5863 20.0642C37.6937 19.9121 37.7473 19.7243 37.7473 19.5275C37.7473 19.5007 37.7473 19.4739 37.7473 19.447C37.8547 19.447 37.962 19.4202 38.0693 19.3755C38.1767 19.3308 38.2661 19.2771 38.3466 19.2055C38.4271 19.2771 38.5166 19.3397 38.6239 19.3844C38.7312 19.4291 38.8386 19.456 38.9459 19.456C38.9459 19.5633 38.9727 19.6706 39.0174 19.778C39.0622 19.8853 39.1158 19.9748 39.1874 20.0553C39.1158 20.1358 39.0532 20.2252 39.0085 20.3325C38.9638 20.4399 38.9369 20.5472 38.9369 20.6545C38.8296 20.6545 38.7223 20.6814 38.6149 20.7261C38.5076 20.7708 38.4182 20.8245 38.3377 20.896L38.3466 20.8871Z" fill="white"/>
<path d="M36.7994 22.6943C36.2359 22.6943 35.7707 22.2292 35.7707 21.6657C35.7707 21.4958 35.8155 21.3258 35.896 21.1738C35.8781 21.138 35.8602 21.1022 35.8423 21.0664C35.7886 20.9322 35.7618 20.7802 35.7707 20.6371C35.7707 20.6371 35.7707 20.6192 35.7707 20.6013C35.7707 20.4135 35.8244 20.2256 35.9228 20.0646C35.8244 19.9036 35.7707 19.7247 35.7707 19.528C35.7707 19.4832 35.7707 19.4385 35.7797 19.3848C35.7797 19.2596 35.8065 19.1165 35.8602 18.9823C35.8602 18.9644 35.8781 18.9466 35.887 18.9287C35.8065 18.7856 35.7707 18.6156 35.7707 18.4546C35.7707 18.2668 35.8244 18.0789 35.9228 17.9179C35.8244 17.7569 35.7707 17.578 35.7707 17.3813C35.7707 17.1845 35.8244 17.0056 35.9228 16.8446C35.8244 16.6836 35.7707 16.5047 35.7707 16.3079C35.7707 15.7444 36.2359 15.2793 36.7994 15.2793C37.3629 15.2793 37.828 15.7444 37.828 16.3079C37.828 16.4958 37.7743 16.6836 37.6759 16.8446C37.7743 17.0056 37.828 17.1934 37.828 17.3813C37.828 17.4081 37.828 17.4349 37.828 17.4618C38.0337 17.4797 38.2215 17.5602 38.3825 17.6854C38.6777 17.4528 39.0713 17.3992 39.4201 17.5423C39.769 17.6854 40.0015 18.0163 40.0373 18.3831C40.404 18.4278 40.735 18.6693 40.8691 19.0181C41.0122 19.367 40.9496 19.7695 40.7171 20.0557C40.9496 20.3509 41.0033 20.7534 40.8602 21.0933C40.7171 21.4421 40.3861 21.6746 40.0194 21.7104C39.9747 22.0771 39.7332 22.4081 39.3843 22.5423C39.0355 22.6854 38.6419 22.6228 38.3468 22.3813C38.0605 22.6049 37.667 22.6675 37.336 22.5333C37.175 22.6317 36.9961 22.6764 36.8083 22.6764L36.7994 22.6943ZM36.7994 15.4224C36.3074 15.4224 35.9049 15.8249 35.9049 16.3169C35.9049 16.4958 35.9586 16.6657 36.057 16.8178L36.0838 16.8535L36.057 16.8893C35.9586 17.0324 35.9049 17.2113 35.9049 17.3902C35.9049 17.5691 35.9586 17.739 36.057 17.8911L36.0838 17.9269L36.057 17.9627C35.9586 18.1058 35.9049 18.2847 35.9049 18.4636C35.9049 18.6156 35.9407 18.7677 36.0212 18.9018L36.0391 18.9376L36.0212 18.9734C36.0212 18.9734 35.9944 19.0271 35.9854 19.0539C35.9407 19.1702 35.9139 19.2865 35.9139 19.4117C35.9139 19.4653 35.9049 19.5011 35.9049 19.5458C35.9049 19.7247 35.9586 19.8947 36.057 20.0467L36.0838 20.0825L36.057 20.1183C35.9586 20.2614 35.9049 20.4403 35.9049 20.6192C35.9049 20.6281 35.9049 20.6371 35.9049 20.655C35.9049 20.7891 35.9228 20.9233 35.9675 21.0396C35.9854 21.0754 36.0033 21.1201 36.0301 21.1648L36.048 21.2006L36.0301 21.2364C35.9496 21.3705 35.9049 21.5315 35.9049 21.6925C35.9049 22.1845 36.3074 22.587 36.7994 22.587C36.9693 22.587 37.1393 22.5333 37.2824 22.4439L37.3181 22.426L37.3539 22.4439C37.6759 22.578 38.0427 22.5154 38.302 22.2918L38.3468 22.256L38.3915 22.3008C38.6419 22.5333 39.0176 22.6049 39.3307 22.4707C39.6437 22.3455 39.8673 22.0414 39.8852 21.6925V21.6299H39.9478C40.2877 21.612 40.6008 21.4063 40.735 21.0843C40.8691 20.7712 40.8065 20.3956 40.5829 20.1451L40.5471 20.1004L40.5829 20.0557C40.8155 19.8052 40.8781 19.4385 40.7529 19.1165C40.6276 18.8034 40.3146 18.5798 39.9747 18.5619H39.9121V18.4993C39.8942 18.1594 39.6884 17.8464 39.3664 17.7122C39.0534 17.578 38.6777 17.6407 38.4273 17.8732L38.3825 17.909L38.3378 17.8643C38.1768 17.7212 37.9711 17.6317 37.7564 17.6317H37.6849L37.6938 17.5602C37.6938 17.5154 37.7028 17.4707 37.7028 17.426C37.7028 17.2471 37.6491 17.0772 37.5507 16.9251L37.5239 16.8893L37.5507 16.8535C37.6491 16.7104 37.7028 16.5315 37.7028 16.3526C37.7028 15.8607 37.3003 15.4582 36.8083 15.4582L36.7994 15.4224ZM38.3468 20.977L38.302 20.9322C38.2305 20.8607 38.141 20.807 38.0427 20.7623C37.9532 20.7265 37.8459 20.6997 37.7475 20.6907H37.6849V20.6281C37.6849 20.6281 37.6849 20.6102 37.6849 20.6013C37.6849 20.4135 37.6312 20.2435 37.5328 20.0915L37.506 20.0557L37.5328 20.0199C37.6312 19.8768 37.6849 19.6979 37.6849 19.519C37.6849 19.4832 37.6849 19.4564 37.6849 19.4296V19.367H37.7475C37.8548 19.367 37.9532 19.3401 38.0427 19.3043C38.141 19.2686 38.2215 19.2149 38.302 19.1433L38.3468 19.0986L38.3915 19.1433C38.472 19.2149 38.5525 19.2686 38.6509 19.3133C38.7403 19.3491 38.8477 19.3759 38.9461 19.3848H39.0087V19.4475C39.0087 19.5458 39.0355 19.6532 39.0713 19.7426C39.1071 19.8321 39.1607 19.9215 39.2323 20.002L39.277 20.0467L39.2323 20.0915C39.1607 20.163 39.1071 20.2525 39.0713 20.3509C39.0355 20.4403 39.0087 20.5476 38.9997 20.646V20.7086H38.9371C38.8298 20.7086 38.7314 20.7355 38.6419 20.7712C38.5525 20.807 38.463 20.8607 38.3825 20.9322L38.3378 20.968L38.3468 20.977ZM37.828 20.5745C37.9264 20.5834 38.0158 20.6102 38.1053 20.646C38.1947 20.6818 38.2752 20.7355 38.3557 20.7981C38.4362 20.7355 38.5167 20.6907 38.6062 20.646C38.6956 20.6102 38.794 20.5834 38.8924 20.5745C38.9013 20.4761 38.9282 20.3866 38.9639 20.2882C38.9997 20.1988 39.0534 20.1183 39.116 20.0378C39.0534 19.9573 39.0087 19.8768 38.9639 19.7873C38.9282 19.6979 38.9013 19.5995 38.8924 19.5011C38.794 19.4922 38.6956 19.4653 38.6062 19.4296C38.5167 19.3938 38.4362 19.3401 38.3557 19.2775C38.2752 19.3401 38.1947 19.3848 38.1053 19.4296C38.0158 19.4653 37.9174 19.4922 37.819 19.5011C37.819 19.5011 37.819 19.5101 37.819 19.519C37.819 19.7158 37.7654 19.9036 37.667 20.0646C37.7654 20.2167 37.8101 20.3956 37.819 20.5745H37.828Z" fill="black"/>
<path d="M46.2721 19.0532C46.129 18.6954 45.798 18.4807 45.4402 18.4539C45.4223 18.0961 45.2077 17.7562 44.8588 17.6131C44.51 17.47 44.1164 17.5416 43.8481 17.7831C43.5798 17.5416 43.1951 17.4521 42.8374 17.6042C42.4796 17.7473 42.2649 18.0782 42.2381 18.436C41.8803 18.4539 41.5404 18.6686 41.3973 19.0174C41.2452 19.3662 41.3257 19.7598 41.5672 20.0281C41.3257 20.2965 41.2363 20.6811 41.3883 21.0389C41.5315 21.3967 41.8624 21.6113 42.2202 21.6382C42.2381 21.9959 42.4527 22.3358 42.8016 22.4789C43.1504 22.631 43.544 22.5505 43.8123 22.309C44.0807 22.5505 44.4653 22.6399 44.8231 22.4879C45.1808 22.3448 45.3955 22.0138 45.4223 21.656C45.7801 21.6382 46.12 21.4235 46.2631 21.0747C46.4152 20.7258 46.3347 20.3323 46.0932 20.0639C46.3347 19.7956 46.4241 19.411 46.2721 19.0532ZM43.8213 20.8868C43.7408 20.8153 43.6513 20.7526 43.544 20.7079C43.4366 20.6632 43.3293 20.6364 43.222 20.6364C43.222 20.529 43.1951 20.4217 43.1504 20.3144C43.1057 20.207 43.052 20.1176 42.9805 20.0371C43.052 19.9566 43.1146 19.8671 43.1594 19.7598C43.2041 19.6525 43.2309 19.5451 43.2309 19.4378C43.3383 19.4378 43.4456 19.411 43.5529 19.3662C43.6603 19.3215 43.7497 19.2679 43.8302 19.1963C43.9107 19.2679 44.0002 19.3305 44.1075 19.3752C44.2148 19.4199 44.3222 19.4467 44.4295 19.4467C44.4295 19.5541 44.4563 19.6614 44.5011 19.7687C44.5458 19.8761 44.5994 19.9655 44.671 20.046C44.5994 20.1265 44.5368 20.216 44.4921 20.3233C44.4474 20.4306 44.4205 20.538 44.4205 20.6453C44.3132 20.6453 44.2059 20.6721 44.0985 20.7169C43.9912 20.7616 43.9018 20.8153 43.8213 20.8868Z" fill="white"/>
<path d="M44.4648 22.6301C44.2322 22.6301 43.9997 22.5496 43.8119 22.3976C43.5167 22.6301 43.1231 22.6838 42.7743 22.5407C42.4254 22.3976 42.1929 22.0666 42.1571 21.6999C41.7904 21.6552 41.4594 21.4137 41.3253 21.0648C41.1822 20.716 41.2448 20.3135 41.4773 20.0273C41.2448 19.7321 41.1911 19.3296 41.3342 18.9897C41.4773 18.6409 41.8083 18.4083 42.175 18.3725C42.2197 18.0058 42.4612 17.6748 42.8101 17.5407C43.1589 17.3976 43.5525 17.4602 43.8476 17.7017C44.1428 17.4691 44.5364 17.4155 44.8852 17.5586C45.234 17.7017 45.4666 18.0326 45.5024 18.3994C45.8691 18.4441 46.2 18.6856 46.3342 19.0344C46.4773 19.3833 46.4147 19.7858 46.1732 20.072C46.4058 20.3672 46.4594 20.7697 46.3163 21.1096C46.1732 21.4584 45.8423 21.6909 45.4755 21.7267C45.4308 22.0935 45.1893 22.4244 44.8405 22.5586C44.7153 22.6122 44.59 22.6301 44.4559 22.6301H44.4648ZM43.8119 22.2187L43.8566 22.2634C44.107 22.496 44.4827 22.5586 44.7958 22.4333C45.1178 22.2992 45.3324 22.004 45.3503 21.6552V21.5926H45.4129C45.7528 21.5747 46.0659 21.3689 46.2 21.0469C46.3342 20.7339 46.2716 20.3582 46.048 20.1078L46.0122 20.063L46.048 20.0183C46.2805 19.7679 46.3432 19.4011 46.2179 19.0791C46.0927 18.7661 45.7797 18.5425 45.4398 18.5246H45.3771V18.462C45.3593 18.1221 45.1535 17.809 44.8315 17.6749C44.5185 17.5407 44.1428 17.6033 43.8924 17.8359L43.8476 17.8716L43.8029 17.8269C43.5525 17.5943 43.1857 17.5317 42.8637 17.657C42.5507 17.7822 42.3271 18.0863 42.3092 18.4351V18.4977H42.2466C41.9067 18.5156 41.5936 18.7214 41.4594 19.0434C41.3253 19.3564 41.3879 19.7321 41.6115 19.9825L41.6473 20.0273L41.6115 20.072C41.3789 20.3224 41.3163 20.6981 41.4415 21.0112C41.5668 21.3242 41.8798 21.5478 42.2197 21.5657H42.2823V21.6283C42.3002 21.9682 42.5059 22.2813 42.828 22.4155C43.141 22.5496 43.5077 22.487 43.7671 22.2545L43.8119 22.2187ZM43.8208 20.9754L43.7761 20.9307C43.6956 20.8591 43.6151 20.8054 43.5167 20.7607C43.4272 20.7249 43.3199 20.6981 43.2215 20.6892H43.1589V20.6265C43.1589 20.5192 43.1321 20.4208 43.0963 20.3314C43.0605 20.2419 43.0068 20.1525 42.9353 20.072L42.8906 20.0273L42.9353 19.9825C43.0068 19.902 43.0605 19.8215 43.1052 19.7231C43.141 19.6337 43.1678 19.5353 43.1768 19.428V19.3654H43.2394C43.3467 19.3654 43.4451 19.3385 43.5346 19.3028C43.633 19.267 43.7135 19.2133 43.794 19.1418L43.8387 19.097L43.8834 19.1418C43.9639 19.2133 44.0444 19.267 44.1428 19.3117C44.2322 19.3475 44.3396 19.3743 44.438 19.3833H44.5006V19.4459C44.5006 19.5532 44.5274 19.6516 44.5632 19.741C44.599 19.8305 44.6526 19.9199 44.7242 20.0004L44.7689 20.0452L44.7242 20.0899C44.6526 20.1614 44.599 20.2509 44.5632 20.3493C44.5274 20.4477 44.5006 20.546 44.4916 20.6444V20.707H44.429C44.3217 20.707 44.2233 20.7339 44.1339 20.7697C44.0444 20.8054 43.955 20.8591 43.8745 20.9307L43.8297 20.9754H43.8208ZM43.2841 20.5729C43.3825 20.5818 43.4809 20.6087 43.5703 20.6444C43.6598 20.6802 43.7403 20.7339 43.8208 20.7965C43.9013 20.7339 43.9818 20.6892 44.0712 20.6444C44.1607 20.6087 44.2591 20.5818 44.3575 20.5729C44.3664 20.4745 44.3932 20.385 44.429 20.2867C44.4648 20.1972 44.5185 20.1167 44.5811 20.0362C44.5185 19.9557 44.4737 19.8752 44.429 19.7858C44.3932 19.6963 44.3664 19.5979 44.3575 19.4995C44.2591 19.4906 44.1607 19.4638 44.0712 19.428C43.9818 19.3922 43.9013 19.3385 43.8208 19.2759C43.7403 19.3385 43.6598 19.3833 43.5703 19.428C43.4809 19.4638 43.3825 19.4906 43.2841 19.4995C43.2752 19.5979 43.2483 19.6963 43.2126 19.7858C43.1768 19.8752 43.1231 19.9557 43.0605 20.0362C43.1231 20.1167 43.1678 20.1972 43.2126 20.2867C43.2483 20.3761 43.2752 20.4745 43.2841 20.5729Z" fill="black"/>
<path d="M63.777 19.0532C63.6338 18.6954 63.3029 18.4807 62.9451 18.4539C62.9272 18.0961 62.7126 17.7562 62.3637 17.6131C62.0149 17.4611 61.6213 17.5416 61.353 17.7831C61.0846 17.5416 60.7 17.4521 60.3422 17.6042C59.9845 17.7473 59.7698 18.0782 59.743 18.436C59.3852 18.4539 59.0453 18.6686 58.9022 19.0174C58.7501 19.3662 58.8306 19.7598 59.0721 20.0281C58.8306 20.2965 58.7412 20.6811 58.8932 21.0389C59.0363 21.3967 59.3673 21.6113 59.7251 21.6382C59.743 21.9959 59.9576 22.3358 60.3065 22.4789C60.6553 22.6221 61.0489 22.5505 61.3172 22.309C61.5855 22.5505 61.9702 22.6399 62.3279 22.4879C62.6857 22.3448 62.9004 22.0138 62.9272 21.656C63.285 21.6382 63.6249 21.4235 63.768 21.0747C63.9201 20.7258 63.8396 20.3323 63.5981 20.0639C63.8396 19.7956 63.929 19.411 63.777 19.0532ZM61.3261 20.8868C61.2456 20.8153 61.1562 20.7526 61.0489 20.7079C60.9415 20.6632 60.8342 20.6364 60.7269 20.6364C60.7269 20.529 60.7 20.4217 60.6553 20.3144C60.6106 20.207 60.5569 20.1176 60.4854 20.0371C60.5569 19.9566 60.6195 19.8671 60.6643 19.7598C60.709 19.6525 60.7358 19.5451 60.7358 19.4378C60.8431 19.4378 60.9505 19.411 61.0578 19.3662C61.1652 19.3215 61.2546 19.2679 61.3351 19.1963C61.4156 19.2679 61.505 19.3305 61.6124 19.3752C61.7197 19.4199 61.827 19.4467 61.9344 19.4467C61.9344 19.5541 61.9612 19.6614 62.0059 19.7687C62.0507 19.8761 62.1043 19.9655 62.1759 20.046C62.1043 20.1265 62.0417 20.216 61.997 20.3233C61.9523 20.4306 61.9254 20.538 61.9254 20.6453C61.8181 20.6453 61.7108 20.6721 61.6034 20.7169C61.4961 20.7616 61.4066 20.8153 61.3261 20.8868Z" fill="white"/>
<path d="M61.9605 22.6301C61.7279 22.6301 61.4954 22.5496 61.3075 22.3976C61.0124 22.6301 60.6188 22.6838 60.27 22.5407C59.9211 22.3976 59.6886 22.0666 59.6528 21.6999C59.2861 21.6552 58.9551 21.4137 58.821 21.0648C58.6778 20.716 58.7405 20.3135 58.982 20.0273C58.7494 19.7321 58.6957 19.3296 58.8388 18.9897C58.982 18.6409 59.3129 18.4083 59.6796 18.3725C59.7244 18.0058 59.9659 17.6748 60.3147 17.5407C60.6635 17.3976 61.066 17.4602 61.3523 17.7017C61.6474 17.4691 62.041 17.4155 62.3898 17.5586C62.7297 17.7017 62.9712 18.0326 63.007 18.3994C63.3737 18.4441 63.7047 18.6856 63.8388 19.0344C63.982 19.3833 63.9193 19.7858 63.6868 20.072C63.9193 20.3672 63.973 20.7697 63.8299 21.1096C63.6868 21.4584 63.3558 21.6909 62.9891 21.7267C62.9444 22.0935 62.7029 22.4244 62.354 22.5586C62.2288 22.6122 62.1036 22.6301 61.9694 22.6301H61.9605ZM61.3165 22.2187L61.3612 22.2634C61.6116 22.496 61.9873 22.5586 62.3004 22.4333C62.6134 22.3081 62.837 21.9951 62.8549 21.6552V21.5926H62.9176C63.2574 21.5747 63.5705 21.3689 63.7047 21.0469C63.8388 20.7339 63.7762 20.3582 63.5526 20.1078L63.5168 20.063L63.5526 20.0183C63.7852 19.7679 63.8478 19.4011 63.7226 19.0791C63.5973 18.7661 63.2843 18.5425 62.9444 18.5246H62.8818V18.462C62.8639 18.1221 62.6582 17.809 62.3362 17.6749C62.0231 17.5407 61.6564 17.6033 61.397 17.8359L61.3523 17.8716L61.3075 17.8269C61.0571 17.5943 60.6904 17.5317 60.3684 17.657C60.0464 17.7911 59.8317 18.0863 59.8138 18.4351V18.4977H59.7512C59.4113 18.5156 59.0982 18.7214 58.9641 19.0434C58.8299 19.3564 58.8925 19.7321 59.1161 19.9825L59.1519 20.0273L59.1161 20.072C58.8836 20.3224 58.821 20.6981 58.9462 21.0112C59.0714 21.3242 59.3845 21.5478 59.7243 21.5657H59.787V21.6283C59.8048 21.9682 60.0106 22.2813 60.3326 22.4155C60.6456 22.5496 61.0124 22.487 61.2718 22.2545L61.3165 22.2187ZM61.3165 20.9754L61.2718 20.9307C61.2002 20.8591 61.1108 20.8054 61.0124 20.7607C60.9229 20.7249 60.8156 20.6981 60.7172 20.6892H60.6546V20.6265C60.6546 20.5192 60.6277 20.4208 60.592 20.3314C60.5562 20.2419 60.5025 20.1525 60.431 20.072L60.3862 20.0273L60.431 19.9825C60.5025 19.902 60.5562 19.8215 60.6009 19.7231C60.6367 19.6337 60.6635 19.5264 60.6725 19.428V19.3654H60.7351C60.8424 19.3654 60.9408 19.3385 61.0303 19.3028C61.1286 19.267 61.2091 19.2133 61.2896 19.1418L61.3344 19.097L61.3791 19.1418C61.4596 19.2133 61.5401 19.267 61.6385 19.3117C61.7279 19.3475 61.8353 19.3743 61.9337 19.3833H61.9963V19.4459C61.9963 19.5443 62.0231 19.6516 62.0589 19.741C62.0947 19.8305 62.1483 19.9199 62.2199 20.0004L62.2646 20.0452L62.2199 20.0899C62.1483 20.1704 62.0947 20.2509 62.0589 20.3493C62.0231 20.4387 61.9963 20.546 61.9873 20.6444V20.707H61.9247C61.8174 20.707 61.719 20.7339 61.6295 20.7697C61.5401 20.8054 61.4506 20.8591 61.3701 20.9307L61.3254 20.9664L61.3165 20.9754ZM60.7888 20.5729C60.8871 20.5818 60.9855 20.6087 61.075 20.6444C61.1644 20.6802 61.2449 20.7339 61.3254 20.7965C61.4059 20.7339 61.4864 20.6892 61.5759 20.6444C61.6653 20.6087 61.7637 20.5818 61.8621 20.5729C61.871 20.4745 61.8979 20.3761 61.9337 20.2867C61.9694 20.1972 62.0231 20.1167 62.0857 20.0362C62.0231 19.9557 61.9694 19.8752 61.9337 19.7858C61.8979 19.6963 61.871 19.5979 61.8621 19.4995C61.7637 19.4906 61.6653 19.4638 61.5759 19.428C61.4864 19.3922 61.4059 19.3385 61.3254 19.2759C61.2449 19.3385 61.1644 19.3833 61.075 19.428C60.9855 19.4638 60.8871 19.4906 60.7888 19.4995C60.7798 19.5979 60.753 19.6874 60.7172 19.7858C60.6814 19.8752 60.6277 19.9557 60.5651 20.0362C60.6277 20.1167 60.6725 20.1972 60.7172 20.2867C60.753 20.3761 60.7798 20.4745 60.7888 20.5729Z" fill="black"/>
<path d="M53.2757 18.4539C53.2578 18.0961 53.0431 17.7652 52.6943 17.6131C52.3454 17.4611 51.9519 17.5416 51.6835 17.7831C51.4152 17.5416 51.0306 17.4521 50.6728 17.6042C50.315 17.7562 50.1004 18.0782 50.0735 18.436C49.7157 18.4539 49.3759 18.6686 49.2327 19.0174C49.0807 19.3662 49.1612 19.7598 49.4027 20.0281C49.1612 20.2965 49.0717 20.6811 49.2238 21.0389C49.3669 21.3967 49.6979 21.6113 50.0556 21.6382C50.0735 21.9959 50.2882 22.3358 50.637 22.4789C50.9859 22.631 51.3794 22.5505 51.6478 22.309C51.9161 22.5505 52.3007 22.6399 52.6585 22.4879C53.1505 22.2911 53.383 21.7276 53.1862 21.2357C52.9895 20.7437 52.4259 20.5111 51.934 20.7079C51.8267 20.7526 51.7372 20.8063 51.6567 20.8779C51.5762 20.8063 51.4868 20.7437 51.3794 20.699C51.2721 20.6543 51.1648 20.6274 51.0574 20.6274C51.0574 20.5201 51.0306 20.4128 50.9859 20.3054C50.9412 20.1981 50.8875 20.1086 50.8159 20.0281C50.8875 19.9476 50.9501 19.8582 50.9948 19.7509C51.0395 19.6435 51.0664 19.5362 51.0664 19.4289C51.1648 19.4289 51.2632 19.402 51.3526 19.3752C51.3526 19.5004 51.3705 19.6346 51.4242 19.7598C51.6209 20.2518 52.1844 20.4843 52.6764 20.2875C52.7211 20.2696 52.7569 20.2518 52.7927 20.2249C53.0431 20.368 53.3472 20.4038 53.6335 20.2875C54.1254 20.0908 54.358 19.5272 54.1612 19.0353C54.0091 18.6596 53.6513 18.436 53.2667 18.436L53.2757 18.4539Z" fill="white"/>
<path d="M52.2998 22.6301C52.0673 22.6301 51.8347 22.5496 51.6469 22.3976C51.3517 22.6301 50.9492 22.6838 50.6093 22.5407C50.2694 22.3976 50.0279 22.0666 49.9922 21.6999C49.6254 21.6552 49.2945 21.4137 49.1603 21.0648C49.0172 20.716 49.0798 20.3224 49.3213 20.0273C49.0888 19.7321 49.0351 19.3385 49.1782 18.9897C49.3213 18.6498 49.6523 18.4083 50.019 18.3725C50.0637 18.0058 50.3052 17.6748 50.6541 17.5407C51.0029 17.3976 51.3964 17.4602 51.6916 17.7017C51.9868 17.4691 52.3893 17.4155 52.7292 17.5586C53.0691 17.7017 53.3106 18.0237 53.3464 18.3994C53.7399 18.4262 54.0888 18.6677 54.2408 19.0344C54.3481 19.2849 54.3392 19.5711 54.2408 19.8215C54.1335 20.072 53.9367 20.2688 53.6773 20.3761C53.3911 20.4924 53.078 20.4745 52.8097 20.3314C52.7829 20.3493 52.7471 20.3672 52.7113 20.3761C52.4608 20.4834 52.1746 20.4745 51.9242 20.3761C51.6737 20.2688 51.4769 20.072 51.3696 19.8126C51.3249 19.7053 51.307 19.5979 51.2981 19.4906C51.2444 19.5085 51.1907 19.5174 51.1371 19.5174C51.1281 19.6158 51.1013 19.7142 51.0655 19.8037C51.0297 19.8931 50.9761 19.9736 50.9134 20.0541C50.9761 20.1346 51.0208 20.2151 51.0655 20.3045C51.1013 20.394 51.1281 20.4924 51.1371 20.5908C51.2354 20.5997 51.3249 20.6265 51.4233 20.6623C51.5127 20.6981 51.5932 20.7518 51.6737 20.8144C51.7542 20.7518 51.8347 20.707 51.9242 20.6623C52.4519 20.4477 53.0512 20.6981 53.2659 21.2258C53.4805 21.7536 53.2211 22.3528 52.7023 22.5675C52.5771 22.6212 52.4519 22.6391 52.3177 22.6391L52.2998 22.6301ZM51.6469 22.2187L51.6916 22.2634C51.9421 22.496 52.3177 22.5586 52.6308 22.4333C53.087 22.2455 53.3106 21.7267 53.1227 21.2706C52.9349 20.8144 52.4161 20.5908 51.96 20.7786C51.8705 20.8144 51.7811 20.8681 51.7006 20.9396L51.6558 20.9843L51.6111 20.9396C51.5396 20.8681 51.4501 20.8144 51.3517 20.7786C51.2623 20.7428 51.1549 20.716 51.0566 20.707H50.9939V20.6444C50.9939 20.5371 50.9671 20.4387 50.9313 20.3493C50.8956 20.2509 50.8419 20.1704 50.7703 20.0899L50.7256 20.0452L50.7703 20.0004C50.8419 19.9199 50.8956 19.8394 50.9313 19.741C50.9671 19.6516 50.9939 19.5532 51.0029 19.4459V19.3833H51.0655C51.1549 19.3833 51.2444 19.3654 51.3338 19.3296L51.4233 19.2938V19.3922C51.4233 19.5174 51.4412 19.6337 51.4859 19.75C51.5753 19.9736 51.7453 20.1435 51.9689 20.233C52.1925 20.3224 52.434 20.3314 52.6487 20.233C52.6845 20.2151 52.7202 20.1972 52.756 20.1793L52.7918 20.1614L52.8276 20.1793C53.0691 20.3224 53.3553 20.3403 53.6147 20.233C53.8383 20.1435 54.0083 19.9736 54.0977 19.75C54.1871 19.5264 54.1961 19.2849 54.0977 19.0702C53.9635 18.7303 53.6326 18.5156 53.2748 18.5156H53.2122V18.453C53.1943 18.1131 52.9796 17.8001 52.6666 17.6659C52.3535 17.5317 51.9778 17.5943 51.7274 17.8269L51.6827 17.8627L51.6379 17.818C51.3875 17.5854 51.0208 17.5228 50.6988 17.648C50.3857 17.7732 50.1621 18.0774 50.1442 18.4262V18.4888H50.0816C49.7417 18.5067 49.4286 18.7214 49.2945 19.0344C49.1603 19.3475 49.2229 19.7232 49.4465 19.9736L49.4913 20.0183L49.4465 20.063C49.214 20.3135 49.1514 20.6892 49.2766 21.0022C49.4018 21.3153 49.7149 21.5389 50.0548 21.5568H50.1174V21.6194C50.1353 21.9593 50.341 22.2723 50.663 22.4065C50.9761 22.5407 51.3517 22.4781 51.6022 22.2455L51.6469 22.2097V22.2187Z" fill="black"/>
<path d="M33.0596 17.6152L33.5963 18.6975L34.7859 18.8675L33.9183 19.6993L34.124 20.8889L33.0596 20.3254L31.9952 20.8889L32.201 19.6993L31.3423 18.8675L32.5319 18.6975L33.0596 17.6152Z" fill="black"/>
<path d="M66.3513 17.6152L66.879 18.6975L68.0776 18.8675L67.21 19.6993L67.4157 20.8889L66.3513 20.3254L65.2869 20.8889L65.4926 19.6993L64.625 18.8675L65.8236 18.6975L66.3513 17.6152Z" fill="black"/>
<path d="M73.5788 28.1748H2.24609V1.82422H73.5788V28.1748ZM2.46971 27.9512H73.3552V2.04783H2.46971V27.9512Z" fill="black"/>
</svg>
