<svg width="21" height="21" viewBox="0 0 21 21" fill="none" xmlns="http://www.w3.org/2000/svg">
<path d="M14.875 0H6.125C4.50108 0.00173712 2.94417 0.647606 1.79589 1.79589C0.647606 2.94417 0.00173712 4.50108 0 6.125V14.875C0.00173712 16.4989 0.647606 18.0558 1.79589 19.2041C2.94417 20.3524 4.50108 20.9983 6.125 21H11.375C11.469 20.9999 11.5625 20.9847 11.6517 20.9552C14.5206 19.9981 19.9981 14.5206 20.9552 11.6517C20.9847 11.5625 20.9999 11.469 21 11.375V6.125C20.9983 4.50108 20.3524 2.94417 19.2041 1.79589C18.0558 0.647606 16.4989 0.00173712 14.875 0ZM1.75 14.875V6.125C1.75 4.96468 2.21094 3.85188 3.03141 3.03141C3.85188 2.21094 4.96468 1.75 6.125 1.75H14.875C16.0353 1.75 17.1481 2.21094 17.9686 3.03141C18.7891 3.85188 19.25 4.96468 19.25 6.125V10.5H16.625C15.0011 10.5017 13.4442 11.1476 12.2959 12.2959C11.1476 13.4442 10.5017 15.0011 10.5 16.625V19.25H6.125C4.96468 19.25 3.85188 18.7891 3.03141 17.9686C2.21094 17.1481 1.75 16.0353 1.75 14.875ZM12.25 18.7184V16.625C12.25 15.4647 12.7109 14.3519 13.5314 13.5314C14.3519 12.7109 15.4647 12.25 16.625 12.25H18.7184C17.3906 14.3828 14.3828 17.3906 12.25 18.7184Z" fill="#00C2FF"/>
</svg>
