<svg width="137" height="126" viewBox="0 0 137 126" fill="none" xmlns="http://www.w3.org/2000/svg">
<path d="M135.95 65.4603L39.5664 100.541L40.0223 101.794L136.406 66.713L135.95 65.4603Z" fill="#9BD4FA"/>
<path d="M145.128 90.6732L48.7441 125.754L49.2001 127.007L145.583 91.9259L145.128 90.6732Z" fill="#9BD4FA"/>
<path d="M114.422 156.301C78.1559 169.5 37.9025 150.73 24.7026 114.463C11.5026 78.1969 30.2775 37.9558 66.5441 24.7559C102.811 11.5559 143.06 30.3141 156.264 66.5929C169.468 102.872 150.694 143.113 114.427 156.313L114.422 156.301ZM67.4381 27.2121C32.5225 39.9204 14.455 78.6661 27.1633 113.582C39.8715 148.497 78.6173 166.565 113.533 153.857C148.449 141.148 166.516 102.403 153.808 67.4869C141.099 32.5713 102.354 14.5038 67.4381 27.2121Z" fill="#9BD4FA"/>
<path d="M112.455 150.895C79.1607 163.014 42.2241 145.79 30.1059 112.495C17.9877 79.2007 35.2282 42.272 68.5105 30.1582C101.793 18.0445 138.742 35.2638 150.86 68.5583C162.978 101.853 145.754 138.789 112.46 150.908L112.455 150.895ZM69.3285 32.4057C37.2866 44.068 20.7033 79.6309 32.3656 111.673C44.0279 143.715 79.5909 160.298 111.633 148.636C143.675 136.973 160.258 101.41 148.596 69.3685C136.933 37.3267 101.383 20.7389 69.3285 32.4057Z" fill="#9BD4FA"/>
<path d="M47.3281 102.533L51.1844 101.13L53.8307 108.4L58.0374 98.6353L62.8517 96.8831L58.5198 106.304L69.898 114.179L65.0592 115.941L56.9085 109.978L55.5114 113.018L57.5676 118.667L53.7113 120.071L47.3281 102.533Z" fill="#9BD4FA"/>
<path d="M72.7709 92.7995C78.1992 90.8238 82.8674 93.7144 84.7627 98.9217C86.658 104.129 84.8863 109.197 79.458 111.172C74.0297 113.148 69.3615 110.257 67.5198 105.198C65.6782 100.138 67.3425 94.7753 72.7709 92.7995ZM78.2779 107.93C81.7412 106.67 81.9703 103.248 80.9064 100.325C79.7889 97.2549 77.4143 94.7813 73.951 96.0418C70.4876 97.3023 70.2586 100.724 71.3761 103.794C72.4936 106.864 74.8146 109.191 78.2779 107.93Z" fill="#9BD4FA"/>
<path d="M84.1719 89.123L93.6284 85.6811C96.7725 84.5368 99.5577 85.9987 100.523 88.6515C101.274 90.7147 101.002 92.5661 99.3479 94.0584L99.3658 94.1075C101.436 93.9104 102.647 95.5559 103.413 97.2797C103.889 98.3582 104.616 100.43 105.661 101.163L101.805 102.566C100.936 101.631 100.368 99.918 99.6619 98.5895C98.7212 96.8456 97.7139 96.2943 95.7734 97.0006L91.9171 98.4042L94.4114 105.257L90.5551 106.661L84.1719 89.123ZM90.9158 95.6532L95.1406 94.1155C96.86 93.4897 97.5251 92.4131 96.8814 90.6446C96.2378 88.8761 95.063 88.5526 93.3436 89.1784L89.1189 90.7161L90.9158 95.6532Z" fill="#9BD4FA"/>
<path d="M101.907 82.6699L115.024 77.8959L116.204 81.1382L106.944 84.5086L108.311 88.2667L116.81 85.1734L117.901 88.17L109.402 91.2633L110.967 95.5617L120.423 92.1198L121.603 95.3621L108.29 100.208L101.907 82.6699Z" fill="#9BD4FA"/>
<path d="M122.613 75.1319L126.568 73.6926L139.509 88.8433L135.506 90.3005L132.758 86.8778L126.2 89.2648L126.246 93.6709L122.34 95.0923L122.613 75.1319ZM126.161 86.0244L130.705 84.3705L126.152 78.7397L126.103 78.7576L126.161 86.0244Z" fill="#9BD4FA"/>
<path d="M93.3432 36.7514C94.4658 38.3455 88.6066 44.3724 80.274 50.2147C71.9414 56.057 64.2792 59.4995 63.1733 57.9131C62.0507 56.3189 67.9099 50.2921 76.2425 44.4498C84.575 38.6075 92.2373 35.165 93.3432 36.7514Z" fill="#9BD4FA"/>
<path d="M79.0545 44.5015L68.019 44.0257L65.9716 45.661L72.8553 48.9831L79.0545 44.5015Z" fill="#9BD4FA"/>
<path d="M81.5118 48.7627L79.3325 61.1553L76.363 63.5435L75.0957 52.2662L81.5118 48.7627Z" fill="#9BD4FA"/>
<path d="M67.8284 52.8955C67.1652 53.1368 58.3012 51.7873 58.3012 51.7873L54.9064 54.4971L63.5534 58.1928L67.8284 52.8955Z" fill="#9BD4FA"/>
<path d="M60.6852 85.0817C60.6238 85.1041 60.5534 85.1018 60.4864 85.0706C60.4194 85.0394 60.3725 84.9869 60.3502 84.9255C60.3367 84.8886 60.3189 84.8395 60.3255 84.7815L60.5317 75.68C60.5372 75.5806 60.5517 75.5058 60.5874 75.4511C60.6231 75.3963 60.7002 75.3405 60.7984 75.3047L61.216 75.1528C61.3142 75.117 61.3969 75.1147 61.4717 75.1292C61.5342 75.1482 61.6057 75.1917 61.6616 75.2687L67.6698 82.1084C67.6698 82.1084 67.7301 82.1977 67.7435 82.2345C67.7658 82.2959 67.7636 82.3663 67.7324 82.4333C67.7011 82.5003 67.6487 82.5472 67.5872 82.5696L67.3416 82.659C67.2557 82.6902 67.1853 82.688 67.1351 82.6646C67.0803 82.6289 67.0301 82.6055 67.0044 82.5731L65.5278 80.8852L61.1802 82.4676L61.1339 84.7097C61.1339 84.7097 61.1239 84.7969 61.0927 84.8639C61.0614 84.9309 61.0045 84.9655 60.9185 84.9968L60.6729 85.0862L60.6852 85.0817ZM61.2067 81.6235L64.9648 80.2556L61.3246 76.1007L61.2067 81.6235Z" fill="#9BD4FA"/>
<path d="M69.5515 81.856C69.4656 81.8873 69.3952 81.885 69.3282 81.8538C69.2612 81.8226 69.2143 81.7701 69.183 81.6841L66.2552 73.6399C66.2239 73.5539 66.2216 73.4713 66.2528 73.4043C66.2841 73.3373 66.3366 73.2904 66.4225 73.2591L69.2841 72.2176C70.1438 71.9047 70.9075 71.8631 71.5585 72.0851C72.2096 72.3071 72.6955 72.8396 72.9994 73.6748C73.2363 74.3257 73.2689 74.9119 73.0803 75.4256C72.8918 75.9392 72.5357 76.3748 72.0077 76.72L75.2097 79.3654C75.2097 79.3654 75.2823 79.4502 75.2957 79.4871C75.3181 79.5485 75.3159 79.6188 75.2846 79.6858C75.2534 79.7528 75.2009 79.7998 75.1395 79.8221L74.9921 79.8758C74.857 79.9249 74.7454 79.9238 74.6616 79.8848C74.5734 79.8334 74.4852 79.7821 74.4092 79.7263L71.2541 77.1334L68.7241 78.0542L69.9489 81.4193C69.9802 81.5052 69.978 81.5756 69.9468 81.6426C69.9155 81.7096 69.8508 81.761 69.7648 81.7923L69.5437 81.8727L69.5515 81.856ZM68.4638 77.3006L70.7603 76.4647C71.4727 76.2054 71.9471 75.8658 72.1837 75.4459C72.4203 75.026 72.4358 74.5336 72.2212 73.9441C72.0067 73.3546 71.6783 72.9873 71.2316 72.83C70.7804 72.6604 70.1864 72.7097 69.4864 72.9645L67.1898 73.8004L68.4593 77.2883L68.4638 77.3006Z" fill="#9BD4FA"/>
<path d="M77.4119 78.9946C77.3259 79.0259 77.2556 79.0237 77.1886 78.9925C77.1216 78.9612 77.0747 78.9088 77.0434 78.8228L74.1155 70.7786C74.0842 70.6926 74.082 70.61 74.1132 70.543C74.1444 70.476 74.1969 70.429 74.2829 70.3978L77.1444 69.3562C78.0041 69.0433 78.7679 69.0018 79.4189 69.2238C80.0699 69.4458 80.5558 69.9783 80.8598 70.8134C81.0967 71.4643 81.1292 72.0505 80.9407 72.5642C80.7521 73.0779 80.3961 73.5135 79.868 73.8587L83.0701 76.5041C83.0701 76.5041 83.1427 76.5889 83.1561 76.6258C83.1784 76.6872 83.1762 76.7575 83.145 76.8245C83.1137 76.8915 83.0613 76.9384 82.9999 76.9608L82.8525 77.0144C82.7174 77.0636 82.6057 77.0625 82.522 77.0235C82.4338 76.9721 82.3455 76.9208 82.2696 76.865L79.1144 74.272L76.5845 75.1929L77.8093 78.5579C77.8406 78.6439 77.8384 78.7143 77.8071 78.7813C77.7759 78.8483 77.7111 78.8996 77.6251 78.9309L77.4041 79.0114L77.4119 78.9946ZM76.3241 74.4392L78.6207 73.6033C79.333 73.3441 79.8075 73.0045 80.0441 72.5846C80.2807 72.1647 80.2962 71.6722 80.0816 71.0827C79.867 70.4932 79.5386 70.126 79.092 69.9687C78.6408 69.7991 78.0468 69.8484 77.3467 70.1032L75.0502 70.9391L76.3196 74.427L76.3241 74.4392Z" fill="#9BD4FA"/>
<path d="M85.2713 76.1353C85.1853 76.1666 85.115 76.1643 85.0479 76.1331C84.9809 76.1019 84.934 76.0494 84.9027 75.9634L81.9704 67.9069C81.9391 67.8209 81.9413 67.7506 81.9726 67.6836C82.0038 67.6166 82.0563 67.5697 82.1423 67.5384L82.3756 67.4535C82.4616 67.4222 82.5319 67.4244 82.5989 67.4556C82.6659 67.4869 82.7128 67.5393 82.7441 67.6253L85.6764 75.6818C85.7077 75.7678 85.7055 75.8381 85.6743 75.9051C85.643 75.9721 85.5906 76.0191 85.5046 76.0503L85.2713 76.1353Z" fill="#9BD4FA"/>
<path d="M90.6753 74.1665C90.5648 74.2067 90.4698 74.2135 90.3905 74.1867C90.3113 74.1599 90.223 74.1086 90.1504 74.0237L84.418 67.1394C84.418 67.1394 84.3577 67.05 84.3443 67.0132C84.3219 66.9518 84.3242 66.8814 84.3554 66.8144C84.3867 66.7474 84.4391 66.7005 84.5005 66.6782L84.7584 66.5843C84.8444 66.553 84.9147 66.5552 84.965 66.5787C85.0153 66.6021 85.07 66.6378 85.0957 66.6702L90.5209 73.2074L90.4749 64.7123C90.4749 64.7123 90.4972 64.6207 90.5161 64.5582C90.5351 64.4957 90.592 64.461 90.678 64.4298L90.9359 64.3359C90.9973 64.3135 91.0676 64.3158 91.1347 64.347C91.2017 64.3782 91.2486 64.4307 91.2709 64.4921C91.2843 64.529 91.3022 64.5781 91.2955 64.6361L91.3294 73.5946C91.3284 73.7063 91.3061 73.7978 91.2625 73.8693C91.219 73.9408 91.1297 74.0011 91.0192 74.0413L90.6753 74.1665Z" fill="#9BD4FA"/>
<path d="M96.1892 72.1568C96.1033 72.188 96.0329 72.1858 95.9659 72.1546C95.8989 72.1233 95.852 72.0709 95.8207 71.9849L92.8928 63.9407C92.8616 63.8547 92.8593 63.7721 92.8905 63.7051C92.9218 63.6381 92.9743 63.5912 93.0602 63.5599L97.8499 61.8166C97.9359 61.7853 98.0185 61.783 98.0855 61.8143C98.1525 61.8455 98.2039 61.9102 98.2352 61.9962L98.3022 62.1804C98.3335 62.2664 98.3313 62.3368 98.3001 62.4038C98.2688 62.4708 98.2041 62.5221 98.1181 62.5534L93.8319 64.1135L94.9718 67.2452L98.9878 65.7835C99.0738 65.7522 99.1564 65.75 99.2234 65.7812C99.2904 65.8124 99.3418 65.8772 99.3731 65.9632L99.4401 66.1474C99.4714 66.2333 99.4692 66.3037 99.4379 66.3707C99.4067 66.4377 99.342 66.4891 99.256 66.5204L95.24 67.9821L96.4246 71.2366L100.809 69.6408C100.895 69.6095 100.978 69.6073 101.045 69.6385C101.112 69.6698 101.163 69.7345 101.194 69.8205L101.261 70.0047C101.293 70.0907 101.29 70.161 101.259 70.228C101.228 70.295 101.163 70.3464 101.077 70.3777L96.1892 72.1568Z" fill="#9BD4FA"/>
<path d="M103.46 69.5122C103.374 69.5435 103.303 69.5413 103.236 69.5101C103.169 69.4788 103.123 69.4263 103.091 69.3404L100.163 61.2961C100.132 61.2102 100.13 61.1275 100.161 61.0605C100.192 60.9935 100.245 60.9466 100.331 60.9153L102.947 59.9632C103.819 59.6459 104.539 59.5228 105.124 59.6019C105.709 59.681 106.187 59.9243 106.579 60.3518C106.967 60.7671 107.301 61.3409 107.572 62.0488C107.706 62.4172 107.823 62.7365 107.925 63.019C108.028 63.3015 108.149 63.6331 108.278 63.9892C108.539 64.7429 108.656 65.4094 108.626 65.9767C108.596 66.5439 108.387 67.0375 107.997 67.4575C107.607 67.8774 106.984 68.2293 106.137 68.5378L103.46 69.5122ZM103.695 68.5921L105.807 67.8232C106.458 67.5863 106.955 67.3081 107.257 66.9898C107.575 66.6793 107.742 66.2985 107.771 65.8429C107.8 65.3873 107.698 64.8402 107.482 64.2094C107.393 63.9638 107.313 63.7427 107.245 63.5585L107.044 63.0059C106.977 62.8216 106.901 62.6129 106.812 62.3672C106.473 61.4752 106.019 60.8757 105.461 60.6056C104.9 60.3233 104.131 60.3526 103.149 60.7102L101.098 61.4567L103.691 68.5798L103.695 68.5921Z" fill="#9BD4FA"/>
<path d="M82.0847 132.872C81.9988 132.903 81.9284 132.901 81.8614 132.869C81.7944 132.838 81.7475 132.786 81.7162 132.7L78.7884 124.656C78.7571 124.57 78.7548 124.487 78.7861 124.42C78.8173 124.353 78.8698 124.306 78.9557 124.275L82.1611 123.108C82.7383 122.898 83.2408 122.826 83.6852 122.901C84.1297 122.976 84.4814 123.14 84.7908 123.417C85.0835 123.686 85.299 124.01 85.4421 124.403C85.5717 124.76 85.6299 125.072 85.6009 125.375C85.5798 125.661 85.5207 125.919 85.4024 126.129C85.2886 126.351 85.1692 126.519 85.0408 126.664C85.4305 126.703 85.8113 126.87 86.1988 127.132C86.5864 127.394 86.8701 127.792 87.0578 128.308C87.2053 128.713 87.2501 129.142 87.1922 129.594C87.1298 130.034 86.9591 130.444 86.6633 130.816C86.3675 131.188 85.9455 131.48 85.3806 131.686L82.0892 132.884L82.0847 132.872ZM80.8181 127.825L83.3604 126.9C83.9622 126.681 84.3797 126.376 84.5884 125.994C84.797 125.612 84.8304 125.168 84.6561 124.69C84.4818 124.211 84.188 123.9 83.7793 123.771C83.3706 123.641 82.8715 123.684 82.2697 123.903L79.7275 124.828L80.8181 127.825ZM82.3245 131.964L84.9896 130.994C85.5913 130.775 86.0122 130.441 86.2153 130.005C86.4307 129.565 86.4551 129.097 86.2763 128.606C86.0975 128.115 85.7859 127.755 85.3302 127.573C84.8824 127.375 84.3576 127.385 83.7558 127.604L81.0908 128.574L82.3245 131.964Z" fill="#9BD4FA"/>
<path d="M92.7892 129.113C92.1137 129.359 91.4918 129.446 90.9279 129.387C90.3595 129.316 89.8693 129.077 89.4281 128.667C88.9869 128.258 88.6194 127.668 88.3177 126.916C88.1836 126.547 88.0584 126.203 87.9422 125.884C87.826 125.565 87.7008 125.221 87.5667 124.853C87.3142 124.082 87.2336 123.402 87.3205 122.8C87.4074 122.198 87.6417 121.696 88.0391 121.259C88.4287 120.839 88.9366 120.515 89.5753 120.283C90.2139 120.05 90.8235 119.968 91.3919 120.039C91.9603 120.11 92.4751 120.34 92.933 120.757C93.3909 121.175 93.7618 121.735 94.0635 122.488C94.2099 122.852 94.3473 123.191 94.4636 123.511C94.5798 123.83 94.7049 124.174 94.8145 124.551C95.0838 125.329 95.1812 126.017 95.1021 126.602C95.0274 127.2 94.7931 127.702 94.4035 128.122C94.0139 128.542 93.477 128.863 92.8015 129.109L92.7892 129.113ZM92.521 128.376C93.221 128.121 93.7345 127.698 94.0325 127.103C94.3305 126.508 94.3258 125.73 94.014 124.759C93.8921 124.386 93.7882 124.062 93.6854 123.78C93.5826 123.497 93.4664 123.178 93.3077 122.819C93.063 122.184 92.7524 121.713 92.3838 121.389C92.0153 121.064 91.6255 120.872 91.19 120.822C90.7545 120.772 90.318 120.833 89.839 121.007C89.36 121.182 89.0028 121.423 88.7092 121.725C88.4078 122.043 88.2326 122.44 88.1591 122.926C88.0855 123.412 88.1627 123.968 88.3706 124.616C88.5047 124.984 88.6209 125.303 88.7237 125.586C88.8266 125.868 88.9428 126.188 89.0769 126.556C89.4624 127.501 89.9583 128.099 90.5692 128.363C91.1801 128.628 91.8332 128.626 92.5333 128.372L92.521 128.376Z" fill="#9BD4FA"/>
<path d="M98.2342 126.991C98.1482 127.022 98.0778 127.02 98.0108 126.989C97.9438 126.957 97.8969 126.905 97.8656 126.819L94.9333 118.762C94.902 118.676 94.9042 118.606 94.9355 118.539C94.9667 118.472 95.0192 118.425 95.1052 118.394L95.3385 118.309C95.4245 118.278 95.4948 118.28 95.5618 118.311C95.6288 118.342 95.6757 118.395 95.707 118.481L98.4695 126.071L102.707 124.528C102.792 124.497 102.875 124.495 102.942 124.526C103.009 124.557 103.061 124.622 103.092 124.708L103.159 124.892C103.19 124.978 103.188 125.049 103.157 125.116C103.125 125.183 103.061 125.234 102.975 125.265L98.2342 126.991Z" fill="#9BD4FA"/>
<path d="M104.965 124.54C104.879 124.571 104.808 124.569 104.741 124.537C104.674 124.506 104.627 124.454 104.596 124.368L101.668 116.323C101.637 116.238 101.635 116.155 101.666 116.088C101.697 116.021 101.75 115.974 101.836 115.943L106.625 114.199C106.711 114.168 106.794 114.166 106.861 114.197C106.928 114.228 106.979 114.293 107.011 114.379L107.078 114.563C107.109 114.649 107.107 114.72 107.075 114.787C107.044 114.854 106.979 114.905 106.894 114.936L102.607 116.496L103.747 119.628L107.763 118.166C107.849 118.135 107.932 118.133 107.999 118.164C108.066 118.195 108.117 118.26 108.148 118.346L108.216 118.53C108.247 118.616 108.245 118.686 108.213 118.753C108.182 118.821 108.117 118.872 108.031 118.903L104.015 120.365L105.2 123.619L109.584 122.024C109.67 121.992 109.753 121.99 109.82 122.021C109.887 122.053 109.938 122.117 109.97 122.203L110.037 122.387C110.068 122.473 110.066 122.544 110.035 122.611C110.003 122.678 109.939 122.729 109.853 122.76L104.965 124.54Z" fill="#9BD4FA"/>
<path d="M114.114 121.216C114.028 121.248 113.957 121.245 113.89 121.214C113.823 121.183 113.777 121.13 113.745 121.044L110.983 113.455L108.551 114.34C108.465 114.371 108.395 114.369 108.328 114.338C108.261 114.306 108.214 114.254 108.183 114.168L108.116 113.984C108.084 113.898 108.082 113.815 108.113 113.748C108.144 113.681 108.197 113.634 108.283 113.603L113.908 111.556C113.994 111.524 114.076 111.522 114.143 111.553C114.21 111.585 114.262 111.649 114.293 111.735L114.36 111.919C114.391 112.005 114.389 112.076 114.358 112.143C114.327 112.21 114.262 112.261 114.176 112.292L111.756 113.173L114.519 120.763C114.55 120.849 114.548 120.919 114.517 120.986C114.486 121.053 114.421 121.105 114.335 121.136L114.114 121.216Z" fill="#9BD4FA"/>
<path d="M121.552 118.644C120.876 118.89 120.255 118.977 119.691 118.918C119.122 118.847 118.632 118.608 118.191 118.199C117.75 117.789 117.382 117.2 117.08 116.447C116.946 116.079 116.821 115.735 116.705 115.415C116.589 115.096 116.464 114.752 116.329 114.384C116.077 113.613 115.996 112.933 116.083 112.332C116.17 111.73 116.404 111.227 116.802 110.79C117.191 110.37 117.699 110.046 118.338 109.814C118.977 109.582 119.586 109.499 120.155 109.57C120.723 109.641 121.238 109.871 121.696 110.289C122.154 110.706 122.525 111.267 122.826 112.019C122.973 112.383 123.11 112.723 123.226 113.042C123.342 113.361 123.468 113.705 123.577 114.082C123.847 114.861 123.944 115.548 123.865 116.133C123.79 116.731 123.556 117.233 123.166 117.653C122.777 118.073 122.24 118.394 121.564 118.64L121.552 118.644ZM121.284 117.907C121.984 117.653 122.497 117.229 122.795 116.634C123.093 116.039 123.088 115.262 122.777 114.29C122.655 113.917 122.551 113.594 122.448 113.311C122.345 113.029 122.229 112.709 122.07 112.35C121.826 111.716 121.515 111.245 121.147 110.92C120.778 110.595 120.388 110.403 119.953 110.353C119.517 110.303 119.081 110.364 118.602 110.539C118.123 110.713 117.765 110.954 117.472 111.256C117.171 111.574 116.995 111.972 116.922 112.457C116.848 112.943 116.925 113.499 117.133 114.147C117.267 114.515 117.384 114.835 117.486 115.117C117.589 115.4 117.705 115.719 117.84 116.087C118.225 117.032 118.721 117.63 119.332 117.895C119.943 118.159 120.596 118.158 121.296 117.903L121.284 117.907Z" fill="#9BD4FA"/>
</svg>
