<svg width="137" height="127" viewBox="0 0 137 127" fill="none" xmlns="http://www.w3.org/2000/svg">
<path d="M135.171 65.2025L38.7871 100.283L39.2431 101.536L135.626 66.4552L135.171 65.2025Z" fill="#9BD4FA"/>
<path d="M144.348 90.4174L47.9648 125.498L48.4208 126.751L144.804 91.67L144.348 90.4174Z" fill="#9BD4FA"/>
<path d="M113.657 156.037C77.3902 169.237 37.1414 150.479 23.9414 114.212C10.7415 77.9455 29.5119 37.6921 65.7785 24.4922C102.045 11.2922 142.294 30.0504 155.498 66.3293C168.703 102.608 149.928 142.849 113.661 156.049L113.657 156.037ZM66.6725 26.9484C31.7568 39.6567 13.6894 78.4024 26.3977 113.318C39.1059 148.234 77.8517 166.301 112.767 153.593C147.683 140.885 165.75 102.139 153.042 67.2233C140.334 32.3076 101.576 14.2447 66.6725 26.9484Z" fill="#9BD4FA"/>
<path d="M111.69 150.632C78.3951 162.75 41.4585 145.526 29.3402 112.232C17.222 78.9371 34.4503 42.0128 67.7448 29.8945C101.039 17.7763 137.976 35.0001 150.094 68.2947C162.212 101.589 144.989 138.526 111.694 150.644L111.69 150.632ZM68.5629 32.142C36.5087 43.8088 19.9254 79.3717 31.5922 111.426C43.2589 143.48 78.8174 160.051 110.859 148.389C142.901 136.726 159.484 101.163 147.822 69.1216C136.16 37.0798 100.605 20.4797 68.5629 32.142Z" fill="#9BD4FA"/>
<path d="M48.0869 105.384L42.8305 107.297L41.6504 104.055L56.0195 98.8248L57.1996 102.067L51.9432 103.98L57.1463 118.276L53.29 119.679L48.0869 105.384Z" fill="#9BD4FA"/>
<path d="M58.0332 98.0918L67.4898 94.6499C70.6338 93.5056 73.419 94.9675 74.3845 97.6202C75.1355 99.6835 74.8636 101.535 73.2092 103.027L73.2271 103.076C75.2972 102.879 76.5081 104.525 77.2746 106.248C77.7506 107.327 78.477 109.399 79.5223 110.131L75.666 111.535C74.797 110.599 74.2293 108.887 73.5232 107.558C72.5825 105.814 71.5752 105.263 69.6348 105.969L65.7784 107.373L68.2727 114.226L64.4164 115.629L58.0332 98.0918ZM64.7772 104.622L69.0019 103.084C70.7213 102.458 71.3865 101.382 70.7428 99.6133C70.0991 97.8448 68.9243 97.5214 67.205 98.1472L62.9802 99.6848L64.7772 104.622Z" fill="#9BD4FA"/>
<path d="M80.5568 89.8956L84.5114 88.4563L97.4528 103.607L93.4491 105.064L90.7013 101.641L84.1431 104.028L84.189 108.435L80.2836 109.856L80.5568 89.8956ZM84.1041 100.788L88.6482 99.1342L84.0953 93.5034L84.0462 93.5213L84.1041 100.788Z" fill="#9BD4FA"/>
<path d="M106.002 100.496L101.654 102.079L89.5723 86.6152L93.5514 85.1669L101.945 96.0759L101.994 96.058L101.461 82.2883L105.44 80.84L106.002 100.496Z" fill="#9BD4FA"/>
<path d="M106.937 80.2891L120.053 75.5151L121.233 78.7573L111.973 82.1277L113.341 85.8858L121.839 82.7926L122.93 85.7892L114.431 88.8824L115.996 93.1809L125.453 89.739L126.633 92.9812L113.32 97.8267L106.937 80.2891Z" fill="#9BD4FA"/>
<path d="M122.854 74.5L126.71 73.0964L131.913 87.3918L140.461 84.2807L141.641 87.5229L129.237 92.0377L122.854 74.5Z" fill="#9BD4FA"/>
<path d="M92.5668 36.4936C93.6894 38.0877 87.8302 44.1146 79.4976 49.9569C71.165 55.7992 63.5028 59.2417 62.3969 57.6553C61.2743 56.0611 67.1335 50.0342 75.4661 44.192C83.7987 38.3497 91.4609 34.9072 92.5668 36.4936Z" fill="#9BD4FA"/>
<path d="M78.2791 44.2417L67.2436 43.7659L65.1962 45.4012L72.0799 48.7233L78.2791 44.2417Z" fill="#9BD4FA"/>
<path d="M80.7354 48.5068L78.5684 60.895L75.5867 63.2876L74.3316 52.0059L80.7354 48.5068Z" fill="#9BD4FA"/>
<path d="M67.0637 52.6318C66.4005 52.8732 57.5366 51.5236 57.5366 51.5236L54.1418 54.2335L62.7887 57.9291L67.0637 52.6318Z" fill="#9BD4FA"/>
<path d="M55.3992 86.4614C55.3132 86.4927 55.2429 86.4905 55.1759 86.4593C55.1089 86.428 55.062 86.3756 55.0307 86.2896L52.1028 78.2454C52.0715 78.1594 52.0693 78.0768 52.1005 78.0098C52.1318 77.9428 52.1842 77.8958 52.2702 77.8646L54.8861 76.9124C55.7581 76.5951 56.4782 76.472 57.0634 76.5511C57.6485 76.6302 58.1265 76.8735 58.5185 77.3011C58.9061 77.7163 59.2401 78.2902 59.5117 78.998C59.6458 79.3664 59.762 79.6857 59.8648 79.9682C59.9676 80.2507 60.0883 80.5823 60.2179 80.9384C60.4783 81.6921 60.5958 82.3586 60.5658 82.9259C60.5358 83.4931 60.326 83.9867 59.9365 84.4067C59.5469 84.8266 58.9239 85.1785 58.0765 85.487L55.3992 86.4614ZM55.6345 85.5413L57.7469 84.7725C58.3978 84.5355 58.8946 84.2574 59.196 83.939C59.5141 83.6285 59.6815 83.2477 59.7104 82.7921C59.7393 82.3366 59.6375 81.7895 59.4219 81.1586C59.3325 80.913 59.252 80.692 59.1849 80.5077L58.9838 79.9551C58.9167 79.7709 58.8408 79.5621 58.7514 79.3165C58.4128 78.4244 57.9581 77.8249 57.4009 77.5549C56.8391 77.2725 56.0709 77.3018 55.0884 77.6594L53.0375 78.4059L55.6301 85.529L55.6345 85.5413Z" fill="#9BD4FA"/>
<path d="M63.7127 83.4341C63.6267 83.4654 63.5564 83.4632 63.4894 83.4319C63.4224 83.4007 63.3754 83.3482 63.3441 83.2622L60.4163 75.218C60.385 75.132 60.3827 75.0494 60.414 74.9824C60.4452 74.9154 60.4977 74.8685 60.5837 74.8372L65.3734 73.0939C65.4593 73.0626 65.542 73.0604 65.609 73.0916C65.676 73.1228 65.7273 73.1876 65.7586 73.2736L65.8257 73.4578C65.857 73.5437 65.8548 73.6141 65.8235 73.6811C65.7923 73.7481 65.7275 73.7995 65.6416 73.8308L61.3554 75.3908L62.4953 78.5225L66.5112 77.0608C66.5972 77.0296 66.6798 77.0273 66.7468 77.0585C66.8138 77.0898 66.8652 77.1545 66.8965 77.2405L66.9636 77.4247C66.9948 77.5107 66.9926 77.581 66.9614 77.648C66.9301 77.715 66.8654 77.7664 66.7794 77.7977L62.7635 79.2594L63.948 82.5139L68.3324 80.9182C68.4184 80.8869 68.501 80.8846 68.568 80.9158C68.635 80.9471 68.6864 81.0118 68.7177 81.0978L68.7848 81.282C68.816 81.368 68.8138 81.4383 68.7826 81.5054C68.7513 81.5724 68.6866 81.6237 68.6006 81.655L63.7127 83.4341Z" fill="#9BD4FA"/>
<path d="M70.9842 80.7915C70.8982 80.8228 70.8278 80.8206 70.7608 80.7893C70.6938 80.7581 70.6469 80.7056 70.6156 80.6197L67.6878 72.5754C67.6565 72.4895 67.6542 72.4068 67.6855 72.3398C67.7167 72.2728 67.7692 72.2259 67.8552 72.1946L70.8395 71.1084C71.4167 70.8983 71.9437 70.8178 72.4328 70.8623C72.9219 70.9068 73.3563 71.0686 73.7237 71.3521C74.0957 71.6479 74.3761 72.0743 74.5772 72.627C74.7784 73.1797 74.8377 73.6866 74.7429 74.1522C74.6481 74.6179 74.4194 75.021 74.0733 75.3695C73.7273 75.718 73.255 75.9872 72.6901 76.1929L70.2093 77.0958L71.3894 80.3381C71.4206 80.424 71.4184 80.4944 71.3872 80.5614C71.3559 80.6284 71.2912 80.6798 71.2052 80.7111L70.9842 80.7915ZM69.9411 76.3589L72.3605 75.4783C73.0728 75.2191 73.5428 74.8672 73.7749 74.435C74.007 74.0028 74.0136 73.4858 73.8035 72.9086C73.5934 72.3314 73.2561 71.9396 72.8004 71.7577C72.3448 71.5758 71.7586 71.6084 71.0463 71.8676L68.6269 72.7482L69.9411 76.3589Z" fill="#9BD4FA"/>
<path d="M77.358 78.4704C77.2966 78.4927 77.2263 78.4905 77.1593 78.4593C77.0923 78.428 77.0454 78.3756 77.023 78.3142C77.0096 78.2773 76.9917 78.2282 76.9984 78.1701L77.2045 69.0687C77.2101 68.9693 77.2246 68.8945 77.2603 68.8397C77.296 68.785 77.373 68.7292 77.4713 68.6934L77.8888 68.5414C77.9871 68.5057 78.0697 68.5034 78.1445 68.5179C78.2071 68.5369 78.2785 68.5804 78.3344 68.6574L84.3426 75.497C84.3426 75.497 84.4029 75.5864 84.4163 75.6232C84.4387 75.6846 84.4365 75.755 84.4052 75.822C84.374 75.889 84.3215 75.9359 84.2601 75.9582L84.0145 76.0476C83.9285 76.0789 83.8582 76.0767 83.8079 76.0533C83.7532 76.0176 83.7029 75.9941 83.6772 75.9618L82.2006 74.2739L77.853 75.8563L77.8068 78.0984C77.8068 78.0984 77.7968 78.1855 77.7655 78.2525C77.7343 78.3195 77.6773 78.3542 77.5914 78.3854L77.3458 78.4748L77.358 78.4704ZM77.8796 75.0121L81.6376 73.6443L77.9974 69.4894L77.8796 75.0121Z" fill="#9BD4FA"/>
<path d="M86.2254 75.2407C86.1394 75.272 86.0691 75.2698 86.0021 75.2386C85.935 75.2073 85.8881 75.1549 85.8568 75.0689L82.929 67.0247C82.8977 66.9387 82.8954 66.8561 82.9267 66.7891C82.9579 66.7221 83.0104 66.6751 83.0964 66.6438L85.9579 65.6023C86.8176 65.2894 87.5813 65.2479 88.2324 65.4699C88.8834 65.6919 89.3693 66.2244 89.6732 67.0595C89.9102 67.7104 89.9427 68.2966 89.7542 68.8103C89.5656 69.324 89.2095 69.7596 88.6815 70.1048L91.8836 72.7502C91.8836 72.7502 91.9562 72.835 91.9696 72.8719C91.9919 72.9333 91.9897 73.0036 91.9585 73.0706C91.9272 73.1376 91.8748 73.1845 91.8133 73.2069L91.666 73.2605C91.5309 73.3097 91.4192 73.3086 91.3355 73.2695C91.2472 73.2182 91.159 73.1669 91.0831 73.1111L87.9279 70.5181L85.398 71.439L86.6228 74.804C86.654 74.89 86.6518 74.9603 86.6206 75.0274C86.5893 75.0944 86.5246 75.1457 86.4386 75.177L86.2176 75.2575L86.2254 75.2407ZM85.1376 70.6853L87.4342 69.8494C88.1465 69.5902 88.6209 69.2506 88.8575 68.8307C89.0941 68.4108 89.1096 67.9183 88.8951 67.3288C88.6805 66.7393 88.3521 66.3721 87.9054 66.2148C87.4543 66.0452 86.8603 66.0945 86.1602 66.3493L83.8636 67.1852L85.1331 70.6731L85.1376 70.6853Z" fill="#9BD4FA"/>
<path d="M95.853 71.7358C95.7671 71.7671 95.6967 71.7649 95.6297 71.7337C95.5627 71.7024 95.5158 71.65 95.4845 71.564L92.722 63.9742L90.2903 64.8592C90.2044 64.8905 90.134 64.8883 90.067 64.8571C90 64.8258 89.9531 64.7734 89.9218 64.6874L89.8548 64.5032C89.8235 64.4172 89.8212 64.3346 89.8525 64.2676C89.8837 64.2006 89.9362 64.1537 90.0221 64.1224L95.647 62.0751C95.7329 62.0438 95.8156 62.0415 95.8826 62.0728C95.9496 62.104 96.001 62.1688 96.0322 62.2548L96.0993 62.439C96.1306 62.5249 96.1284 62.5953 96.0971 62.6623C96.0659 62.7293 96.0011 62.7807 95.9152 62.812L93.4958 63.6926L96.2582 71.2824C96.2895 71.3684 96.2873 71.4387 96.2561 71.5057C96.2248 71.5727 96.1601 71.6241 96.0741 71.6554L95.853 71.7358Z" fill="#9BD4FA"/>
<path d="M100.815 69.9302C100.729 69.9615 100.659 69.9593 100.592 69.928C100.525 69.8968 100.478 69.8443 100.447 69.7583L97.5188 61.7141C97.4875 61.6281 97.4853 61.5455 97.5165 61.4785C97.5478 61.4115 97.6002 61.3646 97.6862 61.3333L102.476 59.59C102.562 59.5587 102.644 59.5564 102.712 59.5877C102.779 59.6189 102.83 59.6837 102.861 59.7697L102.928 59.9539C102.96 60.0398 102.957 60.1102 102.926 60.1772C102.895 60.2442 102.83 60.2956 102.744 60.3269L98.4579 61.8869L99.5978 65.0186L103.614 63.5569C103.7 63.5256 103.782 63.5234 103.849 63.5546C103.916 63.5859 103.968 63.6506 103.999 63.7366L104.066 63.9208C104.097 64.0068 104.095 64.0771 104.064 64.1441C104.033 64.2111 103.968 64.2625 103.882 64.2938L99.866 65.7555L101.051 69.01L105.435 67.4142C105.521 67.383 105.604 67.3807 105.671 67.4119C105.738 67.4432 105.789 67.5079 105.82 67.5939L105.887 67.7781C105.919 67.8641 105.916 67.9344 105.885 68.0014C105.854 68.0684 105.789 68.1198 105.703 68.1511L100.815 69.9302Z" fill="#9BD4FA"/>
<path d="M108.086 67.2857C108 67.3169 107.929 67.3147 107.862 67.2835C107.795 67.2522 107.748 67.1998 107.717 67.1138L104.789 59.0696C104.758 58.9836 104.756 58.901 104.787 58.834C104.818 58.767 104.871 58.7201 104.957 58.6888L107.573 57.7367C108.445 57.4193 109.165 57.2962 109.75 57.3754C110.335 57.4545 110.813 57.6977 111.205 58.1253C111.593 58.5405 111.927 59.1144 112.198 59.8222C112.332 60.1906 112.449 60.51 112.551 60.7924C112.654 61.0749 112.775 61.4065 112.904 61.7627C113.165 62.5163 113.282 63.1829 113.252 63.7501C113.222 64.3173 113.013 64.8109 112.623 65.2309C112.233 65.6508 111.61 66.0028 110.763 66.3112L108.086 67.2857ZM108.321 66.3655L110.433 65.5967C111.084 65.3598 111.581 65.0816 111.883 64.7633C112.201 64.4527 112.368 64.0719 112.397 63.6164C112.426 63.1608 112.324 62.6137 112.108 61.9829C112.019 61.7372 111.939 61.5162 111.871 61.332L111.67 60.7793C111.603 60.5951 111.527 60.3863 111.438 60.1407C111.099 59.2486 110.645 58.6491 110.087 58.3791C109.526 58.0967 108.757 58.126 107.775 58.4836L105.724 59.2301L108.317 66.3532L108.321 66.3655Z" fill="#9BD4FA"/>
<path d="M81.3064 132.612C81.2205 132.643 81.1501 132.641 81.0831 132.61C81.0161 132.578 80.9692 132.526 80.9379 132.44L78.01 124.396C77.9787 124.31 77.9765 124.227 78.0077 124.16C78.039 124.093 78.0914 124.046 78.1774 124.015L81.3828 122.848C81.96 122.638 82.4625 122.567 82.9069 122.641C83.3513 122.716 83.7031 122.88 84.0125 123.157C84.3051 123.426 84.5207 123.751 84.6638 124.144C84.7934 124.5 84.8516 124.812 84.8226 125.115C84.8015 125.401 84.7424 125.659 84.6241 125.869C84.5103 126.091 84.3908 126.26 84.2625 126.404C84.6522 126.443 85.033 126.61 85.4205 126.872C85.8081 127.135 86.0918 127.532 86.2795 128.048C86.427 128.453 86.4718 128.882 86.4139 129.334C86.3515 129.774 86.1808 130.184 85.885 130.556C85.5892 130.928 85.1672 131.221 84.6023 131.426L81.3109 132.624L81.3064 132.612ZM80.0398 127.565L82.5821 126.64C83.1838 126.421 83.6014 126.116 83.81 125.734C84.0187 125.352 84.0521 124.909 83.8778 124.43C83.7034 123.951 83.4097 123.64 83.001 123.511C82.5923 123.382 82.0932 123.424 81.4914 123.643L78.9491 124.569L80.0398 127.565ZM81.5462 131.704L84.2113 130.734C84.813 130.515 85.2339 130.181 85.437 129.745C85.6524 129.305 85.6768 128.838 85.498 128.346C85.3192 127.855 85.0076 127.496 84.5519 127.314C84.1041 127.115 83.5793 127.125 82.9775 127.344L80.3125 128.314L81.5462 131.704Z" fill="#9BD4FA"/>
<path d="M92.0109 128.853C91.3354 129.099 90.7135 129.186 90.1496 129.127C89.5812 129.056 89.091 128.817 88.6498 128.408C88.2086 127.998 87.8411 127.409 87.5394 126.656C87.4053 126.288 87.2801 125.944 87.1639 125.624C87.0477 125.305 86.9225 124.961 86.7884 124.593C86.5358 123.822 86.4552 123.142 86.5422 122.541C86.6291 121.939 86.8634 121.436 87.2608 120.999C87.6504 120.579 88.1583 120.255 88.7969 120.023C89.4356 119.791 90.0452 119.708 90.6136 119.779C91.1819 119.85 91.6968 120.08 92.1547 120.498C92.6126 120.915 92.9835 121.476 93.2852 122.228C93.4316 122.592 93.569 122.931 93.6852 123.251C93.8015 123.57 93.9266 123.914 94.0362 124.291C94.3055 125.07 94.4028 125.757 94.3237 126.342C94.2491 126.94 94.0148 127.442 93.6252 127.862C93.2356 128.282 92.6986 128.603 92.0232 128.849L92.0109 128.853ZM91.7427 128.116C92.4427 127.862 92.9562 127.438 93.2542 126.843C93.5521 126.248 93.5474 125.471 93.2356 124.499C93.1138 124.126 93.0099 123.803 92.9071 123.52C92.8042 123.238 92.688 122.918 92.5294 122.559C92.2846 121.925 91.9741 121.454 91.6055 121.129C91.2369 120.804 90.8472 120.612 90.4117 120.562C89.9762 120.512 89.5396 120.573 89.0607 120.748C88.5817 120.922 88.2245 121.163 87.9309 121.465C87.6295 121.783 87.4543 122.181 87.3808 122.666C87.3072 123.152 87.3844 123.708 87.5923 124.356C87.7264 124.724 87.8426 125.044 87.9454 125.326C88.0482 125.608 88.1645 125.928 88.2986 126.296C88.6841 127.241 89.18 127.839 89.7909 128.104C90.4017 128.368 91.0549 128.367 91.755 128.112L91.7427 128.116Z" fill="#9BD4FA"/>
<path d="M97.4558 126.731C97.3699 126.762 97.2995 126.76 97.2325 126.729C97.1655 126.698 97.1186 126.645 97.0873 126.559L94.155 118.503C94.1237 118.417 94.1259 118.346 94.1571 118.279C94.1884 118.212 94.2409 118.165 94.3268 118.134L94.5602 118.049C94.6461 118.018 94.7165 118.02 94.7835 118.051C94.8505 118.083 94.8974 118.135 94.9287 118.221L97.6912 125.811L101.928 124.269C102.014 124.237 102.097 124.235 102.164 124.266C102.231 124.298 102.282 124.362 102.313 124.448L102.381 124.633C102.412 124.719 102.41 124.789 102.378 124.856C102.347 124.923 102.282 124.974 102.196 125.006L97.4558 126.731Z" fill="#9BD4FA"/>
<path d="M104.186 124.28C104.1 124.311 104.03 124.309 103.963 124.278C103.896 124.246 103.849 124.194 103.818 124.108L100.89 116.064C100.859 115.978 100.856 115.895 100.888 115.828C100.919 115.761 100.971 115.714 101.057 115.683L105.847 113.94C105.933 113.908 106.016 113.906 106.083 113.937C106.15 113.969 106.201 114.033 106.232 114.119L106.299 114.303C106.331 114.389 106.328 114.46 106.297 114.527C106.266 114.594 106.201 114.645 106.115 114.676L101.829 116.237L102.969 119.368L106.985 117.907C107.071 117.875 107.153 117.873 107.22 117.904C107.287 117.935 107.339 118 107.37 118.086L107.437 118.27C107.468 118.356 107.466 118.427 107.435 118.494C107.404 118.561 107.339 118.612 107.253 118.643L103.237 120.105L104.422 123.36L108.806 121.764C108.892 121.733 108.975 121.73 109.042 121.762C109.109 121.793 109.16 121.858 109.191 121.944L109.258 122.128C109.29 122.214 109.287 122.284 109.256 122.351C109.225 122.418 109.16 122.469 109.074 122.501L104.186 124.28Z" fill="#9BD4FA"/>
<path d="M113.335 120.955C113.249 120.986 113.179 120.984 113.112 120.952C113.045 120.921 112.998 120.869 112.967 120.783L110.204 113.193L107.773 114.078C107.687 114.109 107.616 114.107 107.549 114.076C107.482 114.045 107.436 113.992 107.404 113.906L107.337 113.722C107.306 113.636 107.304 113.553 107.335 113.486C107.366 113.419 107.419 113.372 107.505 113.341L113.129 111.294C113.215 111.263 113.298 111.26 113.365 111.292C113.432 111.323 113.483 111.388 113.515 111.473L113.582 111.658C113.613 111.744 113.611 111.814 113.58 111.881C113.548 111.948 113.484 111.999 113.398 112.031L110.978 112.911L113.741 120.501C113.772 120.587 113.77 120.657 113.738 120.724C113.707 120.791 113.642 120.843 113.557 120.874L113.335 120.955Z" fill="#9BD4FA"/>
<path d="M120.774 118.383C120.098 118.628 119.476 118.716 118.912 118.657C118.344 118.585 117.854 118.347 117.412 117.937C116.971 117.527 116.604 116.938 116.302 116.185C116.168 115.817 116.043 115.473 115.927 115.154C115.81 114.834 115.685 114.49 115.551 114.122C115.299 113.352 115.218 112.672 115.305 112.07C115.392 111.468 115.626 110.965 116.023 110.529C116.413 110.109 116.921 109.785 117.56 109.552C118.198 109.32 118.808 109.237 119.376 109.308C119.945 109.38 120.459 109.61 120.917 110.027C121.375 110.444 121.746 111.005 122.048 111.757C122.194 112.121 122.332 112.461 122.448 112.78C122.564 113.099 122.689 113.443 122.799 113.821C123.068 114.599 123.166 115.287 123.086 115.872C123.012 116.469 122.777 116.972 122.388 117.392C121.998 117.812 121.461 118.132 120.786 118.378L120.774 118.383ZM120.505 117.646C121.205 117.391 121.719 116.968 122.017 116.372C122.315 115.777 122.31 115 121.998 114.029C121.877 113.656 121.773 113.332 121.67 113.049C121.567 112.767 121.451 112.448 121.292 112.088C121.047 111.454 120.737 110.983 120.368 110.658C120 110.333 119.61 110.141 119.174 110.091C118.739 110.041 118.302 110.103 117.823 110.277C117.344 110.451 116.987 110.693 116.694 110.994C116.392 111.312 116.217 111.71 116.143 112.196C116.07 112.681 116.147 113.238 116.355 113.885C116.489 114.254 116.605 114.573 116.708 114.855C116.811 115.138 116.927 115.457 117.061 115.826C117.447 116.77 117.943 117.368 118.554 117.633C119.164 117.897 119.818 117.896 120.518 117.641L120.505 117.646Z" fill="#9BD4FA"/>
</svg>
